<svg id="_x33_0" enable-background="new 0 0 64 64" height="512" viewBox="0 0 64 64" width="512" xmlns="http://www.w3.org/2000/svg"><g><g><g><path d="m28 55c-1.654 0-3-1.346-3-3s1.346-3 3-3 3 1.346 3 3-1.346 3-3 3z" fill="#f0bc5e"/></g></g><g><g><path d="m42 45c-1.654 0-3-1.346-3-3s1.346-3 3-3 3 1.346 3 3-1.346 3-3 3z" fill="#f0bc5e"/></g></g><g><g><path d="m50 37c-1.654 0-3-1.346-3-3s1.346-3 3-3 3 1.346 3 3-1.346 3-3 3z" fill="#f0bc5e"/></g></g><g><g><path d="m36 63c-1.654 0-3-1.346-3-3s1.346-3 3-3 3 1.346 3 3-1.346 3-3 3z" fill="#f0bc5e"/></g></g><g><path d="m17 43h2v2h-2z"/><path d="m21 41h2v2h-2z"/><path d="m56.844 13.223c-1.068-6.91-8.284-12.223-16.844-12.223-5.803 0-10.93 2.41-13.999 6.075-2.266-2.57-5.539-4.075-9.001-4.075-6.617 0-12 5.383-12 12 0 .769.078 1.532.223 2.281-2.417.779-4.223 3.083-4.223 5.719 0 3.308 2.691 6 6 6h3.612l-3.472 10.418c-.093.279-.14.568-.14.861 0 1.5 1.221 2.721 2.721 2.721h1.279v9c0 2.757 2.243 5 5 5h5v6h10v-2h-8v-4h2v-2h-9c-1.654 0-3-1.346-3-3v-1h8.414l3.293-3.293-1.414-1.414-2.707 2.707h-7.586v-8h-3.279c-.398 0-.721-.323-.721-.721 0-.078.013-.154.037-.228l3.684-11.051h13.279c1.654 0 3 1.346 3 3v6.586l-2 2v6.414h2v-5.586l2-2v-7.414c0-2.757-2.243-5-5-5h-19c-2.206 0-4-1.794-4-4 0-2.168 1.832-4 4-4 2.206 0 4 1.794 4 4h2c0-3.232-2.57-5.868-5.773-5.989-.135-.66-.227-1.33-.227-2.011 0-5.514 4.486-10 10-10 3.045 0 5.906 1.406 7.799 3.769-.433.713-.801 1.455-1.083 2.231h-.231c-1.87 0-3.627.728-4.95 2.05l-1.243 1.243 1.414 1.414 1.243-1.243c.873-.873 2.017-1.363 3.239-1.435-.111.646-.188 1.3-.188 1.971h2c0-6.617 6.729-12 15-12 7.359 0 13.599 4.313 14.793 10.01-1.496.038-2.889.488-4.074 1.243-.681-2.766-2.635-5.096-5.348-6.181l-.743 1.856c2.442.977 4.098 3.249 4.327 5.847-1.214 1.403-1.955 3.228-1.955 5.225h2c0-3.309 2.691-6 6-6s6 2.691 6 6-2.691 6-6 6h-10v2h10c4.411 0 8-3.589 8-8 0-3.775-2.632-6.941-6.156-7.777z"/><path d="m24.832 35.555.37-.555-.37-.555c-1.438-2.157-3.845-3.445-6.437-3.445h-1.395c-2.206 0-4 1.794-4 4s1.794 4 4 4h1.395c2.592 0 4.999-1.288 6.437-3.445zm-9.832-.555c0-1.103.897-2 2-2s2 .897 2 2-.897 2-2 2-2-.897-2-2zm5.698 1.513c.192-.467.302-.977.302-1.513s-.11-1.046-.302-1.513c.781.343 1.484.854 2.049 1.513-.564.659-1.267 1.171-2.049 1.513z"/><path d="m33.293 41.707 1.707 1.707v11.586h2v-12.414l-2.293-2.293z"/><path d="m33 37h2v2h-2z"/><path d="m33 33h2v2h-2z"/><path d="m41 30v7h2v-7c0-1.654-1.346-3-3-3h-7v2h7c.551 0 1 .449 1 1z"/><path d="m49 43.101c0 1.974-1.166 3.768-2.969 4.569l-5.437 2.417.813 1.827 5.437-2.417c.282-.125.549-.274.807-.432l1.349 1.349v4.586h2v-5.414l-1.805-1.805c1.136-1.262 1.805-2.918 1.805-4.68v-4.101h-2z"/><path d="m49 57h2v2h-2z"/><path d="m33.293 11.293c-1.479 1.478-2.293 3.444-2.293 5.536v.195c-2.009.89-3.765 2.321-5.023 4.209l-.809 1.212 1.664 1.109.809-1.212c1.812-2.719 4.845-4.342 8.113-4.342 4.396 0 8.21 2.978 9.276 7.243l1.94-.485c-1.289-5.157-5.901-8.758-11.216-8.758-.932 0-1.845.118-2.73.328.116-1.368.701-2.639 1.683-3.621z"/></g></g></svg>