<svg id="_x33_0" enable-background="new 0 0 64 64" height="512" viewBox="0 0 64 64" width="512" xmlns="http://www.w3.org/2000/svg"><g><g><g><path d="m12 25c-3.859 0-7-3.14-7-7s3.141-7 7-7 7 3.14 7 7-3.141 7-7 7zm0-9c-1.103 0-2 .897-2 2s.897 2 2 2 2-.897 2-2-.897-2-2-2z" fill="#f0bc5e"/></g></g><g><g><path d="m10 51c-1.654 0-3-1.346-3-3s1.346-3 3-3 3 1.346 3 3-1.346 3-3 3z" fill="#f0bc5e"/></g></g><g><g><path d="m49 43c-7.72 0-14-6.28-14-14s6.28-14 14-14 14 6.28 14 14-6.28 14-14 14zm0-23c-4.963 0-9 4.037-9 9s4.037 9 9 9 9-4.037 9-9-4.037-9-9-9z" fill="#f0bc5e"/></g></g><g><circle cx="24" cy="18" r="1"/><path d="m15 18c0-1.654-1.346-3-3-3s-3 1.346-3 3 1.346 3 3 3 3-1.346 3-3zm-4 0c0-.551.448-1 1-1s1 .449 1 1-.448 1-1 1-1-.449-1-1z"/><path d="m53 53.184v-10.774c-.648.193-1.317.332-2 .43v10.16h-3c-.552 0-1-.449-1-1v-9.16c-.683-.098-1.352-.236-2-.43v6.699c-1.185.245-2.264.91-3 1.891l-1.5 2h-12.377l-3.123-.781v-1.219c0-3.804-1.53-7.254-4-9.779v-6.932l3.575.65c.222.041.447.061.673.061 2.068 0 3.752-1.683 3.752-3.752v-6.63l2.118-1.059-1.92-10.559h1.907l-.109-1.1c-.622-6.214-5.801-10.9-12.046-10.9h-1.968c-8.812 0-15.982 7.17-15.982 15.982 0 4.758 2.096 9.233 5.751 12.279l.249.208v8.614c-2.387 1.385-4 3.964-4 6.917v18h49c1.654 0 3-1.346 3-3v-4c0-1.302-.839-2.402-2-2.816zm-9.618 7.816h-14.382v-6h11.382zm-23.121-1.951 2.739-3.287v5.089c-1.083-.27-2.046-.903-2.739-1.802zm-10.152-16.049c1.597 0 3.099.622 4.228 1.751l8.311 8.311-3.923 4.707-10.777-5.03c-1.791-.836-2.948-2.653-2.948-4.63 0-2.817 2.292-5.109 5.109-5.109zm8.891-3.473c-.63-.441-1.3-.823-2-1.157v-4.808l2 .364zm-5.416-7.43c.389.43.87.77 1.416.997v4.496c-.648-.193-1.317-.332-2-.43v-4.16c0-.402.241-.744.584-.903zm-4.89-7.93-1.134 3.118c-2.896-2.646-4.56-6.356-4.56-10.303 0-7.71 6.272-13.982 13.982-13.982h1.968c4.839 0 8.909 3.369 9.885 8h-16.835c1.902 0 3.627.765 4.889 2h10.276l1.716 9.441-1.881.941v3.618h-2c-1.103 0-2-.897-2-2h-2c0 2.206 1.794 4 4 4h2v2.248c0 1.071-.993 1.923-2.065 1.724l-8.751-1.591c-.812-.147-1.44-.766-1.603-1.576l-.601-3.001-1.961.393.601 3.001c.009.046.027.088.037.134-.978.494-1.657 1.499-1.657 2.668v4c-.692 0-1.359.097-2 .263v-8.087l1.572-4.324c-.665-.138-1.296-.372-1.878-.685zm2.306 14.833c6.47 0 11.746 5.15 11.978 11.563l-7.227-7.227c-1.507-1.506-3.511-2.336-5.642-2.336-1.79 0-3.422.67-4.673 1.765.888-2.204 3.046-3.765 5.564-3.765zm-6 14.023c.597.623 1.297 1.153 2.103 1.529l11.221 5.236.063.095c.274.411.595.779.94 1.117h-14.327zm20 1.258 2 .5v6.219h-2zm28 5.719c0 .551-.448 1-1 1h-6.382l-3.447-6.895 1.429-1.905c.356-.474.852-.81 1.4-1.006v.806c0 1.654 1.346 3 3 3h4c.552 0 1 .449 1 1z"/><path d="m49 19c-5.514 0-10 4.486-10 10s4.486 10 10 10 10-4.486 10-10-4.486-10-10-10zm0 18c-4.411 0-8-3.589-8-8s3.589-8 8-8 8 3.589 8 8-3.589 8-8 8z"/><path d="m32 57h2v2h-2z"/><path d="m36 57h2v2h-2z"/><path d="m54 30v-5h-2v5h-2v-3h-2v3h-2v-1h-2v1h-1v2h12v-2z"/></g></g></svg>