<svg id="_x33_0" enable-background="new 0 0 64 64" height="512" viewBox="0 0 64 64" width="512" xmlns="http://www.w3.org/2000/svg"><g><g><g><path d="m12 55c-1.654 0-3-1.346-3-3s1.346-3 3-3 3 1.346 3 3-1.346 3-3 3z" fill="#f0bc5e"/></g></g><g><g><path d="m14 29c-3.86 0-7-3.14-7-7s3.14-7 7-7 7 3.14 7 7-3.14 7-7 7zm0-9c-1.103 0-2 .897-2 2s.897 2 2 2 2-.897 2-2-.897-2-2-2z" fill="#f0bc5e"/></g></g><g><g><path d="m14 29c-3.86 0-7-3.14-7-7s3.14-7 7-7 7 3.14 7 7-3.14 7-7 7zm0-9c-1.103 0-2 .897-2 2s.897 2 2 2 2-.897 2-2-.897-2-2-2z" fill="#f0bc5e"/></g></g><g><path d="m14 25c1.654 0 3-1.346 3-3s-1.346-3-3-3-3 1.346-3 3 1.346 3 3 3zm0-4c.551 0 1 .449 1 1s-.449 1-1 1-1-.449-1-1 .449-1 1-1z"/><path d="m23 57h2v2h-2z"/><circle cx="36" cy="8" r="1"/><circle cx="36" cy="52" r="1"/><path d="m51.556 44.556c-.256 0-.512.098-.707.293-.391.391-.391 1.024 0 1.414.195.195.451.293.707.293s.512-.098.707-.293c.391-.391.391-1.024 0-1.414-.195-.195-.451-.293-.707-.293z"/><circle cx="58" cy="30" r="1"/><path d="m51.556 13.444c-.256 0-.512.098-.707.293-.391.391-.391 1.024 0 1.414.195.195.451.293.707.293s.512-.098.707-.293c.391-.391.391-1.024 0-1.414-.195-.196-.451-.293-.707-.293z"/><path d="m61 23h-1.089c-1.164 0-2.204-.695-2.676-1.834-.445-1.075-.201-2.302.622-3.124l.77-.77c.78-.78.78-2.048 0-2.828l-7.071-7.071c-.756-.756-2.072-.756-2.828 0l-.762.762c-.827.828-2.06 1.073-3.189.606-1.079-.447-1.777-1.491-1.777-2.659v-1.082c0-1.103-.897-2-2-2h-10c-.599 0-1.13.27-1.497.688-1.283-1.633-3.27-2.688-5.503-2.688h-14c-4.962 0-9 4.038-9 9v8.711c0 4.89 2.392 9.484 6.398 12.289l1.908 1.336c-.186.523-.306 1.077-.306 1.664v7.586l-.394.394c-2.325 2.325-3.606 5.417-3.606 8.707 0 6.789 5.524 12.313 12.313 12.313h30.687c2.757 0 5-2.243 5-5v-1c0-1.103-.897-2-2-2h-4.382l-.123-.246c-.541-1.082-1.628-1.754-2.837-1.754-.177 0-.351.018-.523.047.253-.796.853-1.461 1.699-1.812 1.075-.444 2.301-.201 3.124.622l.77.77c.779.78 2.049.78 2.828 0l7.071-7.071c.78-.78.78-2.048 0-2.828l-.762-.762c-.828-.827-1.073-2.061-.606-3.189.447-1.079 1.491-1.777 2.659-1.777h1.082c1.103 0 2-.897 2-2v-10c0-1.103-.897-2-2-2zm-21.746 33.923 1.358 4.077h-10.81l-1.168-5.257zm-16.671-1.852 3.951.439 1.22 5.49h-8.135zm4.202-1.545-.381-2.475c.274.034.551.097.826.211 1.031.427 1.706 1.402 1.76 2.508zm-2.059-.229-2.124-.236-2.491-4.152c-1.443-2.406-3.427-4.414-5.757-5.909h1.067c4.474 0 8.215 3.209 8.896 7.631zm-9.305-12.297h-4.421v-7c0-1.414.986-2.594 2.304-2.91l.341 3.408c.256 2.566 2.396 4.502 4.975 4.502h.38v2.597c-1.125-.382-2.326-.597-3.579-.597zm13.579-10v-3-1.382l.485-.242c-.304.469-.485 1.025-.485 1.624 0 1.654 1.346 3 3 3h1v8h-3.302c-.043-.03-.083-.063-.125-.094.822-.248 1.427-1.003 1.427-1.906v-4c0-1.103-.897-2-2-2zm13.267 8h-3.267v-8h1c1.654 0 3-1.346 3-3s-1.346-3-3-3-3 1.346-3 3v1h-2v-1c0-1.654-1.346-3-3-3-.341 0-.663.069-.968.174l-.612-4.594c1.574-.948 3.337-1.504 5.149-1.573 3.032-.122 5.886.974 8.059 3.066 2.174 2.094 3.372 4.909 3.372 7.927 0 3.595-1.801 6.953-4.733 9zm-1.267 4h-10v-2h10zm-9-16c.551 0 1 .449 1 1v1h-1c-.551 0-1-.449-1-1s.449-1 1-1zm5 12h-2v-8h2zm2-10v-1c0-.551.449-1 1-1s1 .449 1 1-.449 1-1 1zm-12.336 10c.708.733 1.48 1.395 2.336 1.943v.057 4.504c-3.025-1.361-5.61-3.602-7.417-6.504zm4.336 6h10v1.247c-1.582.488-3.26.753-5 .753-1.728 0-3.407-.264-5-.75zm12-4v-.058c3.715-2.381 6-6.522 6-10.942 0-3.566-1.416-6.893-3.985-9.367-2.569-2.473-5.951-3.751-9.522-3.624-1.865.071-3.69.564-5.359 1.424l-.554-4.153c2.037-.834 4.188-1.28 6.42-1.28 9.374 0 17 7.626 17 17 0 6.877-4.112 12.8-10 15.474zm-33-38h14c2.757 0 5 2.243 5 5 0 1.654-1.346 3-3 3h-9c-1.103 0-2-.897-2-2s.897-2 2-2v-2c-2.206 0-4 1.794-4 4 0 .9.31 1.722.813 2.391-.209.427-.392.864-.52 1.319l-10.257-3.419c.356-3.528 3.343-6.291 6.964-6.291zm-1.455 26.361c-3.472-2.431-5.545-6.412-5.545-10.65v-7.323l10.007 3.336c0 .035-.007.07-.007.105v.251c.328-.047.66-.08 1-.08s.672.033 1 .08v-.251c0-.742.151-1.471.424-2.155.484.208 1.016.326 1.576.326h9c.476 0 .927-.088 1.363-.213l.562 4.213h-4.925v2h5.191l.723 5.425-1.914.957v5.618h-7.133l-.625-4.376c-.516.585-1.126 1.084-1.81 1.471l.456 3.188c.139.979.99 1.717 1.979 1.717h9.133v4h-10.38c-1.548 0-2.832-1.162-2.985-2.702l-.539-5.393c-.358.057-.722.095-1.096.095-.31 0-.613-.027-.912-.066l.016.157c-1.086.198-2.042.748-2.763 1.527zm-1.545 21.326c0-2.755 1.073-5.345 3.021-7.293l.24-.24c3.392 1.276 6.265 3.667 8.136 6.785l2.464 4.105-3.479 6.956h-.068c-5.688 0-10.314-4.626-10.314-10.313zm37.706 4.961.676 1.352h5.618v1c0 1.654-1.346 3-3 3h-5.279l-1.531-4.592 1.817-1.211c.566-.377 1.395-.157 1.699.451zm16.294-20.648h-1.082c-1.98 0-3.749 1.182-4.526 3.059-.758 1.832-.342 3.92 1.059 5.321l.762.762-7.071 7.071-.77-.77c-1.396-1.396-3.477-1.812-5.367-1.029-1.825.756-3.005 2.521-3.005 4.497v.22l-1.251.834-8.749-.971v-.083c0-1.976-1.18-3.741-3.069-4.524-.612-.252-1.268-.359-1.924-.351-.779-2.812-2.597-5.124-5.006-6.533v-.839c3.555 4.593 9.027 7.336 14.999 7.336 10.477 0 19-8.523 19-19s-8.523-19-19-19c-2.317 0-4.558.431-6.693 1.238l-.062-.466c1.065-.918 1.755-2.259 1.755-3.772 0-.354-.035-.699-.086-1.039.053-.287.086-.579.086-.872v-1.089h10v1.082c0 1.98 1.182 3.749 3.059 4.526 1.832.759 3.92.343 5.321-1.059l.762-.762 7.071 7.071-.77.77c-1.396 1.396-1.811 3.477-1.029 5.367.756 1.825 2.521 3.005 4.497 3.005h1.089z"/></g></g></svg>