<svg id="_x33_0" enable-background="new 0 0 64 64" height="512" viewBox="0 0 64 64" width="512" xmlns="http://www.w3.org/2000/svg"><g><g><g><path d="m53 7h-6v-5h6z" fill="#f0bc5e"/></g></g><g><g><path d="m33 7h-6v-5h6z" fill="#f0bc5e"/></g></g><g><path d="m35 28v5.079c.498.514.833 1.18.946 1.921h9.054v-7z" fill="#f0bc5e"/></g><g><g><path d="m10 45c-3.86 0-7-3.141-7-7s3.14-7 7-7 7 3.141 7 7-3.14 7-7 7zm0-9c-1.103 0-2 .897-2 2s.897 2 2 2 2-.897 2-2-.897-2-2-2z" fill="#f0bc5e"/></g></g><g><path d="m32 53c-1.654 0-3 1.346-3 3s1.346 3 3 3 3-1.346 3-3-1.346-3-3-3zm0 4c-.551 0-1-.448-1-1s.449-1 1-1 1 .448 1 1-.449 1-1 1z"/><path d="m56 53c-1.654 0-3 1.346-3 3s1.346 3 3 3 3-1.346 3-3-1.346-3-3-3zm0 4c-.551 0-1-.448-1-1s.449-1 1-1 1 .448 1 1-.449 1-1 1z"/><path d="m48 53c-1.654 0-3 1.346-3 3s1.346 3 3 3 3-1.346 3-3-1.346-3-3-3zm0 4c-.551 0-1-.448-1-1s.449-1 1-1 1 .448 1 1-.449 1-1 1z"/><path d="m56 49h-3v-16h1c4.962 0 9-4.037 9-9 0-3.302-1.792-6.186-4.45-7.752.277-.343.45-.774.45-1.248v-12c0-1.103-.897-2-2-2h-14c-1.103 0-2 .897-2 2v12h-2v-12c0-1.103-.897-2-2-2h-14c-1.103 0-2 .897-2 2v.234c-2.207-1.424-4.825-2.234-7.61-2.234-6.832 0-12.39 5.559-12.39 12.391 0 3.222 1.403 6.271 3.849 8.369 2.002 1.715 3.151 4.212 3.151 6.848v2.686c.634-.189 1.305-.294 2-.294v-2.392c0-3.222-1.403-6.271-3.849-8.367-1.046-.897-1.852-2.01-2.39-3.241h4.34c.465 2.279 2.484 4 4.899 4 2.757 0 5-2.243 5-5 0-1.538-.713-2.899-1.809-3.817l3.862-7.173c2.244 1.494 3.977 3.736 4.817 6.468l.924 3.006-1.794.898v5.618c0 2.206-1.794 4-4 4h-2.789c-1.675 0-3.23-.832-4.16-2.227l-.219-.328-1.664 1.109.219.328c1.096 1.644 2.816 2.72 4.733 3.022l.645 4.516c-1.067-.271-2.175-.42-3.309-.42h-3.456c1.957 0 3.727.81 4.999 2.109 3.368.463 6.342 2.42 8.121 5.357l-3.584 3.584c-.613.613-1.428.95-2.293.95-.661 0-1.289-.212-1.823-.577-.431.527-.936.99-1.5 1.373.309.252.637.476.992.652l-.688 4.126c-2.409-.64-4.547-1.995-6.166-3.854-1.911-.553-3.483-1.899-4.343-3.658 1.123 3.427 3.434 6.199 6.387 7.938h-2.102c-3.86 0-7 3.141-7 7s3.14 7 7 7h48c3.86 0 7-3.141 7-7s-3.14-7-7-7zm-27 0v-3.586l6.671-6.672c.857-.856 1.329-1.996 1.329-3.207 0-2.501-2.035-4.535-4.536-4.535-1.212 0-2.351.472-3.207 1.328l-.257.257v-3.585h22v20zm1-22c-1.654 0-3-1.346-3-3s1.346-3 3-3 3 1.346 3 3-1.346 3-3 3zm3 11.586-3.586-3.586 1.258-1.258c.478-.478 1.115-.742 1.792-.742 1.398 0 2.536 1.138 2.536 2.535 0 .677-.264 1.313-.743 1.793zm-5-2.172 3.586 3.586-2.586 2.586-3.586-3.586zm-1 12.586h-2.255c.797-.47 1.551-1.019 2.255-1.645zm12-25c0-1.654 1.346-3 3-3s3 1.346 3 3-1.346 3-3 3-3-1.346-3-3zm12 0c0-1.654 1.346-3 3-3s3 1.346 3 3-1.346 3-3 3-3-1.346-3-3zm-8-21h14v12h-14zm11 14c3.86 0 7 3.141 7 7s-3.14 7-7 7h-1v-2c0-.035-.009-.068-.01-.103.326.067.664.103 1.01.103 2.757 0 5-2.243 5-5s-2.243-5-5-5-5 2.243-5 5c0 1.13.391 2.162 1.026 3h-4.051c.634-.838 1.025-1.87 1.025-3 0-2.757-2.243-5-5-5s-5 2.243-5 5c0 1.13.391 2.162 1.026 3h-4.051c.634-.838 1.025-1.87 1.025-3 0-2.757-2.243-5-5-5-1.642 0-3.09.807-4.002 2.033 0-.011.002-.022.002-.033v-4zm-43.795-13.496 1.115 7.807c-.379.136-.742.303-1.073.522l-4.947-4.947c1.258-1.561 2.955-2.752 4.905-3.382zm-7.205 9.887c0-1.73.431-3.359 1.182-4.795l4.651 4.651c-.348.525-.602 1.116-.732 1.753h-4.945c-.095-.528-.156-1.064-.156-1.609zm10 5.609c-1.654 0-3-1.346-3-3s1.346-3 3-3 3 1.346 3 3-1.346 3-3 3zm1.431-7.766c-.363-.109-.739-.18-1.131-.204l-1.136-7.951c.403-.048.811-.079 1.226-.079 1.741 0 3.404.373 4.912 1.045zm8.569-6.427v-1.807h14v12h-8.954l-1.265-4.109c-.735-2.393-2.062-4.461-3.781-6.084zm-4.847 22.193h1.847c2.104 0 3.956-1.091 5.027-2.735.086 1.609.918 3.023 2.175 3.875-.126.262-.202.551-.202.86v2h-8.276zm2.332 6h6.515v1.586l-2.417 2.417c-1.075-1.639-2.476-2.997-4.098-4.003zm3.515 7.414 3.586 3.586-1.358 1.358c-.703.703-1.483 1.299-2.31 1.807l-2.779-3.891zm-7.808 8.517.659-3.953c.13.01.26.021.392.021.807 0 1.577-.201 2.283-.544l2.594 3.631c-1.469.598-3.052.914-4.685.914-.419 0-.833-.028-1.243-.069zm39.808 12.069h-48c-2.757 0-5-2.243-5-5s2.243-5 5-5h48c2.757 0 5 2.243 5 5s-2.243 5-5 5z"/><path d="m40 53c-1.654 0-3 1.346-3 3s1.346 3 3 3 3-1.346 3-3-1.346-3-3-3zm0 4c-.551 0-1-.448-1-1s.449-1 1-1 1 .448 1 1-.449 1-1 1z"/><path d="m8 53c-1.654 0-3 1.346-3 3s1.346 3 3 3 3-1.346 3-3-1.346-3-3-3zm0 4c-.551 0-1-.448-1-1s.449-1 1-1 1 .448 1 1-.449 1-1 1z"/><path d="m24 53c-1.654 0-3 1.346-3 3s1.346 3 3 3 3-1.346 3-3-1.346-3-3-3zm0 4c-.551 0-1-.448-1-1s.449-1 1-1 1 .448 1 1-.449 1-1 1z"/><path d="m16 53c-1.654 0-3 1.346-3 3s1.346 3 3 3 3-1.346 3-3-1.346-3-3-3zm0 4c-.551 0-1-.448-1-1s.449-1 1-1 1 .448 1 1-.449 1-1 1z"/><circle cx="13" cy="16" r="1"/><circle cx="54" cy="24" r="1"/><circle cx="42" cy="24" r="1"/><circle cx="30" cy="24" r="1"/><circle cx="21" cy="12" r="1"/><path d="m45 45h2v2h-2z"/><path d="m41 45h2v2h-2z"/><path d="m13 38c0-1.654-1.346-3-3-3s-3 1.346-3 3 1.346 3 3 3 3-1.346 3-3zm-4 0c0-.552.449-1 1-1s1 .448 1 1-.449 1-1 1-1-.448-1-1z"/></g></g></svg>