<svg id="_x33_0" enable-background="new 0 0 64 64" height="512" viewBox="0 0 64 64" width="512" xmlns="http://www.w3.org/2000/svg"><g><path d="m63 4c0 1.654-1.346 3-3 3" fill="#f0bc5e"/><g><path d="m58.601 35.507c-1.324-5.946-5.875-10.518-11.601-11.994v-2.513h9.5l1.004 1.34c.377-.565.946-.983 1.607-1.19l-1.611-2.15h-10.5v-4h10.184c-.112-.314-.184-.648-.184-1s.072-.686.184-1h-10.184v-4h10.5l1.612-2.15c-.662-.207-1.23-.625-1.607-1.19l-1.005 1.34h-9.5v-4c0-1.103-.897-2-2-2h-26c-1.103 0-2 .897-2 2v4h-9.5l-1.005-1.339c-.377.565-.945.982-1.607 1.189l1.612 2.15h10.5v4h-10.184c.112.314.184.648.184 1s-.072.686-.184 1h10.184v4h-10.5l-1.612 2.149c.662.207 1.23.625 1.607 1.19l1.005-1.339h9.5v1.174c-5.261 2.14-9.151 7.011-9.865 12.886-3.452.427-6.135 3.374-6.135 6.94 0 3.859 3.14 7 7 7h13.556c-.344.591-.556 1.268-.556 2 0 2.206 1.794 4 4 4h16c1.103 0 2 .897 2 2s-.897 2-2 2h-24v2h24c2.206 0 4-1.794 4-4s-1.794-4-4-4h-16c-1.103 0-2-.897-2-2s.897-2 2-2h31c3.86 0 7-3.141 7-7 0-2.94-1.824-5.458-4.399-6.493zm-13.601-12.368c-.658-.082-1.323-.139-2-.139v-18h-2v-2h4zm-10.787 2.478c-2.983-2.934-7.012-4.617-11.213-4.617v-14h18v16.129c-2.452.302-4.763 1.153-6.787 2.488zm2.787-20.617v-2h2v2zm-2 0h-2v-2h2zm-4 0h-2v-2h2zm-4 0h-2v-2h2zm-8-2h4v2h-2v16.141c-.681.086-1.347.216-2 .386zm37 44h-25c-2.206 0-4-1.794-4-4s1.794-4 4-4 4 1.794 4 4h2c0-3.309-2.691-6-6-6s-6 2.691-6 6c0 1.538.586 2.937 1.54 4h-18.54c-2.757 0-5-2.243-5-5s2.243-5 5-5 5 2.243 5 5v1h2v-1c0-1.762-.66-3.37-1.738-4.602.711-1.687 2.188-2.98 3.981-3.429l-.485-1.939c-2.198.55-4.039 2.049-5.07 4.031-.764-.476-1.624-.808-2.546-.96.932-6.857 6.834-12.101 13.858-12.101 3.581 0 7.02 1.395 9.608 3.84-.879.755-1.691 1.605-2.407 2.559l1.599 1.201c2.673-3.559 6.755-5.6 11.2-5.6 6.26 0 11.684 4.137 13.419 10.021-.139-.008-.277-.021-.419-.021-1.535 0-2.951.502-4.106 1.343-1.078-1.627-2.739-2.834-4.651-3.313l-.485 1.939c1.554.389 2.89 1.419 3.679 2.8-.898 1.178-1.437 2.641-1.437 4.231v1h2v-1c0-2.757 2.243-5 5-5s5 2.243 5 5-2.243 5-5 5z"/><path d="m23.236 29 .211-.105-.895-1.789-.21.105c-.482.241-.895.568-1.242.95-.85-.738-1.943-1.161-3.1-1.161v2c.835 0 1.603.391 2.119 1.035-.072.312-.119.634-.119.965 0 1.615.897 3.067 2.342 3.789l.211.105.895-1.789-.212-.105c-.762-.381-1.236-1.147-1.236-2s.474-1.619 1.236-2z"/></g><g><g><path d="m4 63c-1.654 0-3-1.346-3-3s1.346-3 3-3 3 1.346 3 3-1.346 3-3 3z" fill="#f0bc5e"/></g></g><g><g><path d="m4 17c-1.654 0-3-1.346-3-3s1.346-3 3-3 3 1.346 3 3-1.346 3-3 3z" fill="#f0bc5e"/></g></g><g><g><path d="m12 63c-1.654 0-3-1.346-3-3s1.346-3 3-3 3 1.346 3 3-1.346 3-3 3z" fill="#f0bc5e"/></g></g><g><g><path d="m4 7c-1.654 0-3-1.346-3-3s1.346-3 3-3 3 1.346 3 3-1.346 3-3 3z" fill="#f0bc5e"/></g></g><g><g><path d="m4 27c-1.654 0-3-1.346-3-3s1.346-3 3-3 3 1.346 3 3-1.346 3-3 3z" fill="#f0bc5e"/></g></g><g><g><path d="m60 17c-1.654 0-3-1.346-3-3s1.346-3 3-3 3 1.346 3 3-1.346 3-3 3z" fill="#f0bc5e"/></g></g><g><g><path d="m60 7c-1.654 0-3-1.346-3-3s1.346-3 3-3 3 1.346 3 3-1.346 3-3 3z" fill="#f0bc5e"/></g></g><g><g><path d="m60 27c-1.654 0-3-1.346-3-3s1.346-3 3-3 3 1.346 3 3-1.346 3-3 3z" fill="#f0bc5e"/></g></g></g></svg>