<svg id="_x33_0" enable-background="new 0 0 64 64" height="512" viewBox="0 0 64 64" width="512" xmlns="http://www.w3.org/2000/svg"><g><g><g><path d="m14 27c-3.86 0-7-3.14-7-7s3.14-7 7-7 7 3.14 7 7-3.14 7-7 7zm0-9c-1.103 0-2 .897-2 2s.897 2 2 2 2-.897 2-2-.897-2-2-2z" fill="#f0bc5e"/></g></g><g><path d="m37 6h16v4h-16z" fill="#f0bc5e"/></g><g><path d="m14 23c1.654 0 3-1.346 3-3s-1.346-3-3-3-3 1.346-3 3 1.346 3 3 3zm0-4c.551 0 1 .449 1 1s-.449 1-1 1-1-.449-1-1 .449-1 1-1z"/><path d="m36 19h1v1.764c0 1.233 1.003 2.236 2.236 2.236.852 0 1.619-.474 2-1.236l1.382-2.764h11.382c1.654 0 3-1.346 3-3v-12c0-1.654-1.346-3-3-3h-18c-1.654 0-3 1.346-3 3v12c0 1.654 1.346 3 3 3zm-1-15c0-.551.449-1 1-1h18c.551 0 1 .449 1 1v12c0 .551-.449 1-1 1h-12.618l-1.934 3.869c-.098.196-.448.114-.448-.105v-3.764h-3c-.551 0-1-.449-1-1z"/><path d="m37 5h16v2h-16z"/><path d="m47 13h2v2h-2z"/><path d="m51 13h2v2h-2z"/><path d="m37 9h16v2h-16z"/><path d="m60 21h-16c-1.654 0-3 1.346-3 3v16c0 .352.072.686.184 1h-.369c-.414-1.161-1.514-2-2.816-2h-2.868c-1.048 0-2.034.558-2.572 1.457l-2.354 3.923-5.397 5.397c-.47-2.878-1.832-5.487-3.809-7.514v-5.263h1c3.86 0 7-3.14 7-7v-4.382l2.151-1.076-2.594-11.241c1.494-1.284 2.444-3.182 2.444-5.301v-3c0-1.103-.897-2-2-2h-11.439c-9.132 0-16.561 7.429-16.561 16.561 0 3.101 1.111 6.105 3.13 8.46l1.667 1.944c.776.906 1.203 2.062 1.203 3.255v4.044c-3.445.891-6 4.017-6 7.736 0 2.953 1.613 5.532 4 6.918v11.082h17c2.773 0 5.178-1.858 5.902-4.527l7.578-9.473h5.52c3.309 0 6-2.691 6-6h.586l3.293 3.293c.456.456 1.062.707 1.707.707 1.331 0 2.414-1.083 2.414-2.414v-1.586h5c1.654 0 3-1.346 3-3v-16c0-1.654-1.346-3-3-3zm-28.906 25.32 2.481 1.861-6.731 8.414-3.347-2.678zm-20.16 6.434c2.044-.51 3.775-1.804 4.859-3.548l4.711 4.711-3.557 2.845zm10.066 3.327v4.785c-1.291-.323-2.363-1.245-2.848-2.507zm1-3.495-5.329-5.329c.211-.717.329-1.473.329-2.257 0-1.406-.367-2.726-1.006-3.875 4.038 1.853 6.834 5.889 6.988 10.479zm-8.148-19.483 1.148.765v4.76c-.576-.171-1.166-.312-1.772-.408-.075-.047-.151-.094-.228-.139v-4.695zm3.148 6.292v-4.193l2 1.333v4.022c-.63-.441-1.299-.828-2-1.162zm10-9.395h-3c-.551 0-1-.449-1-1s.449-1 1-1h3zm-21.352-3.28c-1.708-1.993-2.648-4.535-2.648-7.159 0-8.029 6.532-14.561 14.561-14.561h11.439v3c0 2.757-2.243 5-5 5h-10c-1.654 0-3-1.346-3-3v-1h-2v1c0 2.757 2.243 5 5 5h10c.982 0 1.916-.205 2.765-.571l1.055 4.571h-4.82v2h5.281l.567 2.458-1.848.924v1.618h-3c-1.654 0-3 1.346-3 3s1.346 3 3 3h2.576c-.774 1.763-2.531 3-4.576 3h-1.697l-5.303-3.535v-4.545c-.328.047-.66.08-1 .08s-.672-.033-1-.08v4.359l-4.053 1.351c-.124-1.456-.675-2.849-1.632-3.966zm3.352 8.001 2-.667v3.209c-.641-.166-1.308-.263-2-.263zm-6 10.279c0-3.309 2.691-6 6-6s6 2.691 6 6-2.691 6-6 6-6-2.691-6-6zm4 7.737c.156.041.312.082.472.113l8.682 5.788c.27.896.718 1.701 1.32 2.362h-10.474zm16 8.129v-4.785l2.848 2.278c-.486 1.261-1.558 2.184-2.848 2.507zm18-13.866h-5.667l-3.03-2.273 1.972-3.242c.18-.299.508-.485.857-.485h2.868c.551 0 1 .449 1 1s-.449 1-1 1h-1v2h1c1.302 0 2.402-.839 2.816-2h3.184 1c0 2.206-1.794 4-4 4zm12-6v3.586c0 .338-.469.531-.707.293l-3.879-3.879h-1.414v-1c0-2.757 2.243-5 5-5s5 2.243 5 5v1zm-4-11c0-1.654 1.346-3 3-3s3 1.346 3 3-1.346 3-3 3-3-1.346-3-3zm12 10c0 .551-.449 1-1 1h-1v-1c0-2.698-1.537-5.04-3.779-6.208 1.079-.918 1.779-2.268 1.779-3.792 0-2.757-2.243-5-5-5s-5 2.243-5 5c0 1.524.7 2.874 1.779 3.792-2.242 1.168-3.779 3.51-3.779 6.208v1h-1c-.551 0-1-.449-1-1v-16c0-.551.449-1 1-1h16c.551 0 1 .449 1 1z"/><path d="m41 53h2v2h-2z"/><path d="m45 53h2v2h-2z"/><path d="m49 53h2v2h-2z"/></g></g></svg>