<svg id="_x33_0" enable-background="new 0 0 64 64" height="512" viewBox="0 0 64 64" width="512" xmlns="http://www.w3.org/2000/svg"><g><g><g><path d="m32 25h-18c-1.654 0-3-1.346-3-3v-8c0-1.654 1.346-3 3-3h18c1.654 0 3 1.346 3 3v8c0 1.654-1.346 3-3 3z" fill="#f0bc5e"/></g></g><g><g><path d="m33 62h-20v-8c0-1.654 1.346-3 3-3h14c1.654 0 3 1.346 3 3z" fill="#f0bc5e"/></g></g><g><path d="m18 21c1.654 0 3-1.346 3-3s-1.346-3-3-3-3 1.346-3 3 1.346 3 3 3zm0-4c.552 0 1 .448 1 1s-.448 1-1 1-1-.448-1-1 .448-1 1-1z"/><path d="m28 21c1.654 0 3-1.346 3-3s-1.346-3-3-3-3 1.346-3 3 1.346 3 3 3zm0-4c.552 0 1 .448 1 1s-.448 1-1 1-1-.448-1-1 .448-1 1-1z"/><path d="m60.935 41.972c.039-.322.065-.646.065-.972 0-4.411-3.589-8-8-8-1.11 0-2.17.235-3.138.649-1.572-2.85-4.545-4.649-7.862-4.649-1.336 0-2.601.301-3.742.825.153-.298.294-.603.43-.912.993-.235 1.789-.963 2.128-1.913h1.184c1.654 0 3-1.346 3-3v-8c0-1.654-1.346-3-3-3h-2.05c-2.479-6.979-9.131-12-16.95-12s-14.471 5.021-16.95 12h-2.05c-1.654 0-3 1.346-3 3v8c0 1.654 1.346 3 3 3h1.184c.339.949 1.134 1.678 2.128 1.913 1.899 4.312 5.419 7.534 9.688 9.073v3.27l-1.227.368c-2.612.783-4.797 2.352-6.333 4.404-4.702.292-8.44 4.198-8.44 8.972v8h44v-8c0-1.438-.347-2.793-.95-4h13.95c2.757 0 5-2.243 5-5 0-1.657-.819-3.117-2.065-4.028zm-27.83-2.655c-1.219.407-2.278 1.199-3.02 2.264l-1.085-.325v-3.27c1.552-.56 3.004-1.341 4.317-2.318-.2.746-.317 1.525-.317 2.332 0 .443.041.882.105 1.317zm8.895-24.317c.552 0 1 .448 1 1v8c0 .552-.448 1-1 1h-1v-6c0-1.376-.17-2.711-.464-4zm-39 9v-8c0-.552.448-1 1-1h1.464c-.294 1.289-.464 2.624-.464 4v6h-1c-.552 0-1-.448-1-1zm4-5c0-8.822 7.178-16 16-16s16 7.178 16 16v7c0 .552-.448 1-1 1h-30c-.552 0-1-.448-1-1zm2.568 10h26.864c-2.553 4.902-7.58 8-13.202 8h-.459c-5.623 0-10.649-3.098-13.203-8zm13.203 10h.459c1.29 0 2.553-.145 3.771-.42v4.42c0 2.206-1.794 4-4 4s-4-1.794-4-4v-4.42c1.217.275 2.479.42 3.77.42zm-6.423 4.54.669-.201c.178 3.151 2.789 5.661 5.983 5.661s5.805-2.51 5.983-5.661l.669.201c4.395 1.317 7.348 5.286 7.348 9.876 0 .958-.134 1.911-.397 2.833l-1.358 4.751h-24.49l-1.357-4.752c-.264-.921-.398-1.874-.398-2.832 0-4.59 2.953-8.559 7.348-9.876zm-13.348 11.46c0-3.208 2.173-5.913 5.123-6.737-.721 1.576-1.123 3.321-1.123 5.153 0 1.145.159 2.282.474 3.382l1.2 4.202h-5.674zm40 6h-5.674l1.2-4.201c.315-1.101.474-2.238.474-3.383 0-1.832-.402-3.577-1.123-5.153 2.95.824 5.123 3.529 5.123 6.737zm15-12h-15.311c-1.532-1.706-3.699-2.821-6.13-2.972-1.166-1.559-2.708-2.836-4.525-3.704.747-.825 1.814-1.324 2.966-1.324 2.206 0 4 1.794 4 4h2c0-3.283-2.65-5.954-5.923-5.996-.048-.332-.077-.667-.077-1.004 0-3.859 3.141-7 7-7 2.595 0 4.918 1.417 6.135 3.656-1.513 1.161-2.603 2.852-2.983 4.818-1.273.67-2.152 1.99-2.152 3.526h2c0-1.103.897-2 2-2s2 .897 2 2h2c0-2.089-1.614-3.789-3.658-3.965.821-2.367 3.06-4.035 5.658-4.035 3.309 0 6 2.691 6 6 0 .034-.005.067-.005.101-.322-.066-.654-.101-.995-.101-2.757 0-5 2.243-5 5v1h2v-1c0-1.654 1.346-3 3-3s3 1.346 3 3-1.346 3-3 3z"/></g></g></svg>