<svg id="_x33_0" enable-background="new 0 0 64 64" height="512" viewBox="0 0 64 64" width="512" xmlns="http://www.w3.org/2000/svg"><g><g><circle cx="42" cy="18" fill="#f0bc5e" r="9"/></g><g><g><path d="m19 29h-10v-10h10z" fill="#f0bc5e"/></g></g><g><g><path d="m19 16h-10v-5h10z" fill="#f0bc5e"/></g></g><g><path d="m63 16.5c0-2.151-3.228-3.732-9.579-4.704-.814-1.492-1.913-2.806-3.222-3.873.695-2.128.988-3.948.665-5.161-.237-.892-.753-1.318-1.144-1.52-1.572-.811-4.048.469-7.343 3.776-.126-.002-.249-.018-.377-.018-.751 0-1.482.078-2.199.201-3.38-3.439-5.913-4.785-7.522-3.957-.391.201-.906.628-1.144 1.52-.169.633-.17 1.431-.035 2.351-2.55.304-4.974 1.209-7.101 2.658-2.639-1.794-5.806-2.773-8.999-2.773h-10v2h-2c-1.103 0-2 .897-2 2v34c0 1.103.897 2 2 2h16.101c.465 2.279 2.484 4 4.899 4s4.435-1.721 4.899-4h4.101c0 2.206 1.794 4 4 4h13c1.654 0 3 1.346 3 3s-1.346 3-3 3h-27.08c-.488-3.386-3.401-6-6.92-6h-10c-2.757 0-5 2.243-5 5v4c0 2.757 2.243 5 5 5h10c3.519 0 6.432-2.614 6.92-6h27.08c2.757 0 5-2.243 5-5s-2.243-5-5-5h-13c-1.103 0-2-.897-2-2s.897-2 2-2h2c2.206 0 4-1.794 4-4v-8.051c.978-.075 1.928-.248 2.834-.528 2.489 2.616 4.992 4.573 6.86 4.573.368 0 .713-.076 1.027-.238 2.383-1.227.977-5.921-.734-9.839.755-1.194 1.319-2.517 1.653-3.93 4.613-.818 8.36-2.215 8.36-4.487zm-43.026 36.5h-1.974c-1.302 0-2.402.839-2.816 2h-2.184v-4h3c1.627 0 3.061.793 3.974 2zm1.026 3c0 .342-.035.677-.101 1h-2.899c-.552 0-1-.448-1-1s.448-1 1-1h2.899c.066.323.101.658.101 1zm-18 2v-4c0-1.654 1.346-3 3-3h5v10h-5c-1.654 0-3-1.346-3-3zm13 3h-3v-4h2.184c.414 1.161 1.514 2 2.816 2h1.974c-.913 1.207-2.347 2-3.974 2zm45-44.5c0 .588-2.039 1.619-6.046 2.41.021-.302.046-.603.046-.91 0-1.403-.23-2.752-.643-4.019 5.014.911 6.643 2.135 6.643 2.519zm-8 1.5c0 .426-.03.844-.077 1.257-2.397.363-5.307.635-8.749.716 2.068-3.263 4.005-6.86 5.285-10.035 2.171 2.011 3.541 4.876 3.541 8.062zm-12 19.749c-5.308-1.186-10.871-.917-16 .837v-18.668c1.27.435 2.763.787 4.36 1.07.154.65.351 1.283.598 1.892-1.95 3.982-4.526 10.411-1.679 11.878.314.162.658.238 1.027.238 2.001 0 4.731-2.239 7.392-5.137 1.332.598 2.779.975 4.302 1.092zm-11.357-23.768c-.413 1.267-.643 2.616-.643 4.019 0 .307.025.608.046.91-4.007-.791-6.046-1.822-6.046-2.41 0-.384 1.629-1.608 6.643-2.519zm8.137 5.919c-2.568-.123-4.796-.354-6.702-.643-.048-.413-.078-.831-.078-1.257 0-2.455.819-4.718 2.184-6.55 1.232 2.753 2.867 5.716 4.596 8.45zm-8.585 13.079c-.378-.195-.513-2.515 1.928-7.881.985 1.504 2.27 2.79 3.774 3.776-2.932 3.096-5.079 4.427-5.702 4.105zm2.32-11.657c2.558.345 5.236.538 7.605.624.213.313.432.631.662.959-1.238 1.715-2.418 3.193-3.521 4.462-2.229-1.371-3.939-3.505-4.746-6.045zm17.29-18.301c.033.018.087.104.127.258.179.67.025 1.871-.452 3.469-1.096-.634-2.29-1.111-3.556-1.403 2.48-2.243 3.674-2.427 3.881-2.324zm-.99 5.659c-1.109 2.889-2.996 6.626-5.705 10.813-.113.174-.223.333-.335.504-.534-.001-1.052-.009-1.563-.019-.108-.164-.214-.317-.322-.485-2.359-3.648-4.094-6.953-5.237-9.656 1.95-1.757 4.521-2.837 7.347-2.837 2.136 0 4.125.622 5.815 1.68zm-14.747-5.402c.04-.153.094-.24.127-.258.223-.113 1.563.11 4.37 2.775-1.344.49-2.587 1.187-3.683 2.067-.76-2.163-1.032-3.766-.814-4.584zm-.758 6.086c-.662.743-1.251 1.552-1.731 2.432-2.253.345-4.118.765-5.579 1.262v-3.536c1.947-1.357 4.182-2.192 6.539-2.439.205.721.466 1.486.771 2.281zm-25.31-2.364h8c2.847 0 5.664.899 8 2.524v4.394c-1.328.74-2 1.601-2 2.581 0 1.017.757 1.857 2 2.55v19.534c-5.128-1.755-10.691-2.04-16-.855zm32 34h-2c-1.474 0-2.75.81-3.444 2h-6.556v1c0 1.654-1.346 3-3 3s-3-1.346-3-3v-1h-18v-34h2v31.28l1.735-.434c5.597-1.396 11.593-1.035 16.817 1.048l.401.201.417-.167c5.217-2.088 11.001-2.45 16.477-1.168-.299.727-1.014 1.24-1.847 1.24zm3-12c-1.377 0-2.691-.266-3.907-.73 1.018-1.201 2-2.454 2.907-3.679 1.028 1.389 2.152 2.817 3.315 4.159-.747.161-1.521.25-2.315.25zm10.805 3.979c-.571.294-2.425-.804-4.987-3.371 1.427-.718 2.701-1.69 3.768-2.859 1.707 4.237 1.523 6.074 1.219 6.23zm-6.431-4.891c-1.276-1.414-2.678-3.135-4.156-5.184.218-.311.425-.612.628-.91 2.786-.032 6.313-.224 9.638-.673-.964 3.039-3.215 5.507-6.11 6.767z"/><path d="m9 31h2v2h-2z"/><path d="m13 31h2v2h-2z"/><path d="m17 31h2v2h-2z"/><path d="m9 15h10v2h-10z"/><path d="m9 11h2v2h-2z"/><path d="m13 11h6v2h-6z"/></g></g></svg>