<svg id="_x33_0" enable-background="new 0 0 64 64" height="512" viewBox="0 0 64 64" width="512" xmlns="http://www.w3.org/2000/svg"><g><g><path d="m20.98 15h-5.96c-4.422 0-8.02 3.598-8.02 8.02 0 .759.121 1.508.361 2.227l.857 2.573h.024c.459-1.07 1.521-1.82 2.758-1.82h1c0-2.209 1.791-4 4-4 0 1.105.895 2 2 2h3c1.321 0 2.43.86 2.83 2.046l-.001-.046h1.171c1.237 0 2.299.75 2.757 1.819h.024l.857-2.573c.241-.719.362-1.468.362-2.226 0-4.422-3.598-8.02-8.02-8.02z" fill="#f0bc5e"/></g><g><g><path d="m21 49h-6c-1.103 0-2-.897-2-2v-2c0-1.103.897-2 2-2h6c1.103 0 2 .897 2 2v2c0 1.103-.897 2-2 2z" fill="#f0bc5e"/></g></g><g><path d="m51 35v18h6v-5h2v-13z" fill="#f0bc5e"/></g><g><path d="m11 33h.101c.316 1.548 1.358 2.824 2.745 3.493l-.636 2.547c-4.594.402-8.21 4.264-8.21 8.96v9h26v-8h4v4h14v-8h-14v2h-4.059c-.471-4.234-3.888-7.587-8.151-7.96l-.637-2.547c1.387-.668 2.43-1.944 2.745-3.493h.102c2.206 0 4-1.794 4-4s-1.794-4-4-4h-.556c-.694-1.19-1.97-2-3.444-2h-3c-.552 0-1-.448-1-1v-7h-2v6.101c-1.955.399-3.491 1.945-3.89 3.899h-.11c-2.206 0-4 1.794-4 4s1.794 4 4 4zm30 18v-4h2v4zm6 0h-2v-4h2zm-10-4h2v4h-2zm-10-18c0 1.103-.897 2-2 2v-4c1.103 0 2 .897 2 2zm-5 12c1.377 0 2.659.405 3.743 1.095l-2.564 12.905h-10.358l-2.563-12.905c1.083-.69 2.365-1.095 3.742-1.095zm-13.473 2.648 1.063 5.352h-2.59v-1c0-1.645.574-3.156 1.527-4.352zm-1.527 7.352h2.988l.795 4h-3.783zm18.218 4 .795-4h2.987v4zm3.782-7v1h-2.59l1.063-5.352c.953 1.196 1.527 2.707 1.527 4.352zm-8.28-9h-5.44l.505-2.022c.073.004.142.022.215.022h4c.073 0 .142-.018.214-.022zm-7.72-13c0-1.381.938-2.548 2.211-2.895.441 1.109 1.525 1.895 2.789 1.895h3c1.103 0 2 .897 2 2v5c0 1.654-1.346 3-3 3h-4c-1.654 0-3-1.346-3-3zm-2 1v4c-1.103 0-2-.897-2-2s.897-2 2-2z"/><path d="m61 9h-48v-6c0-1.103-.897-2-2-2h-5c-2.757 0-5 2.243-5 5v55c0 1.103.897 2 2 2h58c1.103 0 2-.897 2-2v-50c0-1.103-.897-2-2-2zm-55-6h5v6h-5c-1.654 0-3-1.346-3-3s1.346-3 3-3zm55 58h-58v-51.002c.836.629 1.875 1.002 3 1.002h55z"/><path d="m51 51h2v2h-2z"/><path d="m55 51h2v2h-2z"/><path d="m51 47h8v2h-8z"/><path d="m51 43h8v2h-8z"/><path d="m51 39h8v2h-8z"/><path d="m32.721 25h8.279v4h18v-8h-18v2h-9.721l-1.228 3.684 1.896.633zm16.279 2h-2v-4h2zm2-4h2v4h-2zm6 4h-2v-4h2zm-14-4h2v4h-2z"/><path d="m35 55h2v2h-2z"/><path d="m39 55h2v2h-2z"/><path d="m43 55h2v2h-2z"/><path d="m37 13h-6v6h6zm-2 4h-2v-2h2z"/><path d="m45 13h-6v6h6zm-2 4h-2v-2h2z"/><path d="m53 13h-6v6h6zm-2 4h-2v-2h2z"/><path d="m31 35h-2.382l-.724-1.447-1.789.895 1.277 2.552h3.618v4h18v-8h-18zm8 4h-2v-4h2zm2-4h2v4h-2zm6 4h-2v-4h2zm-14-4h2v4h-2z"/><path d="m57 35h2v2h-2z"/><path d="m51 35h4v2h-4z"/></g></g></svg>