<svg id="_x33_0" enable-background="new 0 0 64 64" height="512" viewBox="0 0 64 64" width="512" xmlns="http://www.w3.org/2000/svg"><g><g><path d="m41 32c0-2.548-1.373-4.775-3.413-6h-7.174c-2.04 1.225-3.413 3.452-3.413 6 0 3.859 3.14 7 7 7s7-3.141 7-7zm-9 0c0-1.103.897-2 2-2s2 .897 2 2-.897 2-2 2-2-.897-2-2z" fill="#f0bc5e"/></g><g><g><path d="m37 62h-10v-7h10z" fill="#f0bc5e"/></g></g><g><path d="m37 32c0-1.654-1.346-3-3-3s-3 1.346-3 3 1.346 3 3 3 3-1.346 3-3zm-4 0c0-.551.449-1 1-1s1 .449 1 1-.449 1-1 1-1-.449-1-1z"/><path d="m40.257 51.778c-1.131-.425-2.137-1.072-2.988-1.924l-.269-.268v-1.086c0-2.504 1.196-4.896 3.2-6.4 3.005-2.254 4.8-5.843 4.8-9.6v-5.5c0-1.103-.897-2-2-2h-19.219c-.919 0-1.717.623-1.94 1.515l-3.005 12.021 2.164 1.082v3.524c0 2.128 1.73 3.858 3.857 3.858.13 0 .259-.007.384-.02l1.759-.175v2.781l-.269.269c-.851.852-1.856 1.499-2.987 1.924-4.034 1.511-6.744 5.422-6.744 9.731v1.49h30v-1.49c0-4.309-2.71-8.22-6.743-9.732zm-5.257-2.778h-2v-2.804c.721-.09 1.401-.322 2-.686zm-9.961-4.01c-1.081.116-2.039-.762-2.039-1.847v-.143h2c2.206 0 4-1.794 4-4h-2c0 1.103-.897 2-2 2h-2v-2.618l-1.835-.918 1.116-4.464h2.719v-2h-2.219l1-4h19.219v5.5c0 3.131-1.495 6.121-4 8-.766.575-1.437 1.255-2 2.01v-4.195c-.622.297-1.294.503-2 .605v3.79c-.492.848-1.339 1.418-2.325 1.517zm5.961 1.415v2.595h-2v-2.395zm-2.854 4.864.268-.269h7.172l.268.269c.912.912 1.972 1.621 3.146 2.141v7.59h-14v-7.591c1.173-.519 2.234-1.229 3.146-2.14zm-5.146 3.114v6.617h-3.984c.168-2.732 1.69-5.195 3.984-6.617zm18 6.617v-6.617c2.294 1.421 3.816 3.885 3.984 6.617z"/><path d="m29 1h-6v6h6zm-2 4h-2v-2h2z"/><path d="m19 1h2v6h-2z"/><path d="m41 1h-6v6h6zm-2 4h-2v-2h2z"/><path d="m31 1h2v6h-2z"/><path d="m23 9h-6v6h6zm-2 4h-2v-2h2z"/><path d="m25 9h2v6h-2z"/><path d="m29 15h6v-6h-6zm2-4h2v2h-2z"/><path d="m41 15h6v-6h-6zm2-4h2v2h-2z"/><path d="m37 9h2v6h-2z"/><path d="m43 1h2v6h-2z"/><path d="m23 23h6v-6h-6zm2-4h2v2h-2z"/><path d="m19 17h2v6h-2z"/><path d="m35 23h6v-6h-6zm2-4h2v2h-2z"/><path d="m31 17h2v6h-2z"/><path d="m43 17h2v6h-2z"/><path d="m11 9.586-8.293-8.293-1.414 1.414 8.293 8.293h-2.586v2h6v-6h-2z"/><path d="m57 11h-2.586l8.293-8.293-1.414-1.414-8.293 8.293v-2.586h-2v6h6z"/><path d="m7 43h2.586l-8.293 8.293 1.414 1.414 8.293-8.293v2.586h2v-6h-6z"/><path d="m57 43v-2h-6v6h2v-2.586l8.293 8.293 1.414-1.414-8.293-8.293z"/></g></g></svg>