<svg id="_x33_0" enable-background="new 0 0 64 64" height="512" viewBox="0 0 64 64" width="512" xmlns="http://www.w3.org/2000/svg"><g><g><g><path d="m4 57c-1.654 0-3-1.346-3-3s1.346-3 3-3 3 1.346 3 3-1.346 3-3 3z" fill="#f0bc5e"/></g></g><g><g><path d="m40 53c-1.654 0-3-1.346-3-3s1.346-3 3-3 3 1.346 3 3-1.346 3-3 3z" fill="#f0bc5e"/></g></g><g><g><path d="m42 63c-1.654 0-3-1.346-3-3s1.346-3 3-3 3 1.346 3 3-1.346 3-3 3z" fill="#f0bc5e"/></g></g><g><path d="m35.615 1h-7.23c-5.175 0-9.385 4.21-9.385 9.385 0 1.2.226 2.373.671 3.485l.518 1.293c.317-.685 1.006-1.163 1.811-1.163h2.154l-.121-.789c-.022-.141-.033-.282-.033-.424 0-1.539 1.248-2.787 2.787-2.787h10.426c1.539 0 2.787 1.248 2.787 2.787 0 .142-.011.284-.032.424l-.122.789h2.154c.805 0 1.494.478 1.812 1.164l.518-1.293c.444-1.113.67-2.286.67-3.486 0-5.175-4.21-9.385-9.385-9.385z" fill="#f0bc5e"/></g><g><circle cx="28" cy="14" r="1"/><path d="m21 55h-2v-6h-2v6h-2v-2h-2v4h10v-6h-2z"/><path d="m54 45c-3.114 0-5.862 1.59-7.478 4h-3.706c.112.314.184.648.184 1s-.072.686-.184 1h2.709c-.334.94-.525 1.947-.525 3 0 4.962 4.037 9 9 9s9-4.038 9-9-4.037-9-9-9zm0 16c-3.859 0-7-3.14-7-7s3.141-7 7-7 7 3.14 7 7-3.141 7-7 7z"/><path d="m55.879 49c-.677 0-1.341.226-1.879.629-.538-.403-1.202-.629-1.879-.629-1.721 0-3.121 1.4-3.121 3.121v.135c0 .706.243 1.398.684 1.95l4.316 5.395 4.316-5.395c.44-.551.684-1.244.684-1.95v-.135c0-1.721-1.4-3.121-3.121-3.121zm1.121 3.256c0 .253-.087.502-.246.701l-2.754 3.442-2.754-3.443c-.159-.198-.246-.447-.246-.7v-.135c0-.618.503-1.121 1.121-1.121.295 0 .584.12.793.328l1.086 1.086 1.086-1.086c.209-.208.498-.328.793-.328.618 0 1.121.503 1.121 1.121z"/><path d="m31 41h2v8c0 1.103.897 2 2 2h2.184c-.112-.314-.184-.648-.184-1s.072-.686.184-1h-2.184v-8h2v-2h-10v2h2v12h-2.059c-.499-4.493-4.316-8-8.941-8s-8.442 3.507-8.941 8h-2.243c.112.314.184.648.184 1s-.072.686-.184 1h2.243c.499 4.493 4.316 8 8.941 8s8.442-3.507 8.941-8h2.059c1.103 0 2-.897 2-2zm-13 20c-3.859 0-7-3.14-7-7s3.141-7 7-7 7 3.14 7 7-3.141 7-7 7z"/><path d="m39.184 59h-6.184v-4h-2v4c0 1.103.897 2 2 2h6.184c-.112-.314-.184-.648-.184-1s.072-.686.184-1z"/><path d="m39 35h-14c-1.103 0-2 .897-2 2v6c0 1.103.897 2 2 2h2v-2h-2v-6h14v6h-2v2h2c1.103 0 2-.897 2-2v-6c0-1.103-.897-2-2-2z"/><circle cx="36" cy="14" r="1"/><path d="m60 1h-2c-1.654 0-3 1.346-3 3v1.184c-1.161.414-2 1.514-2 2.816v4.171c0 .801.313 1.555.879 2.122l1.121 1.121v5.936c-1.915.68-3.384 2.303-3.844 4.31l-8.349 3.34h-5.027l-.54-2.161c1.041-.347 1.833-1.239 2.009-2.383l.261-1.694 2.983-.497c1.453-.243 2.507-1.487 2.507-2.959v-3.306c0-1.654-1.346-3-3-3h-1.016c.004-.071.016-.142.016-.213 0-2.088-1.699-3.787-3.787-3.787h-4.213v-8h-2v8h-4.213c-2.088 0-3.787 1.699-3.787 3.787 0 .071.012.142.016.213h-1.016c-1.654 0-3 1.346-3 3v3.306c0 1.473 1.054 2.717 2.507 2.959l2.983.497.261 1.695c.176 1.143.968 2.035 2.009 2.382l-.54 2.161h-5.027l-8.349-3.34c-.46-2.008-1.929-3.63-3.844-4.31v-5.936l1.121-1.121c.567-.566.879-1.32.879-2.122v-4.171c0-1.302-.839-2.402-2-2.816v-1.184c0-1.654-1.346-3-3-3h-2c-1.654 0-3 1.346-3 3v23c0 3.309 2.691 6 6 6 .206 0 .41-.01.611-.031l9.389 7.512v2.519h2v-4c0-2.845.889-5.666 2.511-8h5.296l5.193 2.077 5.193-2.077h5.296c1.622 2.334 2.511 5.155 2.511 8v4h2v-2.519l9.389-7.512c.201.021.405.031.611.031 3.309 0 6-2.691 6-6v-23c0-1.654-1.346-3-3-3zm-57 21.54v-7.36l4 .667v5.153c-1.538 0-2.937.586-4 1.54zm1-19.54h2c.552 0 1 .449 1 1v1.184c-1.161.414-2 1.514-2 2.816v3h2v-3c0-.551.448-1 1-1s1 .449 1 1v4.171c0 .267-.104.519-.293.708l-1.05 1.05-4.657-.776v-9.153c0-.551.448-1 1-1zm-1 24c0-2.206 1.794-4 4-4s4 1.794 4 4-1.794 4-4 4-4-1.794-4-4zm14.043 10.954-7.136-5.709c1.606-.894 2.755-2.503 3.026-4.395l6.536 2.614c-1.413 2.248-2.249 4.841-2.426 7.49zm25.957-21.954v3.306c0 .491-.352.906-.835.986l-2.335.389.874-5.681h1.296c.552 0 1 .449 1 1zm-16.213-5h10.426c.985 0 1.787.802 1.787 1.787 0 .091-.007.182-.021.271l-.914 5.942h-5.065v-6h-2v6h-5.065l-.914-5.941c-.014-.09-.021-.181-.021-.272 0-.985.802-1.787 1.787-1.787zm-4.952 9.292c-.483-.081-.835-.496-.835-.986v-3.306c0-.551.448-1 1-1h1.296l.874 5.681zm4.407.708h11.515l-.485 3.152c-.076.491-.491.848-.988.848h-8.568c-.497 0-.912-.357-.988-.848zm2.538 6h2.22v3.523l-2.818-1.127zm4.22 3.523v-3.523h2.22l.599 2.396zm22-22.523c0-.551.448-1 1-1s1 .449 1 1v3h2v-3c0-1.302-.839-2.402-2-2.816v-1.184c0-.551.448-1 1-1h2c.552 0 1 .449 1 1v9.153l-4.657.776-1.05-1.05c-.189-.189-.293-.441-.293-.708zm2 7.847 4-.667v7.36c-1.063-.954-2.462-1.54-4-1.54zm-10.043 22.107c-.177-2.649-1.013-5.242-2.425-7.489l6.536-2.614c.27 1.891 1.42 3.501 3.026 4.394zm10.043-6.954c-2.206 0-4-1.794-4-4s1.794-4 4-4 4 1.794 4 4-1.794 4-4 4z"/></g></g></svg>