<svg id="_x33_0" enable-background="new 0 0 64 64" height="512" viewBox="0 0 64 64" width="512" xmlns="http://www.w3.org/2000/svg"><g><g><path d="m37.206 31.765c-.626.166-1.213.485-1.692.964l-.413.413-4.243-4.243.413-.413c1.082-1.082 1.395-2.706.806-4.118-.006-.015-.013-.03-.019-.046-.581-1.406-1.952-2.322-3.474-2.322h-.584v-6h.584c1.522 0 2.892-.916 3.474-2.323.006-.015.013-.03.019-.046.589-1.412.276-3.036-.806-4.118l-.413-.413.294-.294c-3.318-2.46-7.325-3.806-11.506-3.806h-8.364c-4.567 0-8.282 3.715-8.282 8.281 0 1.28.303 2.561.874 3.704l1.131 2.261c.066 1.613.782 3.14 1.954 4.188l.26.259c.276-.599.446-.967.446-.967.885.792 2.054 1.274 3.335 1.274h5.757c1.861 0 3.67-.507 5.243-1.443v5.443c3.314 0 6 2.686 6 6v10.412l.068.068 6.446-7.735c1.06-1.272 1.952-2.675 2.652-4.169l.139-.294z" fill="#f0bc5e"/></g><g><g><path d="m50 63c-1.654 0-3-1.346-3-3s1.346-3 3-3 3 1.346 3 3-1.346 3-3 3z" fill="#f0bc5e"/></g></g><g><g><path d="m40 59c-1.654 0-3-1.346-3-3s1.346-3 3-3 3 1.346 3 3-1.346 3-3 3z" fill="#f0bc5e"/></g></g><g><g><path d="m34 49c-1.654 0-3-1.346-3-3s1.346-3 3-3 3 1.346 3 3-1.346 3-3 3z" fill="#f0bc5e"/></g></g><g><g><path d="m60 57c-1.654 0-3-1.346-3-3s1.346-3 3-3 3 1.346 3 3-1.346 3-3 3z" fill="#f0bc5e"/></g></g><g><path d="m19 34c0 1.654 1.346 3 3 3s3-1.346 3-3-1.346-3-3-3-3 1.346-3 3zm4 0c0 .551-.448 1-1 1s-1-.449-1-1 .448-1 1-1 1 .449 1 1z"/><path d="m10 35c1.654 0 3-1.346 3-3s-1.346-3-3-3-3 1.346-3 3 1.346 3 3 3zm0-4c.552 0 1 .449 1 1s-.448 1-1 1-1-.449-1-1 .448-1 1-1z"/><path d="m29 56.055v-22.055c0-3.519-2.614-6.432-6-6.92v-3.969c.607-.407 1.179-.876 1.707-1.404l-1.414-1.414c-1.746 1.746-4.066 2.707-6.535 2.707h-5.758c-2.206 0-4-1.794-4-4s1.794-4 4-4c1.103 0 2 .897 2 2s-.897 2-2 2v2c2.206 0 4-1.794 4-4s-1.794-4-4-4c-3.309 0-6 2.691-6 6 0 1.501.558 2.871 1.472 3.924l-5.154 11.166c-.211.457-.318.945-.318 1.45 0 1.908 1.552 3.46 3.46 3.46h.54v5c0 3.86 3.141 7 7 7h3v3.281c-3.7 1.29-6.84 3.841-8.857 7.205l-.909 1.514h26.766l1.167-.082-.194-1.165c-.414-2.482-1.917-4.53-3.973-5.698zm-4-1.055v-3.382l2 1v2.635c-.641-.162-1.31-.253-2-.253zm2-4.618-4-2v6.867c-.708.18-1.378.457-2 .813v-5.86l4.149-9.957c.69-.349 1.316-.806 1.851-1.354zm0-16.382c0 2.757-2.243 5-5 5s-5-2.243-5-5 2.243-5 5-5 5 2.243 5 5zm-22.54 3c-.805 0-1.46-.655-1.46-1.46 0-.213.045-.418.135-.612l4.937-10.697c.867.488 1.864.769 2.928.769h5.758c1.479 0 2.913-.286 4.242-.828v2.908c-3.386.488-6 3.401-6 6.92 0 1.919.777 3.658 2.032 4.924l-1.442 3.461c-.156.373-.519.615-.923.615h-7.667v-6zm2.641 8h7.566c1.215 0 2.302-.725 2.769-1.846l1.247-2.992c.987.534 2.117.838 3.317.838.23 0 .457-.013.681-.034l-3.348 8.034h-7.333c-2.414 0-4.434-1.721-4.899-4zm11.899 6v5.12l-2-1.6v-3.52zm-10.101 10c1.767-2.253 4.165-3.955 6.902-4.878l2.706 2.165c-.586.797-1.039 1.709-1.311 2.713zm10.384 0c.857-2.372 3.111-4 5.717-4 2.586 0 4.825 1.604 5.706 4z"/><path d="m45 13c-3.309 0-6 2.691-6 6s2.691 6 6 6 6-2.691 6-6-2.691-6-6-6zm0 10c-2.206 0-4-1.794-4-4s1.794-4 4-4 4 1.794 4 4-1.794 4-4 4z"/><path d="m45 9c-5.514 0-10 4.486-10 10s4.486 10 10 10 10-4.486 10-10-4.486-10-10-10zm0 18c-4.411 0-8-3.589-8-8s3.589-8 8-8 8 3.589 8 8-3.589 8-8 8z"/><path d="m61.416 15c-1.121 0-2.122-.669-2.57-1.753-.436-1.044-.204-2.232.589-3.025l1.123-1.12-5.658-5.658-1.12 1.12c-.794.793-1.979 1.028-3.074.57-1.037-.428-1.706-1.428-1.706-2.55v-1.584h-8v1.584c0 1.121-.669 2.122-1.753 2.57-1.045.436-2.231.204-3.026-.59l-1.12-1.12-5.658 5.658 1.122 1.119c.794.794 1.025 1.981.57 3.074-.429 1.036-1.43 1.705-2.551 1.705h-1.584v8h1.584c1.121 0 2.122.669 2.57 1.753.436 1.044.204 2.232-.589 3.025l-1.123 1.12 5.658 5.658 1.12-1.12c.793-.793 1.979-1.027 3.074-.57 1.037.428 1.706 1.428 1.706 2.55v1.584h8v-1.584c0-1.121.669-2.122 1.753-2.57 1.045-.436 2.231-.204 3.026.59l1.12 1.12 5.658-5.658-1.122-1.119c-.794-.794-1.025-1.981-.57-3.074.429-1.036 1.43-1.705 2.551-1.705h1.584v-8zm-.416 6.018c-1.762.152-3.298 1.269-4 2.966-.695 1.666-.4 3.546.74 4.903l-2.854 2.854c-1.359-1.141-3.242-1.435-4.945-.723-1.657.685-2.771 2.22-2.924 3.982h-4.035c-.152-1.763-1.27-3.299-2.966-4-1.664-.694-3.546-.4-4.903.741l-2.854-2.854c1.14-1.357 1.434-3.241.723-4.947-.686-1.657-2.221-2.77-3.982-2.922v-4.036c1.762-.152 3.298-1.269 4-2.966.695-1.666.4-3.546-.74-4.903l2.854-2.854c1.358 1.141 3.242 1.435 4.945.723 1.657-.684 2.771-2.22 2.923-3.982h4.035c.152 1.763 1.27 3.299 2.966 4 1.665.694 3.546.4 4.903-.741l2.854 2.854c-1.14 1.357-1.434 3.241-.723 4.947.686 1.657 2.221 2.77 3.982 2.922v4.036z"/><path d="m49 39h2v16h-2z"/><path d="m45 49.586-1.707 1.707 1.414 1.414 2.293-2.293v-11.414h-2z"/><path d="m55 39h-2v9.414l2.293 2.293 1.414-1.414-1.707-1.707z"/><path d="m41 45h-2v2h4v-8h-2z"/></g></g></svg>