<svg id="_x33_0" enable-background="new 0 0 64 64" height="512" viewBox="0 0 64 64" width="512" xmlns="http://www.w3.org/2000/svg"><g><g><g><path d="m9 51c-4.411 0-8-3.589-8-8s3.589-8 8-8 8 3.589 8 8-3.589 8-8 8zm0-11c-1.654 0-3 1.346-3 3s1.346 3 3 3 3-1.346 3-3-1.346-3-3-3z" fill="#f0bc5e"/></g></g><g><g><path d="m16 21c-3.86 0-7-3.141-7-7s3.14-7 7-7 7 3.141 7 7-3.14 7-7 7zm0-9c-1.103 0-2 .897-2 2s.897 2 2 2 2-.897 2-2-.897-2-2-2z" fill="#f0bc5e"/></g></g><g><path d="m63 51v-2h-20v2h6v4h-2.184c-.414-1.161-1.514-2-2.816-2h-2.384l-.188-.376c-.501-1.002-1.509-1.624-2.629-1.624-.009 0-.017.002-.025.003l-2.313-1.799c-2.199-1.711-3.46-4.29-3.46-7.076 0-1.838.58-3.644 1.632-5.146.122.007.243.018.367.018 1.065 0 2.106-.288 3.017-.818l5.235 6.282c-.158.291-.252.616-.252.95 0 1.978 1.608 3.586 3.586 3.586.534 0 1.036-.208 1.414-.586l8.414-8.414c.373-.372.586-.888.586-1.414 0-1.978-1.608-3.586-3.586-3.586-.271 0-.533.054-.775.156l-14.211-15.098c-1.25-1.325-3.54-1.361-4.827-.072l-.601.6v-2.586c0-8.271-6.729-15-15-15-7.168 0-13 5.832-13 13 0 2.794.923 5.564 2.6 7.8l2.2 2.935c.773 1.03 1.2 2.309 1.2 3.599v1.946c-3.193 1.081-5.823 3.5-7.147 6.606.95-.801 2.089-1.38 3.339-1.671 1.184-1.416 2.749-2.503 4.523-3.085l5.013 5.013c2.755 2.753 4.272 6.417 4.272 10.313 0 .958-.095 1.921-.283 2.861l-.397 1.983-.613-.153-3.092-6.702c-.264.82-.661 1.58-1.159 2.261l2.345 5.08-3.692 3.692-4.155-5.54c-.314.037-.631.062-.954.062-.556 0-1.099-.058-1.624-.166l5.702 7.605.077.309c.214.856.628 1.613 1.168 2.253h-11.323v-12.727c-1.241-1.41-2-3.253-2-5.274v20h17.603c1.112 0 2.189-.326 3.114-.943l1.586-1.057h18.697c.341 0 .674-.035.996-.101v.101c0 1.103.897 2 2 2h16.004c1.103 0 2-.897 2-2v-4c0-1.103-.897-2-2-2h-4v-4zm-27.767-.219 1.444 1.123-1.095 1.096h-3.219l-.571-.477c-3.046-2.537-4.792-6.265-4.792-10.228 0-2.987 1.018-5.879 2.857-8.22.635 1.058 1.583 1.905 2.719 2.409-1.018 1.698-1.576 3.654-1.576 5.643 0 3.408 1.543 6.562 4.233 8.654zm9.38-9.808-1.442-1.73 6.413-6.413 1.538 1.634zm-2.727-3.273-2.806-3.367 6.141-6.14 2.992 3.179zm-4.091-4.909-4.641-5.569 5.762-5.728 4.934 5.242zm-2.795 2.209c-2.206 0-4-1.794-4-4 0-.847.276-1.653.76-2.326l4.941 5.93c-.53.25-1.107.396-1.701.396zm20 1.586-8.414 8.414c-.875 0-1.586-.712-1.586-1.586l8.414-8.414c.875 0 1.586.712 1.586 1.586zm-19.985-17.187c.522-.522 1.45-.509 1.957.029l.573.609-5.676 5.643-.553-.663c-.204-.245-.316-.554-.316-.872v-.166c0-.358.146-.71.399-.964zm-25.815 1.202c-1.218-1.625-1.962-3.583-2.15-5.601h2.03c-.047-.328-.08-.66-.08-1s.033-.672.08-1h-2.029c.103-1.135.376-2.222.798-3.232l1.839 1.226c.291-.608.666-1.167 1.111-1.663l-2.004-1.336c.762-1.165 1.739-2.174 2.875-2.976l1.023 2.814c.582-.313 1.213-.547 1.879-.686l-1.142-3.14c1.05-.482 2.183-.81 3.378-.939l-.657 3.94c.686.015 1.349.125 1.973.324l.715-4.289c2.097.135 4.056.766 5.767 1.781l-4.156 3.778c.516.426.97.925 1.346 1.48l4.494-4.085c2.875 2.386 4.71 5.984 4.71 10.003v4.586l-1.015 1.015c-.626.626-.985 1.493-.985 2.378v.166c0 .475.113.938.304 1.367l-2.013.671-.985 1.969c-.57 1.14-1.716 1.848-2.991 1.848-.663 0-1.304-.194-1.855-.562l-3.62-2.413c-.526-.351-.84-.938-.84-1.57v-4.535c-.328.047-.66.08-1 .08s-.672-.033-1-.08v4.299l-2.409.602c-.271-.819-.672-1.596-1.191-2.288zm3.8 9.985v-2.253c0-.182-.032-.361-.044-.542l2.452-.613c.298.601.746 1.126 1.323 1.511l.099.066-1.537 1.537 1.414 1.414 1.82-1.82 1.224.816c-1.266 1.069-2.152 2.506-2.535 4.1zm6 6.088v-.068c0-1.877.92-3.638 2.442-4.696l.251-.166c.521.165 1.066.256 1.622.256 2.037 0 3.869-1.132 4.78-2.954l.614-1.229 1.577-.525c-.826 1.048-1.286 2.347-1.286 3.708 0 .3.029.592.072.88l-.385.449c-2.377 2.774-3.687 6.313-3.687 9.966 0 4.036 1.581 7.856 4.372 10.705h-6.249l-.86-.215.415-2.075c.214-1.07.322-2.165.322-3.254 0-4.002-1.419-7.779-4-10.782zm1.607 23.719c-.595.397-1.288.607-2.004.607-1.647 0-3.075-1.108-3.493-2.696l4.197-4.197 2.693.673v4.684zm3.393-1.393v-4.028l12.41.028 1.726-1.725c.429-.428 1.233-.298 1.504.243l.74 1.482h3.62c.551 0 1 .448 1 1 0 1.654-1.346 3-3 3zm37 2-16.004.001.001-1.024c.955-.721 1.655-1.763 1.902-2.977h14.101zm-6-6h-4v-4h4z"/><circle cx="28" cy="16" r="1"/><path d="m13 43c0-2.206-1.794-4-4-4s-4 1.794-4 4 1.794 4 4 4 4-1.794 4-4zm-6 0c0-1.103.897-2 2-2s2 .897 2 2-.897 2-2 2-2-.897-2-2z"/><path d="m16 17c1.654 0 3-1.346 3-3s-1.346-3-3-3-3 1.346-3 3 1.346 3 3 3zm0-4c.551 0 1 .448 1 1s-.449 1-1 1-1-.448-1-1 .449-1 1-1z"/></g></g></svg>