<svg id="_x33_0" enable-background="new 0 0 64 64" height="512" viewBox="0 0 64 64" width="512" xmlns="http://www.w3.org/2000/svg"><g><g><g><path d="m50 39c-3.86 0-7-3.141-7-7s3.14-7 7-7 7 3.141 7 7-3.14 7-7 7zm0-9c-1.103 0-2 .897-2 2s.897 2 2 2 2-.897 2-2-.897-2-2-2z" fill="#f0bc5e"/></g></g><g><path d="m44.478 17h2.522v-6h-2.526c-.541 0-1.024-.322-1.232-.821-.211-.508-.097-1.086.293-1.475l1.78-1.773-4.248-4.247-1.739 1.748c-.408.41-1.017.532-1.55.309-.472-.198-.778-.657-.778-1.169v-2.572h-6v2.525c0 .541-.322 1.024-.821 1.232-.509.21-1.087.098-1.475-.292l-1.772-1.782-4.248 4.247 1.747 1.741c.41.407.531 1.017.309 1.55-.197.473-.656.779-1.167.779h-2.573v6h2.526c.541 0 1.024.322 1.232.821.211.508.097 1.086-.293 1.475l-1.78 1.773 4.248 4.247 1.739-1.748c.408-.41 1.017-.532 1.551-.309.472.198.777.656.777 1.169v2.572h6v-2.476c0-.571.34-1.082.868-1.302.477-.2 1.025-.092 1.392.276l1.808 1.817 4.248-4.247-1.782-1.775c-.389-.388-.503-.964-.292-1.47.208-.5.693-.823 1.236-.823zm-10.478 3c-3.31 0-6-2.69-6-6s2.69-6 6-6 6 2.69 6 6-2.69 6-6 6z" fill="#f0bc5e"/></g><g><path d="m19 44h6v4h-6z" fill="#f0bc5e"/></g><g><path d="m19 34h6v4h-6z" fill="#f0bc5e"/></g><g><path d="m53 42v3c0 1.103.897 2 2 2h2c1.103 0 2-.897 2-2v-3c0-2.543-1.045-4.899-2.887-6.599-.33.59-.741 1.127-1.221 1.596 1.347 1.312 2.108 3.089 2.108 5.003v3h-2v-3c0-1.524-.7-2.874-1.779-3.792-.965.503-2.059.792-3.221.792 1.654 0 3 1.346 3 3z"/><path d="m45.108 36.998c-.479-.469-.891-1.007-1.221-1.596-1.842 1.7-2.887 4.055-2.887 6.598v3c0 1.103.897 2 2 2h2c1.103 0 2-.897 2-2v-3c0-1.654 1.346-3 3-3-1.162 0-2.256-.289-3.221-.792-1.079.918-1.779 2.268-1.779 3.792v3h-2v-3c0-1.914.761-3.691 2.108-5.002z"/><path d="m58 49h-25v-22h-2v22h-2v-24h-1.753l-.315.316-.316-.316h-3.616v-2h1.615l-1.931-1.931.07-.069h-6.84l5.143-4h-.057v-2.489l-8.343 6.489h-9.657c-1.103 0-2 .897-2 2v38c0 1.103.897 2 2 2h55c2.757 0 5-2.243 5-5v-4c0-2.757-2.243-5-5-5zm-38.658 7.553c-.211-.106-.342-.318-.342-.553s.131-.447.342-.553l1.658-.829v2.764zm3.658-2.935 4-2v8.764l-4-2zm6 3.382h20v4h-20zm22-6h2v10h-2zm-2 0v4h-20v-4zm-22-24v22.382l-8.553 4.276c-.892.447-1.447 1.344-1.447 2.342 0 .355.092.686.222 1h-4.222v-6h-6v-24zm-16 28.586-2.586-2.586h2.586zm10-30.586h-8v-2h8zm-18 36v-38h8v2h-6v27.414l6.586 6.586h8.178l4 2zm58-3c0 1.654-1.346 3-3 3h-3v-10h3c1.654 0 3 1.346 3 3z"/><path d="m43.69 28.99c.307-.641.707-1.227 1.186-1.743l-2.481-3.258-1.327 1.327-.751-.755z"/><path d="m50 25c.095 0 .187.01.281.014l-3.281-9.187v1.173h-1.705l2.941 8.234c.565-.148 1.154-.234 1.764-.234z"/><path d="m47 32c0 1.654 1.346 3 3 3s3-1.346 3-3-1.346-3-3-3-3 1.346-3 3zm4 0c0 .552-.449 1-1 1s-1-.448-1-1 .449-1 1-1 1 .448 1 1z"/><path d="m34 17c1.654 0 3-1.346 3-3s-1.346-3-3-3-3 1.346-3 3 1.346 3 3 3zm0-4c.551 0 1 .448 1 1s-.449 1-1 1-1-.448-1-1 .449-1 1-1z"/><path d="m34 21c3.86 0 7-3.141 7-7s-3.14-7-7-7-7 3.141-7 7 3.14 7 7 7zm0-12c2.757 0 5 2.243 5 5s-2.243 5-5 5-5-2.243-5-5 2.243-5 5-5z"/><path d="m17 42.969 2.64-2.2-1.28-1.537-2.122 1.768h-7.238v8h8zm-6 4.031v-4h2.838l-1.478 1.231 1.28 1.537 1.36-1.133v2.365z"/><path d="m17 32.969 2.64-2.2-1.28-1.537-2.122 1.768h-7.238v8h8zm-6 4.031v-4h2.838l-1.478 1.231 1.28 1.537 1.36-1.133v2.365z"/><path d="m19 47h6v2h-6z"/><path d="m19 43h6v2h-6z"/><path d="m19 37h6v2h-6z"/><path d="m19 33h6v2h-6z"/></g></g></svg>