<svg id="_x33_0" enable-background="new 0 0 64 64" height="512" viewBox="0 0 64 64" width="512" xmlns="http://www.w3.org/2000/svg"><g><g><path d="m24.162 9h-3.162c-1.731 0-3.335.723-4.473 2h-.689c-4.873 0-8.838 3.965-8.838 8.838 0 1.855.252 3.702.749 5.489l.204.732h.212c.397-1.193 1.509-2.059 2.835-2.059h1v-2c0-2.209 1.791-4 4-4h1l-.016-.047c.911 1.236 2.364 2.047 4.016 2.047h7c1.105 0 2 .895 2 2v2h1c1.326 0 2.438.866 2.835 2.059h.212l.204-.732c.497-1.787.749-3.634.749-5.489 0-5.976-4.862-10.838-10.838-10.838z" fill="#f0bc5e"/></g><g><path d="m41 21v9 5h10v-5h8v-9z" fill="#f0bc5e"/></g><g><path d="m26 31h-2c0 1.103-.897 2-2 2h-5v2h5c2.206 0 4-1.794 4-4z"/><circle cx="16" cy="24" r="1"/><circle cx="25" cy="24" r="1"/><path d="m20 25h2v4h-2z"/><path d="m5 9h6v-2h-8v8h2z"/><path d="m37 15h2v-8h-8v2h6z"/><path d="m11 39h-6v-6h-2v8h8z"/><path d="m37 39h-6v2h8v-8h-2z"/><path d="m57 1v16h-2v-12h-6v12h-2v-8h-6v10h22v-18zm-12 16h-2v-6h2zm6-10h2v10h-2zm10 10h-2v-14h2z"/><path d="m41 21h8v2h-8z"/><path d="m51 21h8v2h-8z"/><path d="m41 25h18v2h-18z"/><path d="m41 29h18v2h-18z"/><path d="m41 33h2v2h-2z"/><path d="m45 33h2v2h-2z"/><path d="m49 33h2v2h-2z"/><path d="m50.721 39c-6.228 0-11.359 4.769-11.942 10.847-2.208-3.946-6.142-6.837-10.809-7.555l-.387-.06c-.428-.066-.764-.397-.835-.824l-.466-2.798c2.741-.949 4.718-3.55 4.718-6.61v-1c2.206 0 4-1.794 4-4s-1.794-4-4-4v-1c0-1.654-1.346-3-3-3h-7c-2.206 0-4-1.794-4-4h-2c0 .716.126 1.404.357 2.041-2.454.316-4.357 2.42-4.357 4.959v1c-2.206 0-4 1.794-4 4s1.794 4 4 4v1c0 3.06 1.977 5.661 4.718 6.61l-.466 2.797c-.071.427-.407.759-.835.825l-.387.06c-6.941 1.067-12.28 6.932-12.692 13.944l-.399 6.764h40.121l-.315-5.34c2.155 3.216 5.82 5.34 9.975 5.34 6.617 0 12-5.383 12-12s-5.382-12-11.999-12zm-41.721-12c0-1.103.897-2 2-2v4c-1.103 0-2-.897-2-2zm24 0c0 1.103-.897 2-2 2v-4c1.103 0 2 .897 2 2zm-20 5v-10c0-1.654 1.346-3 3-3h.531c1.1 1.227 2.695 2 4.469 2h7c.552 0 1 .449 1 1v10c0 2.757-2.243 5-5 5h-6c-2.757 0-5-2.243-5-5zm20 29v-8h-2v8h-20v-8h-2v8h-5.939l.273-4.646c.357-6.077 4.984-11.16 11.001-12.085l.387-.06c1.282-.197 2.289-1.19 2.503-2.472l.458-2.752c.106.004.21.015.317.015h6c.107 0 .211-.011.317-.016l.458 2.753c.214 1.281 1.221 2.274 2.503 2.471l.387.06c6.017.925 10.644 6.008 11.001 12.085l.273 4.647zm11.366-2.285c1.29-2.272 3.704-3.715 6.355-3.715 2.652 0 5.065 1.443 6.354 3.716-1.729 1.426-3.943 2.284-6.354 2.284s-4.626-.858-6.355-2.285zm2.355-9.715c0-2.206 1.794-4 4-4s4 1.794 4 4-1.794 4-4 4-4-1.794-4-4zm11.804 8.236c-1.018-1.561-2.476-2.759-4.164-3.477 1.431-1.098 2.36-2.82 2.36-4.758 0-3.309-2.691-6-6-6s-6 2.691-6 6c0 1.939.928 3.661 2.36 4.759-1.688.718-3.146 1.916-4.165 3.477-1.37-1.711-2.195-3.877-2.195-6.235 0-5.514 4.486-10 10-10s10 4.486 10 10c0 2.356-.825 4.522-2.196 6.234z"/></g></g></svg>