<svg id="_x33_0" enable-background="new 0 0 64 64" height="512" viewBox="0 0 64 64" width="512" xmlns="http://www.w3.org/2000/svg"><g><g><path d="m61.77 45.912c-.747-.188-1.37-.724-1.665-1.436-.328-.793-.261-1.706.182-2.442l.579-.969-3.931-3.93-1.087.648c-.663.399-1.486.458-2.199.163-.79-.327-1.385-1.019-1.593-1.85l-.277-1.096h-5.56l-.292 1.167c-.197.787-.763 1.443-1.513 1.754-.753.313-1.622.249-2.324-.172l-1.024-.614-3.932 3.931.58.97c.441.735.509 1.648.181 2.441-.295.712-.918 1.248-1.665 1.436l-1.23.306v5.563l1.23.307c.747.188 1.37.724 1.665 1.436.328.793.261 1.706-.182 2.442l-.579.969 3.932 3.931 1.025-.614c.699-.42 1.568-.483 2.323-.172.75.311 1.315.967 1.513 1.755l.293 1.164h5.56l.276-1.1c.208-.829.803-1.521 1.593-1.848.714-.296 1.535-.236 2.202.164l1.084.647 3.931-3.93-.58-.97c-.441-.735-.509-1.648-.181-2.441.295-.712.918-1.248 1.665-1.436l1.23-.305v-5.563zm-12.77 10.088c-3.862 0-7-3.138-7-7s3.138-7 7-7 7 3.138 7 7-3.138 7-7 7z" fill="#f0bc5e"/></g><g><path d="m17 49h2v2h-2z"/><path d="m17 53h2v2h-2z"/><path d="m49 45c-2.206 0-4 1.794-4 4s1.794 4 4 4 4-1.794 4-4-1.794-4-4-4zm0 6c-1.103 0-2-.897-2-2s.897-2 2-2 2 .897 2 2-.897 2-2 2z"/><path d="m60.935 13.972c.039-.322.065-.646.065-.972 0-4.411-3.589-8-8-8-1.11 0-2.17.235-3.138.649-1.572-2.85-4.545-4.649-7.862-4.649-4.963 0-9 4.037-9 9 0 .441.04.878.104 1.312-.139.047-.278.095-.413.151-.604-1.445-2.03-2.463-3.691-2.463-.732 0-1.409.212-2 .556v-.556c0-2.206-1.794-4-4-4-.732 0-1.409.212-2 .556v-.556c0-2.206-1.794-4-4-4s-4 1.794-4 4v.556c-.591-.344-1.268-.556-2-.556-2.206 0-4 1.794-4 4v6.493c-.762-.316-1.596-.493-2.471-.493-1.946 0-3.529 1.577-3.529 3.516 0 .446.084.885.251 1.306 1.16 2.901 1.749 5.955 1.749 9.078v5.889c0 4.641 2.206 8.964 5.933 11.686l-2.066 16.525h22.266l-2.065-16.525c3.726-2.722 5.932-7.045 5.932-11.686v-12.139c.627.223 1.298.35 2 .35h2.184c-.112.314-.184.648-.184 1 0 1.654 1.346 3 3 3h14c.552 0 1 .448 1 1s-.448 1-1 1h-3c-1.654 0-3 1.346-3 3v3h2v-3c0-.552.448-1 1-1h3c1.654 0 3-1.346 3-3s-1.346-3-3-3h-14c-.552 0-1-.448-1-1s.448-1 1-1h1 17c2.757 0 5-2.243 5-5 0-1.657-.819-3.117-2.065-4.028zm-51.802 47.028 1.75-14h2.117v7c0 2.757 2.243 5 5 5s5-2.243 5-5v-7h2.117l1.75 14zm5.867-14h6v7c0 1.654-1.346 3-3 3s-3-1.346-3-3zm16-12.211c0 4.086-1.994 7.876-5.334 10.211h-15.332c-3.34-2.335-5.334-6.125-5.334-10.211v-5.889c0-3.378-.637-6.683-1.891-9.819-.072-.183-.109-.373-.109-.566 0-.835.687-1.515 1.529-1.515 2.465 0 4.471 2.006 4.471 4.472v6.146l.975.487c1.866.933 3.025 2.809 3.025 4.895h2c0-2.8-1.528-5.321-4-6.616v-4.912c0-1.834-.77-3.489-2-4.667v-7.805c0-1.103.897-2 2-2s2 .897 2 2v15.535h2v-19.535c0-1.103.897-2 2-2s2 .897 2 2v19h2v-15c0-1.103.897-2 2-2s2 .897 2 2v15h2v-11c0-1.103.897-2 2-2 .959 0 1.761.68 1.954 1.582-1.197 1.098-1.954 2.669-1.954 4.418 0 1.771.776 3.36 2 4.46zm27-13.789h-17-1-5c-2.206 0-4-1.794-4-4s1.794-4 4-4 4 1.794 4 4h2c0-3.283-2.65-5.954-5.923-5.996-.048-.332-.077-.667-.077-1.004 0-3.859 3.141-7 7-7 2.595 0 4.918 1.417 6.135 3.656-1.513 1.161-2.603 2.852-2.983 4.818-1.273.67-2.152 1.99-2.152 3.526h2c0-1.103.897-2 2-2s2 .897 2 2h2c0-2.089-1.614-3.789-3.658-3.965.821-2.367 3.06-4.035 5.658-4.035 3.309 0 6 2.691 6 6 0 .034-.005.067-.005.101-.322-.066-.654-.101-.995-.101-2.757 0-5 2.243-5 5v1h2v-1c0-1.654 1.346-3 3-3s3 1.346 3 3-1.346 3-3 3z"/><path d="m49 41c-4.411 0-8 3.589-8 8s3.589 8 8 8 8-3.589 8-8-3.589-8-8-8zm0 14c-3.309 0-6-2.691-6-6s2.691-6 6-6 6 2.691 6 6-2.691 6-6 6z"/></g></g></svg>