<svg id="_x33_0" enable-background="new 0 0 64 64" height="512" viewBox="0 0 64 64" width="512" xmlns="http://www.w3.org/2000/svg"><g><g><path d="m36 29.854c0-1.024.83-1.854 1.854-1.854.687 0 1.311.383 1.632.987.955-1.429 1.514-3.143 1.514-4.987 0-.136-.014-.267-.02-.401-.319.247-.707.401-1.126.401-1.024 0-1.854-.83-1.854-1.854v-4.835c-1.594-1.432-3.694-2.311-6-2.311-4.962 0-9 4.038-9 9s4.038 9 9 9c1.438 0 2.793-.348 4-.95z" fill="#f0bc5e"/></g><g><g><path d="m32 57c-1.654 0-3-1.346-3-3s1.346-3 3-3 3 1.346 3 3-1.346 3-3 3z" fill="#f0bc5e"/></g></g><g><path d="m45 15h2v2h2v-7c0-1.654-1.346-3-3-3s-3 1.346-3 3v7h2zm1-6c.551 0 1 .449 1 1v3h-2v-3c0-.551.449-1 1-1z"/><path d="m57 14c0-.768-.29-1.469-.766-2 .476-.531.766-1.232.766-2 0-1.654-1.346-3-3-3h-3v10h3c1.654 0 3-1.346 3-3zm-4-5h1c.551 0 1 .449 1 1s-.449 1-1 1h-1zm0 4h1c.551 0 1 .449 1 1s-.449 1-1 1h-1z"/><path d="m53 35h-2v4h-4v-4h-2v10h8zm-6 8v-2h4v2z"/><path d="m41 43h2v2h-2z"/><path d="m41 35h2v6h-2z"/><path d="m55 43h2v2h-2z"/><path d="m55 35h2v6h-2z"/><path d="m63 19v-14c0-1.103-.897-2-2-2h-22c-1.103 0-2 .897-2 2h-22.35c-.826-2.327-3.043-4-5.65-4-4.411 0-8 3.589-8 8 0 3.805 2.673 6.992 6.238 7.798l-4.059 10.551c-.119.309-.179.633-.179.964 0 1.481 1.206 2.687 2.687 2.687h1.313v6.495c0 3.035 2.47 5.505 5.505 5.505.401 0 .803-.044 1.194-.131l5.3-1.178v4.447c-5.626 3.282-9.447 9.184-9.997 15.78l-.089 1.082h30.087v-9c0-1.965-.816-3.74-2.124-5.013.042.003.081.013.124.013h24c1.103 0 2-.897 2-2v-14c0-1.103-.897-2-2-2h-18.058c1.331-2.079 2.058-4.5 2.058-7 0-1.018-.126-2.021-.357-3h16.357c1.103 0 2-.897 2-2zm-24-14h22v14h-18.618l-1.763 3.527c-.146.292-.439.473-.765.473-.471 0-.854-.383-.854-.854zm-36 4c0-3.309 2.691-6 6-6 2.206 0 4 1.794 4 4s-1.794 4-4 4c-1.103 0-2-.897-2-2s.897-2 2-2v-2c-2.206 0-4 1.794-4 4s1.794 4 4 4c3.309 0 6-2.691 6-6h22v5c-1.576-.656-3.277-1-5-1-3.675 0-6.992 1.54-9.359 4h-13.641c-3.309 0-6-2.691-6-6zm10.266 31.917c-.25.055-.506.083-.761.083-1.933 0-3.505-1.572-3.505-3.505v-2.495h7c.551 0 1 .449 1 1v4.087zm11.734 20.083h-13.88c.937-6.456 5.346-12.031 11.478-14.389l.479-.185c1.15-.443 1.923-1.568 1.923-2.8v-2.626h-2v2.626c0 .411-.258.786-.641.933l-.479.185c-.299.115-.589.247-.88.375v-3.873l.111-.025c1.023-.227 1.864-.985 2.195-1.979l.642-1.926-1.897-.633-.642 1.926c-.11.332-.391.584-.731.66l-1.678.373v-3.642c0-1.654-1.346-3-3-3h-7v-4h-3.313c-.379 0-.687-.308-.687-.687 0-.084.016-.168.045-.247l4.257-11.066h11.761c-1.3 2.023-2.063 4.422-2.063 7 0 7.168 5.832 13 13 13 .993 0 1.971-.121 2.928-.342l-1.291 1.291c-1.7 1.7-2.636 3.96-2.636 6.364v2.766c-3.387.488-6 3.401-6 6.92v7.001zm12-7v7h-10v-7c0-2.757 2.243-5 5-5s5 2.243 5 5zm-4-6.92v-2.766c0-1.844.711-3.578 2-4.894v7.58c0 .268.055.524.151.758-.664-.337-1.387-.568-2.151-.678zm28-.08h-24v-17.146c0-.471.383-.854.854-.854.326 0 .619.181.764.472l1.764 3.528h20.618zm-19.843-16.923-.75-1.5c-.487-.973-1.466-1.577-2.553-1.577-1.574 0-2.854 1.28-2.854 2.854v4.725c-.972.275-1.977.421-3 .421-6.065 0-11-4.935-11-11s4.935-11 11-11c1.747 0 3.457.435 5 1.225v7.921c0 1.574 1.28 2.854 2.854 2.854 1.087 0 2.066-.604 2.553-1.578l.478-.956c.071.507.115 1.017.115 1.534 0 2.178-.653 4.284-1.843 6.077z"/><path d="m33 21.184v-6.184h-2v6.184c-.847.302-1.514.969-1.816 1.816h-6.184v2h6.184c.302.847.969 1.514 1.816 1.816v6.184h2v-6.184c1.161-.414 2-1.514 2-2.816s-.839-2.402-2-2.816zm-1 3.816c-.551 0-1-.449-1-1s.449-1 1-1 1 .449 1 1-.449 1-1 1z"/><path d="m13 25c-1.103 0-2-.897-2-2h-2c0 2.206 1.794 4 4 4s4-1.794 4-4h-2c0 1.103-.897 2-2 2z"/><path d="m27 39h2v2h-2z"/><path d="m27 43h2v2h-2z"/></g></g></svg>