<svg id="_x33_0" enable-background="new 0 0 64 64" height="512" viewBox="0 0 64 64" width="512" xmlns="http://www.w3.org/2000/svg"><g><g><path d="m25.315 1h-6.631c-6.443 0-11.684 5.242-11.684 11.685 0 .954.117 1.908.35 2.834l.745 2.984h.201c.593-1.467 2.025-2.503 3.704-2.503h.176l-.133-.756c-.029-.162-.043-.327-.043-.492 0-1.103.519-2.141 1.401-2.803l2.599-1.949 6 2 6-2 2.599 1.949c.882.662 1.401 1.7 1.401 2.803 0 .165-.014.33-.043.493l-.133.755h.176c1.679 0 3.111 1.036 3.704 2.502h.201l.745-2.984c.232-.926.35-1.88.35-2.834 0-6.442-5.241-11.684-11.685-11.684z" fill="#f0bc5e"/></g><g><g><path d="m50.999 49v-6c0-.552.448-1 1-1h.766c2.722 0 5.119-2.073 5.229-4.793.165-4.073-4.573-7.137-8.782-3.76-.998.801-1.33 2.102-1.221 3.377.108 1.261-.961 2.308-2.228 2.162-1.042-.12-1.782-1.102-1.763-2.151.096-5.33 4.848-9.544 10.353-8.736 3.717.545 6.77 3.462 7.478 7.152.948 4.943-2.235 9.481-6.832 10.525v3.224c0 .552-.448 1-1 1h-2c-.552 0-1-.448-1-1z" fill="#f0bc5e"/></g></g><g><circle cx="53" cy="56" fill="#f0bc5e" r="2"/></g><g><circle cx="18" cy="18" r="1"/><circle cx="26" cy="18" r="1"/><path d="m21 57h2v2h-2z"/><path d="m17 57h2v2h-2z"/><path d="m25 57h2v2h-2z"/><path d="m61.44 18.968c-.226-.248-.475-.469-.736-.673.197-.746.296-1.515.296-2.295 0-4.962-4.037-9-9-9-.949 0-1.864.15-2.724.424-1.848-2.741-4.936-4.424-8.276-4.424-2.814 0-5.514 1.196-7.406 3.281l1.48 1.344c1.515-1.668 3.675-2.625 5.926-2.625 2.559 0 4.941 1.227 6.438 3.255-1.375.813-2.518 1.976-3.298 3.373-.632-.401-1.37-.628-2.14-.628h-1v2h1c.507 0 .987.196 1.352.533-.224.785-.352 1.611-.352 2.467 0 .37.023.747.069 1.121l1.984-.242c-.034-.288-.053-.581-.053-.879 0-3.86 3.141-7 7-7s7 3.14 7 7c0 .442-.049.877-.13 1.305-.599-.197-1.229-.301-1.87-.301-1.499 0-2.867.556-3.92 1.468-.746-.903-1.863-1.472-3.08-1.472h-1v2h1c.754 0 1.417.444 1.756 1.096-.48.862-.756 1.853-.756 2.908h2c0-2.206 1.794-4 4-4 1.124 0 2.203.478 2.961 1.31.767.844 1.129 1.94 1.021 3.086-.193 2.021-2.036 3.604-4.196 3.604h-25.889l.353-2.004h.75c2.757 0 5-2.243 5-5 0-.3-.038-.591-.089-.877.533.125 1.043.346 1.488.68l1.201-1.599c-1.044-.784-2.321-1.171-3.6-1.174-.728-.977-1.791-1.688-3.03-1.932.01-.115.03-.23.03-.346 0-1.41-.674-2.757-1.802-3.603l-3.018-2.263-6.18 2.06-6.181-2.06-3.019 2.263c-1.126.846-1.8 2.193-1.8 3.603 0 .115.02.231.03.346-2.293.453-4.03 2.477-4.03 4.902 0 2.757 2.243 5 5 5h.75l.683 3.869c.327 1.854 1.647 3.303 3.353 3.867l-.635 2.54-6.383 2.735c-4.855.125-8.768 4.105-8.768 8.989v5.438c0 1.281.812 2.396 2 2.818v7.744h38v-7.744c1.188-.421 2-1.536 2-2.818v-5.438c0-4.884-3.913-8.864-8.768-8.988l-6.383-2.735-.635-2.54c1.663-.55 2.95-1.945 3.317-3.732h26.254c3.18 0 5.897-2.378 6.187-5.414.161-1.69-.397-3.375-1.532-4.623zm-26.44 1.032c0 1.654-1.346 3-3 3h-.397l1.046-5.925c1.343.298 2.351 1.494 2.351 2.925zm-7.181-8.886 2.179 1.634c.628.471 1.002 1.22 1.002 2.004 0 .108-.01.215-.027.319l-1.91 10.819-.616-1.232c-.511-1.023-1.54-1.658-2.683-1.658h-2.764v-10.279zm-13.818 1.635 2.18-1.634 4.819 1.606v10.279h-2.764c-1.144 0-2.172.635-2.684 1.658l-.616 1.232-1.909-10.816c-.017-.107-.027-.214-.027-.322 0-.784.374-1.533 1.001-2.003zm-2.001 10.251c-1.654 0-3-1.346-3-3 0-1.431 1.009-2.627 2.351-2.925l1.046 5.925zm13.22 10 .631 2.524-3.851 2.31-3.851-2.31.632-2.524zm7.78 28h-2v-3c0-2.826-1.312-5.349-3.356-7h5.356zm-22-10h5.356c-2.044 1.651-3.356 4.174-3.356 7v3h-2zm4 7c0-3.86 3.141-7 7-7s7 3.14 7 7v3h-14zm1.924-20.88 4.076 2.446v9.434h-10v-9.341zm-13.924 9.88c0-3.519 2.614-6.432 6-6.92v14.639l-5.242-1.311c-.446-.111-.758-.51-.758-.97zm2 8.781 4 1v4.219h-4zm30 5.219v-4.219l4-1v5.219zm6-14v5.438c0 .459-.312.859-.757.97l-5.243 1.311v-14.639c3.386.488 6 3.401 6 6.92zm-8 2h-10v-9.434l4.076-2.446 5.924 2.539zm-7.355-18h-7.289c-1.253 0-2.343-.773-2.786-1.901l1.773-3.546c.17-.341.512-.553.893-.553h7.527c.381 0 .724.212.895.553l1.773 3.546c-.444 1.128-1.533 1.901-2.786 1.901z"/></g></g></svg>