<svg id="_x33_0" enable-background="new 0 0 64 64" height="512" viewBox="0 0 64 64" width="512" xmlns="http://www.w3.org/2000/svg"><g><g><g><path d="m18 33h-8c-1.654 0-3-1.346-3-3v-8c0-1.654 1.346-3 3-3h8c1.654 0 3 1.346 3 3v8c0 1.654-1.346 3-3 3z" fill="#f0bc5e"/></g></g><g><g><path d="m61.416 15c-1.121 0-2.122-.669-2.57-1.753-.436-1.044-.204-2.232.589-3.025l1.123-1.12-5.658-5.658-1.12 1.12c-.794.793-1.979 1.027-3.074.57-1.037-.428-1.706-1.428-1.706-2.55v-1.584h-8v1.584c0 1.121-.669 2.122-1.753 2.57-1.045.435-2.231.204-3.026-.59l-1.12-1.12-5.658 5.658 1.122 1.119c.794.794 1.025 1.981.57 3.074-.333.805-1.035 1.411-1.88 1.623l-.166.042c.428.885.761 1.829.971 2.826l.887 4.214h5.565c-.332-.938-.512-1.948-.512-3 0-4.971 4.029-9 9-9s9 4.029 9 9c0 1.052-.18 2.062-.512 3h6.512c1.105 0 2 .895 2 2v1h1v-10z" fill="#f0bc5e"/></g></g><g><path d="m45 49v9 5h10v-5h8v-9z" fill="#f0bc5e"/></g><g><path d="m14 23c-1.654 0-3 1.346-3 3s1.346 3 3 3 3-1.346 3-3-1.346-3-3-3zm0 4c-.552 0-1-.449-1-1s.448-1 1-1 1 .449 1 1-.448 1-1 1z"/><circle cx="14" cy="42" r="1"/><circle cx="26" cy="22" r="1"/><path d="m38 27c-1.654 0-3 1.346-3 3v7h2v-2h2v2h2v-7c0-1.654-1.346-3-3-3zm-1 6v-3c0-.551.448-1 1-1s1 .449 1 1v3z"/><path d="m46 27h-3v10h3c1.654 0 3-1.346 3-3 0-.768-.29-1.469-.766-2 .476-.531.766-1.232.766-2 0-1.654-1.346-3-3-3zm0 8h-1v-2h1c.552 0 1 .448 1 1s-.448 1-1 1zm0-4h-1v-2h1c.552 0 1 .449 1 1s-.448 1-1 1z"/><path d="m54 27c-1.654 0-3 1.346-3 3v4c0 1.654 1.346 3 3 3s3-1.346 3-3v-1h-2v1c0 .552-.448 1-1 1s-1-.448-1-1v-4c0-.551.448-1 1-1s1 .449 1 1v1h2v-1c0-1.654-1.346-3-3-3z"/><path d="m60 21h-5.209c.134-.656.209-1.323.209-2 0-5.514-4.486-10-10-10s-10 4.486-10 10c0 .677.075 1.345.209 2h-3.45l-.72-3.42c-1.291-6.131-6.774-10.58-13.039-10.58-9.374 0-17 7.626-17 17 0 5.323 2.542 10.406 6.8 13.6l1.2.9v6.58c-3.386.488-6 3.401-6 6.92v9h-2v2h40v-2h-8.051c-.378-6.446-4.35-11.931-9.949-14.474v-7.526h3c1.13 0 2.162-.391 3-1.026v2.026c0 1.654 1.346 3 3 3h7v1.586c0 1.331 1.083 2.414 2.414 2.414.636 0 1.258-.258 1.707-.707l3.293-3.293h13.586c1.654 0 3-1.346 3-3v-16c0-1.654-1.346-3-3-3zm-23-2c0-4.411 3.589-8 8-8s8 3.589 8 8c0 .68-.085 1.35-.253 2h-2.096c.226-.636.349-1.307.349-2 0-3.309-2.691-6-6-6s-6 2.691-6 6c0 .693.123 1.364.348 2h-2.096c-.167-.65-.252-1.32-.252-2zm4.547 2c-.353-.606-.547-1.286-.547-2 0-2.206 1.794-4 4-4s4 1.794 4 4c0 .714-.194 1.394-.547 2zm-30.547 18h3c1.654 0 3 1.346 3 3s-1.346 3-3 3h-3zm-1 8c2.757 0 5 2.243 5 5v3h-10v-3c0-2.757 2.243-5 5-5zm1 10v4h-2v-4zm2 0h2v4h-2zm-8 0h2v4h-2zm25.949 4h-13.949v-9c0-1.958-.81-3.728-2.111-5h1.111c7.934 0 14.431 6.195 14.949 14zm-9.949-15.247c-1.002-.309-2.045-.523-3.117-.642.688-.857 1.117-1.93 1.117-3.111 0-1.13-.391-2.162-1.026-3h3.026zm5-8.753h-9v-4h-2v4h-4.667l-1.333-1c-3.757-2.817-6-7.304-6-12 0-8.271 6.729-15 15-15 4.236 0 8.044 2.398 9.98 6h-7.98c-2.414 0-4.434 1.721-4.899 4h2.083c.414-1.161 1.514-2 2.816-2h8.824c.1.324.187.655.258.992l1.78 8.459-1.862.931v3.618h-2c-1.103 0-2-.897-2-2h-2c0 2.206 1.794 4 4 4h2v1c0 1.654-1.346 3-3 3zm35 3c0 .552-.448 1-1 1h-14.414l-3.879 3.879c-.238.238-.707.045-.707-.293v-3.586h-9c-.552 0-1-.448-1-1v-11.382l2.138-1.069-.958-4.549h27.82c.552 0 1 .449 1 1z"/><path d="m53 61h2v2h-2z"/><path d="m49 61h2v2h-2z"/><path d="m45 61h2v2h-2z"/><path d="m45 57h18v2h-18z"/><path d="m45 53h18v2h-18z"/><path d="m45 49h6v2h-6z"/><path d="m53 49h10v2h-10z"/></g></g></svg>