<svg id="_x33_0" enable-background="new 0 0 64 64" height="512" viewBox="0 0 64 64" width="512" xmlns="http://www.w3.org/2000/svg"><g><g><path d="m22 3 .292-.146c.231-.115.469-.212.709-.304v-.33l-3.203-.8c-1.112-.279-2.256-.42-3.402-.42-3.747 0-7.27 1.459-9.919 4.109l-.817.817 2.108 2.636c-1.271 1.303-2.167 2.909-2.613 4.694l-.245.982 3.675 4.593c.672-.514 1.503-.831 2.415-.831h1v-1.838c0-1.888 1.208-3.565 3-4.162l7 2z" fill="#f0bc5e"/></g><g><path d="m32.362 49.595-2.979-5.197-2.4 1.411v-2.809h-4.983v8c0-1.105.895-2 2-2s2 .895 2 2-.895 2-2 2-2-.895-2-2v8h4.983l-.018-2.81 2.418 1.411 2.979-5.197-2.434-1.395z" fill="#f0bc5e"/></g><g><path d="m30.549 46.432.997 1.739 5.009-3.339-1.11-1.664z"/><path d="m37.709 40.103-7.868-2.861-.662-2.649c2.336-1.424 3.821-3.946 3.821-6.797v-8.796h2v-8.91c0-5.012-4.078-9.09-9.09-9.09-1.404 0-2.81.332-4.065.959l-.845.423v10.292l-6.023-1.721-.293.098c-2.204.735-3.684 2.789-3.684 5.111v.838c-2.757 0-5 2.243-5 5s2.243 5 5 5h.101c.361 2.795 1.753 5.287 3.861 7.029l-.795 3.181-8.225 2.531c-2.956.909-4.942 3.598-4.942 6.691v4.568h2v12h38v-18.198c0-2.095-1.323-3.984-3.291-4.699zm-29.709-18.103c0-1.654 1.346-3 3-3v6c-1.654 0-3-1.346-3-3zm31 27.323-2.431.972.19-1.427c.067-.495.493-.868.992-.868h1.249zm0-4.521v1.198h-1.249c-1.498 0-2.776 1.12-2.974 2.604l-.453 3.396h-2.669l.706.405-.913 1.595h2.61l-.755 5.662-3.066-3.55-.854 1.489-1.014-.592 3.446 3.991h-8.815v-7.184c.314.112.648.184 1 .184 1.654 0 3-1.346 3-3s-1.346-3-3-3c-.352 0-.686.072-1 .184v-5.184h1.715l4.493-3.86 2.105.765-3.029 5.139 1.099-.646.79 1.379 3.051-5.177 3.801 1.382c1.182.43 1.975 1.563 1.975 2.82zm-29.917-3.935 5.683-1.749 6.234 5.356v16.526h-10.087zm13.917-15.867h2c1.103 0 2 .897 2 2s-.897 2-2 2h-2zm0-8h4v2h-4zm1.216 19.379.643 3.86-1.859 1.598v-5.093zm-1.216 14.621c0-.551.449-1 1-1s1 .449 1 1-.449 1-1 1-1-.449-1-1zm4.88-13.356-1.247 1.072-.486-2.916 1.156-.347c.009-.003.017-.008.027-.01zm3.12-20.644v10.796c0 2.667-1.716 4.975-4.271 5.741l-3.729 1.119v-3.656h2c2.206 0 4-1.794 4-4s-1.794-4-4-4h-2v-2h6v-6h-6v-2h10v4zm-4.101-6h-3.899v-3.899c1.956.399 3.5 1.943 3.899 3.899zm-.989-8c3.909 0 7.09 3.181 7.09 7.09v.91h-4.08c-.158-1.1-.569-2.118-1.177-2.991.792-.785 1.257-1.862 1.257-3.009h-2c0 .585-.236 1.131-.629 1.542-.952-.765-2.108-1.28-3.371-1.462v-1.455c.911-.41 1.911-.625 2.91-.625zm-12.91 22.56v-9.397c0-1.362.81-2.578 2.044-3.109l5.956 1.7v12.246h-2c-1.103 0-2-.897-2-2h-2c0 2.206 1.794 4 4 4h2v5.656l-1.586-.476c-3.836-1.151-6.414-4.615-6.414-8.62zm5.839 10.536 2.161.648v5.093l-4.88-4.193.609-2.433c.661.358 1.364.661 2.11.885zm-15.839 10.336c0-2.209 1.418-4.13 3.529-4.779l.6-.185.685 7.532h-4.814zm2 4.568h2.996l.909 10h-3.905zm30.142 10 .133-1h1.725v-2h-1.458l.724-5.429 2.734-1.094v2.523h-2v2h2v5z"/><circle cx="16" cy="18" r="1"/><path d="m49.492 11.01c-6.732.257-12.334 5.948-12.488 12.686-.105 4.546 2.179 8.803 5.996 11.247v.057 3c0 3.86 3.14 7 7 7s7-3.14 7-7v-3-.058c3.715-2.381 6-6.522 6-10.942 0-3.566-1.416-6.893-3.985-9.367-2.569-2.473-5.949-3.764-9.523-3.623zm.508 31.99c-2.414 0-4.434-1.721-4.899-4h9.798c-.465 2.279-2.485 4-4.899 4zm5-6h-10v-2h10zm-8-14h-1c-.551 0-1-.449-1-1s.449-1 1-1 1 .449 1 1zm4 10h-2v-8h2zm5.267 0h-3.267v-8h1c1.654 0 3-1.346 3-3s-1.346-3-3-3-3 1.346-3 3v1h-2v-1c0-1.654-1.346-3-3-3s-3 1.346-3 3 1.346 3 3 3h1v8h-3.266c-3.013-2.1-4.817-5.557-4.731-9.258.131-5.701 4.87-10.516 10.565-10.733.146-.007.29-.009.435-.009 2.862 0 5.556 1.083 7.625 3.074 2.174 2.093 3.372 4.908 3.372 7.926 0 3.595-1.801 6.953-4.733 9zm-3.267-10v-1c0-.551.449-1 1-1s1 .449 1 1-.449 1-1 1z"/><path d="m59 5h2v2h-2z"/><path d="m59 9h2v2h-2z"/><path d="m61 7h2v2h-2z"/><path d="m57 7h2v2h-2z"/><path d="m39 7h2v2h-2z"/><path d="m39 11h2v2h-2z"/><path d="m41 9h2v2h-2z"/><path d="m37 9h2v2h-2z"/><path d="m35 31h2v2h-2z"/><path d="m35 35h2v2h-2z"/><path d="m37 33h2v2h-2z"/><path d="m33 33h2v2h-2z"/></g></g></svg>