<svg id="_x33_0" enable-background="new 0 0 64 64" height="512" viewBox="0 0 64 64" width="512" xmlns="http://www.w3.org/2000/svg"><g><g><path d="m8 35v-2c0-.375.215-.689.52-.86-.672-1.266-1.989-2.14-3.52-2.14-2.206 0-4 1.794-4 4s1.794 4 4 4c1.531 0 2.848-.874 3.52-2.14-.305-.171-.52-.485-.52-.86z" fill="#f0bc5e"/></g><g><path d="m59 30c-1.531 0-2.848.874-3.52 2.14.305.171.52.485.52.86v2c0 .375-.215.689-.52.86.672 1.266 1.989 2.14 3.52 2.14 2.206 0 4-1.794 4-4s-1.794-4-4-4z" fill="#f0bc5e"/></g><g><path d="m25 37c2.206 0 4-1.794 4-4s-1.794-4-4-4-4 1.794-4 4 1.794 4 4 4zm0-6c1.103 0 2 .897 2 2s-.897 2-2 2-2-.897-2-2 .897-2 2-2z"/><path d="m31 29h2v10h-2z"/><path d="m31 1h2v2h-2z"/><path d="m31 5h2v6h-2z"/><path d="m23 3h2v2h-2z"/><path d="m29 9h-4v-2h-2v4h6z"/><path d="m21 15v-2h-3.586l-2.707-2.707-1.414 1.414 3.293 3.293z"/><path d="m10 6.586h2v2.828h-2z" transform="matrix(.707 -.707 .707 .707 -2.435 10.121)"/><path d="m12.414 19h4.586v-2h-5.414l-3.293 3.293 1.414 1.414z"/><path d="m4.586 23h2.828v2h-2.828z" transform="matrix(.707 -.707 .707 .707 -15.213 11.272)"/><path d="m39 37c2.206 0 4-1.794 4-4s-1.794-4-4-4-4 1.794-4 4 1.794 4 4 4zm0-6c1.103 0 2 .897 2 2s-.897 2-2 2-2-.897-2-2 .897-2 2-2z"/><path d="m55 31h-2c0-1.103-.897-2-2-2h-4v-4c0-1.103-.897-2-2-2h-.391c.253-.552.391-1.158.391-1.764 0-2.289-1.828-4.148-4.1-4.222-.459-2.286-2.481-4.014-4.9-4.014-1.641 0-3.088.806-4 2.031-.912-1.225-2.359-2.031-4-2.031-2.419 0-4.441 1.728-4.9 4.014-2.271.074-4.1 1.933-4.1 4.222 0 .607.138 1.212.391 1.764h-.391c-1.103 0-2 .897-2 2v4h-4c-1.103 0-2 .897-2 2h-2c-1.103 0-2 .897-2 2v2c0 1.103.897 2 2 2h2c0 1.103.897 2 2 2h4v1c0 1.349.901 2.48 2.129 2.856l.606 3.637c.242 1.452 1.486 2.507 2.959 2.507h2.306v2.189l-.818.155c-5.588 1.117-10.118 4.97-12.118 10.305l-.507 1.351h40.887l-.507-1.351c-2-5.335-6.53-9.188-12.118-10.305l-.819-.164v-2.18h2.306c1.474 0 2.718-1.055 2.959-2.507l.606-3.637c1.228-.376 2.129-1.507 2.129-2.856v-1h4c1.103 0 2-.897 2-2h2c1.103 0 2-.897 2-2v-2c0-1.103-.897-2-2-2zm-46 4v-2h2v2zm27-20c1.654 0 3 1.346 3 3 0 .551-.448 1-1 1s-1-.449-1-1v-1h-2v1c0 1.654 1.346 3 3 3 1.3 0 2.399-.836 2.814-1.995 1.21.028 2.186 1.015 2.186 2.231 0 .345-.082.691-.236 1l-.382.764h-9.382v-5c0-1.654 1.346-3 3-3zm-14.764 7.236c-.154-.309-.236-.655-.236-1 0-1.216.976-2.203 2.186-2.231.415 1.159 1.514 1.995 2.814 1.995 1.654 0 3-1.346 3-3v-1h-2v1c0 .551-.448 1-1 1s-1-.449-1-1c0-1.654 1.346-3 3-3s3 1.346 3 3v5h-9.382zm-8.236 14.764v-6h4v6zm16 12v2.005l-2-.003v-2.002zm7.899 4c-.465 2.279-2.484 4-4.899 4s-4.434-1.721-4.899-4zm-5.899-1.992v-2.008h2v2.011zm-12 4.731v5.261h-4.479c1.052-2.127 2.6-3.912 4.479-5.261zm30.479 5.261h-4.479v-5.261c1.879 1.349 3.427 3.134 4.479 5.261zm-6.479-6.461v6.461h-22v-6.461c1.118-.553 2.31-.981 3.574-1.234l.536-.107c.571 3.29 3.44 5.802 6.89 5.802s6.319-2.512 6.89-5.802l.536.107c1.264.252 2.456.681 3.574 1.234zm-6-3.521-2-.003v-2.015h2zm4.306-4.018h-18.612c-.491 0-.906-.351-.986-.836l-.528-3.164h21.64l-.528 3.165c-.08.484-.495.835-.986.835zm3.694-7c0 .551-.448 1-1 1h-24c-.552 0-1-.449-1-1v-15h26zm6-3h-4v-6h4zm4-2h-2v-2h2z"/><path d="m39 3h2v2h-2z"/><path d="m41 7h-2v2h-4v2h6z"/><path d="m50.707 11.707-1.414-1.414-2.707 2.707h-3.586v2h4.414z"/><path d="m51.586 7h2.828v2h-2.828z" transform="matrix(.707 -.707 .707 .707 9.867 39.82)"/><path d="m47 17v2h4.586l2.707 2.707 1.414-1.414-3.293-3.293z"/><path d="m57 22.586h2v2.828h-2z" transform="matrix(.707 -.707 .707 .707 .017 48.042)"/></g></g></svg>