<svg id="_x33_0" enable-background="new 0 0 64 64" height="512" viewBox="0 0 64 64" width="512" xmlns="http://www.w3.org/2000/svg"><g><g><g><path d="m32 62c-7.72 0-14-6.28-14-14s6.28-14 14-14 14 6.28 14 14-6.28 14-14 14zm0-24c-5.514 0-10 4.486-10 10s4.486 10 10 10 10-4.486 10-10-4.486-10-10-10z" fill="#f0bc5e"/></g></g><g><path d="m23 12h12v9h-12z" fill="#f0bc5e"/></g><g><path d="m32 37c-6.065 0-11 4.935-11 11s4.935 11 11 11 11-4.935 11-11-4.935-11-11-11zm0 20c-4.962 0-9-4.037-9-9s4.038-9 9-9 9 4.037 9 9-4.038 9-9 9z"/><path d="m62.786 47.382c-1.406-1.789-2.953-3.423-4.614-4.903 1.869-3.908 2.828-8.1 2.828-12.479 0-15.991-13.009-29-29-29s-29 13.009-29 29c0 4.379.959 8.571 2.828 12.479-1.661 1.48-3.209 3.114-4.614 4.903l-.486.618.486.618c7.181 9.14 17.967 14.382 29.591 14.382h2.391c11.624 0 22.41-5.242 29.591-14.382l.485-.618zm-57.786-17.382c0-14.888 12.112-27 27-27s27 12.112 27 27c0 3.902-.815 7.644-2.408 11.145-.537-.428-1.084-.841-1.642-1.238 1.355-3.13 2.05-6.457 2.05-9.907 0-13.785-11.215-25-25-25s-25 11.215-25 25c0 3.45.695 6.777 2.05 9.907-.558.396-1.105.81-1.642 1.238-1.593-3.501-2.408-7.243-2.408-11.145zm16-3.224v7.521c-1.361.364-2.695.804-4 1.317v-6.656zm2-1.091.822-.448 3.178 3.177v4.786c-1.351.135-2.685.344-4 .619zm6 3.036 4-1.333v5.612h-2.195c-.605 0-1.205.023-1.805.051zm6-2 4-1.333v8.067c-1.317-.203-2.651-.341-4-.404zm6-2 2.268-.756 1.365 4.095 6.213-7.766-9.32-1.553 1.109 3.327-14.365 4.788-4.092-4.092-11.657 6.358.958 1.756 1.521-.83v6.419c-1.468.679-2.895 1.442-4.265 2.308-1.15-2.779-1.735-5.725-1.735-8.775 0-12.682 10.318-23 23-23s23 10.318 23 23c0 3.05-.585 5.996-1.735 8.775-3.746-2.367-7.893-4.039-12.265-4.956zm3.474-3.462 2.68.447-1.787 2.234zm-11.279 39.741h-2.391c-10.742 0-20.727-4.728-27.522-13 6.795-8.272 16.78-13 27.522-13h2.391c10.742 0 20.727 4.728 27.522 13-6.795 8.272-16.78 13-27.522 13z"/><path d="m23 15h12v2h-12z"/><path d="m33 19h2v2h-2z"/><path d="m29 19h2v2h-2z"/><path d="m23 19h4v2h-4z"/><path d="m23 11h12v2h-12z"/></g></g></svg>