<svg id="_x33_0" enable-background="new 0 0 64 64" height="512" viewBox="0 0 64 64" width="512" xmlns="http://www.w3.org/2000/svg"><g><g><path d="m27 13c-6.617 0-12 5.383-12 12 0 5.817 4.161 10.676 9.661 11.768.659-.478 1.463-.768 2.339-.768s1.68.29 2.339.768c5.5-1.092 9.661-5.951 9.661-11.768 0-6.617-5.383-12-12-12z" fill="#f0bc5e"/></g><g><path d="m54 7c1.654 0 3-1.346 3-3s-1.346-3-3-3-3 1.346-3 3 1.346 3 3 3zm0-4c.551 0 1 .448 1 1s-.449 1-1 1-1-.448-1-1 .449-1 1-1z"/><path d="m46 7c1.654 0 3-1.346 3-3s-1.346-3-3-3-3 1.346-3 3 1.346 3 3 3zm0-4c.551 0 1 .448 1 1s-.449 1-1 1-1-.448-1-1 .449-1 1-1z"/><path d="m49 41c-1.654 0-3 1.346-3 3s1.346 3 3 3 3-1.346 3-3-1.346-3-3-3zm0 4c-.551 0-1-.448-1-1s.449-1 1-1 1 .448 1 1-.449 1-1 1z"/><path d="m41 47c1.654 0 3-1.346 3-3s-1.346-3-3-3-3 1.346-3 3 1.346 3 3 3zm0-4c.551 0 1 .448 1 1s-.449 1-1 1-1-.448-1-1 .449-1 1-1z"/><path d="m59 3h4v2h-4z"/><path d="m35.919 17c.551.614 1.041 1.282 1.457 2h1.624v-8h-6v3.624c.718.417 1.386.906 2 1.457v-3.081h2v4z"/><path d="m31 11h-2v2.181c.689.116 1.356.291 2 .519z"/><path d="m22.293 21.293-3.707 3.707 3.707 3.707 1.414-1.414-2.293-2.293 2.293-2.293z"/><path d="m31.707 28.707 3.707-3.707-3.707-3.707-1.414 1.414 2.293 2.293-2.293 2.293z"/><path d="m20.675 24h12.649v2h-12.649z" transform="matrix(.316 -.949 .949 .316 -5.258 42.704)"/><circle cx="27" cy="40" r="1"/><path d="m10 19c-1.654 0-3 1.346-3 3s1.346 3 3 3 3-1.346 3-3-1.346-3-3-3zm0 4c-.551 0-1-.448-1-1s.449-1 1-1 1 .448 1 1-.449 1-1 1z"/><path d="m38.868 58.798c-1.301-3.468-4.664-5.798-8.368-5.798h-.5v-8h6v-2h-5.026c.635-.838 1.026-1.87 1.026-3 0-2.757-2.243-5-5-5s-5 2.243-5 5c0 .588.121 1.144.308 1.669l-1.877 2.252c-.572.685-1.411 1.079-2.305 1.079h-9.126c-2.206 0-4-1.794-4-4v-2h4c2.206 0 4-1.794 4-4h-2c0 1.103-.897 2-2 2h-4v-6.618l-2-1v-1.382c0-6.728 2.904-12.79 7.524-17h1.86c3.201 0 6.178 1.445 8.17 3.895.566-.362 1.158-.687 1.783-.952-2.241-2.935-5.635-4.723-9.332-4.907 3.7-2.543 8.176-4.036 12.995-4.036h15v-2h-15c-13.785 0-25 11.215-25 25v2.618l2 1v9.382c0 3.309 2.691 6 6 6h7v6.549c-4.275 1.074-8.02 3.691-10.534 7.451h-4.466v2h45v-2h-6.307zm-1.873.703.562 1.499h-14.114l.562-1.499c1.01-2.692 3.62-4.501 6.495-4.501s5.485 1.809 6.495 4.501zm-10.995-6.501v-8.101c.323.066.658.101 1 .101s.677-.035 1-.101v8.101zm1-16c1.654 0 3 1.346 3 3s-1.346 3-3 3-3-1.346-3-3 1.346-3 3-3zm-3 6.974v9.026h-2v-7.838l1.412-1.694c.18.186.381.35.588.506zm-6 3.026h.126c.652 0 1.285-.133 1.874-.371v6.385c-.674.016-1.342.063-2 .151zm2.434 8h4.484c-1.225.984-2.213 2.271-2.786 3.798l-.825 2.202h-13.37c3.023-3.785 7.569-6 12.497-6z"/><path d="m54 43h9v2h-9z"/><path d="m57 39h6v-8h-6zm2-6h2v4h-2z"/><path d="m53 31h2v8h-2z"/><path d="m51 31h-6v8h6zm-2 6h-2v-4h2z"/><path d="m47 21h-6v8h6zm-2 6h-2v-4h2z"/><path d="m41 31h2v8h-2z"/><path d="m57 19h6v-8h-6zm2-6h2v4h-2z"/><path d="m53 11h2v8h-2z"/><path d="m51 11h-6v8h6zm-2 6h-2v-4h2z"/><path d="m41 11h2v8h-2z"/><path d="m49 21h2v8h-2z"/><path d="m53 29h6v-8h-6zm2-6h2v4h-2z"/><path d="m61 21h2v8h-2z"/></g></g></svg>