<svg id="_x33_0" enable-background="new 0 0 64 64" height="512" viewBox="0 0 64 64" width="512" xmlns="http://www.w3.org/2000/svg"><g><g><g><path d="m16 35c-4.962 0-9-4.038-9-9s4.038-9 9-9 9 4.038 9 9-4.038 9-9 9zm0-13c-2.206 0-4 1.794-4 4s1.794 4 4 4 4-1.794 4-4-1.794-4-4-4z" fill="#f0bc5e"/></g></g><g><path d="m39 5h20v10h-20z" fill="#f0bc5e"/></g><g><circle cx="10" cy="56" r="1"/><path d="m60 1h-22c-1.654 0-3 1.346-3 3v12c0 1.654 1.346 3 3 3h4v1.586c0 1.331 1.083 2.414 2.414 2.414.645 0 1.251-.251 1.707-.707l3.293-3.293h10.586c1.654 0 3-1.346 3-3v-12c0-1.654-1.346-3-3-3zm1 15c0 .551-.449 1-1 1h-11.414l-3.879 3.879c-.239.238-.707.044-.707-.293v-3.586h-6c-.551 0-1-.449-1-1v-12c0-.551.449-1 1-1h22c.551 0 1 .449 1 1z"/><path d="m39 5h4v2h-4z"/><path d="m45 5h14v2h-14z"/><path d="m39 9h20v2h-20z"/><path d="m39 13h8v2h-8z"/><path d="m53 13h2v2h-2z"/><path d="m57 13h2v2h-2z"/><path d="m49 13h2v2h-2z"/><path d="m57.95 27.687-3.116 10.386-2.175-5.073h-4.226l-2.105 3.509-2.431-8.509-2.878 12.473-1.217-5.473h-5.415l-1.169-3.507c1.107-.68 1.782-1.874 1.782-3.191 0-.273-.03-.546-.089-.813l-1.024-4.609c-1.816-8.172-8.931-13.88-17.303-13.88-8.593 0-15.584 6.991-15.584 15.584 0 3.087.905 6.076 2.617 8.645l4.207 6.31c.769 1.153 1.176 2.496 1.176 3.883v5.78c-3.522.968-6 4.155-6 7.881v5.917h26v-1c0-4.59-2.398-8.623-6-10.937v-8.975l5.523.85c.267.041.536.062.806.062h.369c2.924 0 5.302-2.378 5.302-5.302 0-.234-.025-.467-.056-.698h3.254l2.784 12.527 3.122-13.526 1.569 5.49 3.893-6.491h1.774l3.825 8.927 2.884-9.614 1.23 3.687h3.721v-2h-2.279zm-42.95 1.129c-1.161-.414-2-1.514-2-2.816s.839-2.402 2-2.816zm2-5.632c1.161.414 2 1.514 2 2.816s-.839 2.402-2 2.816zm-1 25.816h-1v-7.635c.487-.44.903-.946 1.222-1.512.23.265.496.495.778.706v8.492c-.331-.026-.662-.051-1-.051zm-3 0h-2v-5.382l2-1zm2 12h-10v-3.917c0-2.978 2.093-5.503 5-6.067 2.907.564 5 3.09 5 6.067zm11.955 0h-9.955v-3.917c0-2.4-1.027-4.578-2.699-6.083h1.699c5.729 0 10.448 4.401 10.955 10zm-5.955-10.997c-.641-.268-1.312-.476-2-.64v-7.912c.081.017.156.046.239.059l1.761.271zm12-12.305c0 1.821-1.481 3.302-3.302 3.302h-.369c-.168 0-.336-.013-.502-.038l-9.284-1.429c-1.473-.226-2.543-1.473-2.543-2.965v-1.627c-.329.037-.662.059-1 .059s-.671-.022-1-.059v1.627.342c0 1.525-.847 2.896-2.211 3.577l-2.02 1.01c-.238-1.087-.654-2.129-1.28-3.068l-4.207-6.31c-1.493-2.238-2.282-4.844-2.282-7.535 0-6.953 5.254-12.695 12-13.484v10.001c-2.279.465-4 2.484-4 4.899 0 2.757 2.243 5 5 5s5-2.243 5-5c0-2.414-1.721-4.434-4-4.899v-10.083c7.244.186 13.354 5.182 14.934 12.295l1.024 4.609c.028.125.042.252.042.38 0 .667-.37 1.266-.966 1.563l-1.257.628 1.502 4.507h-5.279v2h5.916c.05.23.084.462.084.698z"/><path d="m45 55c5.514 0 10-4.486 10-10h-2c0 4.411-3.589 8-8 8s-8-3.589-8-8h-2c0 5.514 4.486 10 10 10z"/><path d="m61 47.018c-1.763.152-3.299 1.27-4 2.966-.695 1.665-.4 3.546.741 4.903l-2.854 2.854c-1.356-1.139-3.24-1.433-4.947-.723-1.657.686-2.77 2.221-2.922 3.982h-4.036c-.152-1.762-1.269-3.298-2.966-4-1.665-.696-3.546-.4-4.903.74l-2.854-2.854c1.141-1.357 1.435-3.241.723-4.945-.685-1.657-2.22-2.771-3.982-2.924v-2.017h-2v4h1.584c1.121 0 2.122.669 2.57 1.753.436 1.044.204 2.232-.59 3.026l-1.12 1.12 5.658 5.658 1.119-1.122c.794-.794 1.981-1.024 3.074-.57 1.036.429 1.705 1.43 1.705 2.551v1.584h8v-1.584c0-1.121.669-2.122 1.753-2.57 1.046-.436 2.233-.203 3.025.589l1.12 1.123 5.658-5.658-1.12-1.12c-.794-.794-1.026-1.982-.57-3.074.428-1.037 1.428-1.706 2.55-1.706h1.584v-4h-2z"/><path d="m27 23h2v2h-2z"/></g></g></svg>