<svg id="_x33_0" enable-background="new 0 0 64 64" height="512" viewBox="0 0 64 64" width="512" xmlns="http://www.w3.org/2000/svg"><g><g><g><path d="m20 1h-3.528c-3.001 0-5.713 1.594-7.172 4.188-3.784 1.433-6.3 5.051-6.3 9.125 0 1.247.235 2.467.698 3.625l1.675 4.189.806-.142c-.108-.311-.179-.638-.179-.985 0-1.657 1.343-3 3-3h1v-2c0-2.209 1.791-4 4-4h3c.912 1.214 2.364 2 4 2h3c0 1.481.804 2.773 2 3.465v.535h1c.812 0 1.546.326 2.086.849.821-.181 1.602-.548 2.237-1.114l1.445-2.366.114-.29c.079-.351.118-.715.118-1.079 0-7.168-5.832-13-13-13z" fill="#f0bc5e"/></g></g><g><path d="m40.02 17.659c-2.339-.819-4.02-3.04-4.02-5.659 0-.341.035-.674.09-1h-.252l-.154.051c-3.998 1.333-6.684 5.06-6.684 9.274v2.257c.45-.359 1.012-.582 1.632-.582h1.368l.12 1.076-.108-.972c-.008-.069-.012-.139-.012-.209 0-1.047.849-1.895 1.895-1.895h6.105v-2.341z" fill="#f0bc5e"/></g><g><path d="m40.02 17.659c-2.339-.819-4.02-3.04-4.02-5.659 0-.341.035-.674.09-1h-.252l-.154.051c-3.998 1.333-6.684 5.06-6.684 9.274v2.257c.45-.359 1.012-.582 1.632-.582h1.368l.12 1.076-.108-.972c-.008-.069-.012-.139-.012-.209 0-1.047.849-1.895 1.895-1.895h6.105v-2.341z" fill="#f0bc5e"/></g><g><g><path d="m40.02 17.659c-2.339-.819-4.02-3.04-4.02-5.659 0-.341.035-.674.09-1h-.252l-.154.051c-3.998 1.333-6.684 5.06-6.684 9.274v2.257c.45-.359 1.012-.582 1.632-.582h1.368l.12 1.076-.108-.972c-.008-.069-.012-.139-.012-.209 0-1.047.849-1.895 1.895-1.895h6.105v-2.341z" fill="#f0bc5e"/></g><g><path d="m48.316 11.051-.154-.051h-.252c.055.326.09.659.09 1 0 2.619-1.68 4.84-4.02 5.658h.02v2.342h6.105c1.047 0 1.895.848 1.895 1.895 0 .049-.004.097-.008.145l.008-.04h1.369c.62 0 1.182.223 1.631.582v-2.257c0-4.214-2.686-7.941-6.684-9.274z" fill="#f0bc5e"/></g></g><g><path d="m62.002 50.916-.24-.441c-2.698-4.946-7.075-8.658-12.29-10.536 1.036-.803 1.763-1.993 1.918-3.387l.426-3.836c2.009-.612 3.648-2.198 4.245-4.286l.799-2.801c.093-.324.14-.66.14-.998 0-2.002-1.629-3.631-3.632-3.631h-.524c-.38-1.157-1.457-2-2.738-2h-5.106v-.685c2.361-1.126 4-3.53 4-6.315 0-3.86-3.141-7-7-7s-7 3.14-7 7c0 2.785 1.639 5.189 4 6.315v.685h-5.104c-1.282 0-2.36.843-2.739 2h-.524c-.59 0-1.139.155-1.632.405v-.405c0 .148-.02.291-.051.432-.648.342-1.175.869-1.517 1.517-.142.032-.286.051-.433.051v-4c1.103 0 2 .897 2 2v-.675c0-.69.095-1.359.234-2.013.143-.678.337-1.339.615-1.963-.527.415-1.173.651-1.849.651-1.654 0-3-1.346-3-3v-3h-2v2h-2c-2.206 0-4-1.794-4-4h-2c0 .702.128 1.373.35 2h-1.35c-2.757 0-5 2.243-5 5v1c-2.206 0-4 1.794-4 4s1.794 4 4 4h.08c.366 2.538 2.093 4.636 4.419 5.53l-.253.651c-7.234 2.051-12.246 8.624-12.246 16.188v11.631h21.158c1.427 2.391 4.033 4 7.014 4h5.828c1.312 0 2.468-.643 3.198-1.622 1.155.307 2.247.786 3.248 1.454l.554.37.555-.37c1-.667 2.093-1.147 3.248-1.454.729.979 1.885 1.622 3.197 1.622h5.829c4.506 0 8.171-3.665 8.171-8.171 0-1.364-.345-2.718-.998-3.913zm-55.002-29.916c0-1.103.897-2 2-2v4c-1.103 0-2-.897-2-2zm48 37.103 2.686 2.186c-.807.424-1.719.671-2.686.697zm-13-11.285c-1.997-1.191-4.268-1.818-6.607-1.818h-2.393v10h-2v-11.106c1.878-1.209 3.955-2.119 6.167-2.678.547 2.168 2.498 3.784 4.833 3.784s4.286-1.616 4.833-3.784c2.211.559 4.289 1.469 6.167 2.678v11.106h-2v-10h-2.395c-2.336 0-4.607.627-6.605 1.818zm-13 14.169c-.967-.027-1.879-.273-2.686-.697l2.686-2.187zm-11-16.627-1.222-1.588.993-3.772h.458l.993 3.772zm-4.096-11.29 2.019 1.01-2.221 1.332-.431-2.155c.208-.067.42-.128.633-.187zm8.184.004c.216.059.426.133.638.201l-.427 2.137-2.221-1.332zm-3.809 3.926h-.559l-.463-1.388.743-.446.742.445zm-2.778-.334.456 1.368-.719 2.735-2.076-2.699zm-3.647-.296-1.424-1.852c.31-.179.629-.345.954-.501zm8.908 4.399-.719-2.735.456-1.368 2.34 1.404zm3.852-6.739c.322.156.637.323.946.502l-1.414 1.838zm-1.863-2.856-.251-.644c2.326-.894 4.054-2.992 4.419-5.53h.081c.009 0 .017-.002.025-.002.022.213.055.425.114.631l.801 2.802c.591 2.066 2.217 3.681 4.245 4.295l.425 3.826c.155 1.393.882 2.584 1.918 3.387-.358.129-.711.267-1.06.413-2.051-4.47-5.972-7.832-10.717-9.178zm14.829 7.826c-.743 0-1.424-.274-1.951-.727l.863-2.59c.137-.409.519-.683.949-.683h9.117c.431 0 .813.274.949.684l.863 2.59c-.526.452-1.207.726-1.95.726zm7.236 2c-.414 1.161-1.514 2-2.816 2s-2.402-.839-2.816-2zm10.184-16.369c0 .151-.021.302-.063.449l-.8 2.801c-.322 1.126-1.088 2.04-2.071 2.581l.829-7.462h.473c.9 0 1.632.732 1.632 1.631zm-14-12.631c0-.551.448-1 1-1s1 .449 1 1-.448 1-1 1-1-.449-1-1zm-4 0c0-2.757 2.243-5 5-5s5 2.243 5 5c0 2.414-1.721 4.434-4 4.899v-2.083c1.161-.414 2-1.514 2-2.816 0-1.654-1.346-3-3-3s-3 1.346-3 3c0 1.302.839 2.402 2 2.816v2.083c-2.279-.465-4-2.485-4-4.899zm5 7c.34 0 .672-.033 1-.08v1.08c0 .551-.448 1-1 1s-1-.449-1-1v-1.08c.328.047.66.08 1 .08zm-8.104 2h5.289c.414 1.161 1.514 2 2.816 2s2.402-.839 2.816-2h5.29c.493 0 .895.401.889.994l-1.485 13.37-.104-.313c-.412-1.227-1.555-2.051-2.848-2.051h-9.117c-1.293 0-2.437.824-2.846 2.051l-.104.313-1.492-13.469c0-.494.401-.895.896-.895zm-3.264 2h.473l.829 7.459c-.987-.546-1.751-1.463-2.07-2.577l-.801-2.803c-.042-.145-.063-.296-.063-.448 0-.899.732-1.631 1.632-1.631zm-19.632 1v-8c0-1.654 1.346-3 3-3h2.54c1.099 1.224 2.688 2 4.46 2h2.101c.247 1.213.946 2.253 1.899 2.974v6.026c0 2.757-2.243 5-5 5h-4c-2.757 0-5-2.243-5-5zm5 7h4c.178 0 .353-.014.527-.027l.21.54-2.737 1.369-2.737-1.369.21-.54c.174.013.349.027.527.027zm-13 16.369c0-4.716 2.21-8.998 5.759-11.742l8.241 10.713v10.66h-8v-12h-2v12h-4zm16 9.631v-10.66l8.222-10.688c1.882 1.457 3.402 3.354 4.412 5.561-3.933 2.07-7.214 5.262-9.395 9.261l-.241.441c-.653 1.196-.998 2.55-.998 3.914 0 .753.111 1.478.302 2.171zm4-2.171c0-1.03.261-2.052.754-2.955l.241-.442c1.286-2.358 2.991-4.41 5.005-6.077v9.645h-5.998c-.001-.057-.002-.114-.002-.171zm.395 2.171h3.793l-2.504 2.038c-.551-.587-1-1.271-1.289-2.038zm11.605 4h-4v-4h4c1.103 0 2 .897 2 2s-.897 2-2 2zm0-6v-8h.393c1.988 0 3.913.541 5.607 1.558v11.723c-.659-.318-1.344-.579-2.051-.78.021-.166.051-.33.051-.501 0-2.206-1.794-4-4-4zm8 5.281v-11.723c1.695-1.017 3.62-1.558 5.605-1.558h.395v8c-2.206 0-4 1.794-4 4 0 .171.03.335.051.501-.707.201-1.392.462-2.051.78zm4-1.281c0-1.103.897-2 2-2h4v4h-4c-1.103 0-2-.897-2-2zm12.316.038-2.504-2.038h3.793c-.289.767-.738 1.451-1.289 2.038zm1.682-4.038h-5.998v-9.645c2.014 1.667 3.719 3.719 5.006 6.077l.24.442c.493.903.754 1.925.754 2.955 0 .057-.001.114-.002.171z"/><circle cx="14" cy="18" r="1"/><circle cx="22" cy="18" r="1"/><path d="m23 22v-1h-10v1c0 2.757 2.243 5 5 5s5-2.243 5-5zm-7.829 1h5.658c-.413 1.164-1.525 2-2.829 2s-2.416-.836-2.829-2z"/><path d="m38 31c1.654 0 3-1.346 3-3s-1.346-3-3-3-3 1.346-3 3 1.346 3 3 3zm0-4c.552 0 1 .449 1 1s-.448 1-1 1-1-.449-1-1 .448-1 1-1z"/><path d="m46 31c1.654 0 3-1.346 3-3s-1.346-3-3-3-3 1.346-3 3 1.346 3 3 3zm0-4c.552 0 1 .449 1 1s-.448 1-1 1-1-.449-1-1 .448-1 1-1z"/></g></g></svg>