<svg id="_x33_0" enable-background="new 0 0 64 64" height="512" viewBox="0 0 64 64" width="512" xmlns="http://www.w3.org/2000/svg"><g><g><g><path d="m42 63c-1.654 0-3-1.346-3-3s1.346-3 3-3 3 1.346 3 3-1.346 3-3 3z" fill="#f0bc5e"/></g></g><g><g><path d="m24 57c-1.654 0-3-1.346-3-3s1.346-3 3-3 3 1.346 3 3-1.346 3-3 3z" fill="#f0bc5e"/></g></g><g><g><path d="m36 23c-3.859 0-7-3.141-7-7s3.141-7 7-7 7 3.141 7 7-3.141 7-7 7zm0-9c-1.103 0-2 .897-2 2s.897 2 2 2 2-.897 2-2-.897-2-2-2z" fill="#f0bc5e"/></g></g><g><g><path d="m56 19c-3.859 0-7-3.141-7-7s3.141-7 7-7 7 3.141 7 7-3.141 7-7 7zm0-9c-1.103 0-2 .897-2 2s.897 2 2 2 2-.897 2-2-.897-2-2-2z" fill="#f0bc5e"/></g></g><g><path d="m1 34v4 1 3h10v-3h2 2 2v-5z" fill="#f0bc5e"/></g><g><circle cx="26" cy="16" r="1"/><path d="m32 59c-16.322 0-26.963-1.701-28.825-2.992.75-.479 3.239-1.313 8.935-1.994 1.925.22 4.175.421 6.826.591l.129-1.996c-11.027-.71-15.022-2.026-15.932-2.645.906-.803 4.937-2.322 11.959-2.968l-.184-1.992c-5.166.475-13.908 2.061-13.908 4.996 0 .611.007 1.877 4.873 3.007-4.867 1.115-4.873 2.328-4.873 2.993 0 1.252 1.147 2.686 9.654 3.819 5.709.762 13.29 1.181 21.346 1.181 1.711 0 3.39-.019 5.022-.056l-.045-2c-1.619.037-3.282.056-4.977.056z"/><path d="m32 55c1.017 0 2.022-.007 3.013-.02l-.025-2c-1.965.025-4.01.025-5.975 0l-.025 2c.99.013 1.995.02 3.012.02z"/><path d="m46.923 52.468c-3.083.238-6.429.398-9.945.477l.045 2c3.552-.079 6.935-.242 10.055-.482z"/><path d="m63 50c0-2.542-6.003-3.694-7.843-3.987l-.314 1.975c3.598.573 5.472 1.489 6.027 1.978-.817.571-4.041 1.608-11.962 2.335l.184 1.992c.988-.091 1.899-.186 2.752-.284 5.692.678 8.197 1.509 8.967 1.991-.938.581-4.523 1.747-13.888 2.469l.154 1.994c15.923-1.229 15.923-3.578 15.923-4.463 0-.667-.006-1.883-4.901-2.999 4.894-1.123 4.901-2.364 4.901-3.001z"/><path d="m17 49h2v2h-2z"/><path d="m23 45h2v4h-2z"/><path d="m23 41h2v2h-2z"/><path d="m45 45h2v4h-2z"/><path d="m45 41h2v2h-2z"/><path d="m29 49h2v2h-2z"/><path d="m29 39h2v8h-2z"/><path d="m39 49h2v2h-2z"/><path d="m39 39h2v8h-2z"/><path d="m33 41h2v10h-2z"/><path d="m33 37h2v2h-2z"/><path d="m36 19c1.654 0 3-1.346 3-3s-1.346-3-3-3-3 1.346-3 3 1.346 3 3 3zm0-4c.552 0 1 .448 1 1s-.448 1-1 1-1-.448-1-1 .448-1 1-1z"/><path d="m56 15c1.654 0 3-1.346 3-3s-1.346-3-3-3-3 1.346-3 3 1.346 3 3 3zm0-4c.552 0 1 .448 1 1s-.448 1-1 1-1-.448-1-1 .448-1 1-1z"/><path d="m61 25v8h-2v-6h-2v6h-2v-8h-2v8h-2v-4h-2v6h14v-10z"/><path d="m8 31c3.859 0 7-3.141 7-7 0-3.519-2.614-6.432-6-6.92v-2.284l10.42-2.405c-.024.221-.058.438-.071.662l-.386 6.547 2.037 1.018v6.382c0 2.206 1.794 4 4 4h4v2.124c-6.794 1.005-12 6.928-12 13.876h2c0-6.214 4.851-11.484 11-12l9.917-.004c6.215.519 11.083 5.81 11.083 12.046v1.958h2v-1.958c0-6.933-5.166-12.851-12-13.911v-4.761l2.421-2.824c.675-.788 1.25-1.646 1.742-2.546h9.656l.804-4.019c-.685-.037-1.342-.171-1.961-.391l-.481 2.41h-7.096c.6-1.631.915-3.367.915-5.131 0-8.199-6.67-14.869-14.869-14.869-5.794 0-10.732 3.884-12.286 9.24l-12.845 2.964v3.876c-3.386.488-6 3.401-6 6.92 0 3.859 3.141 7 7 7zm21-27.535c.993-.301 2.044-.465 3.131-.465.472 0 .937.029 1.396.079l-1.722 4.592c-.871-.408-1.824-.639-2.805-.662zm-2 .841v2.694h-3.243c.894-1.098 1.993-2.016 3.243-2.694zm-5.655 8.864c.088-1.496.485-2.903 1.117-4.17h6.38c1.198 0 2.349.435 3.246 1.198.585-.396 1.234-.702 1.926-.907-.159-.171-.324-.334-.497-.488l2-5.336c1.663.455 3.19 1.231 4.513 2.265l-2.941 3.362c.735.116 1.431.343 2.072.669l2.346-2.681c1.238 1.321 2.201 2.898 2.798 4.648l-2.097 1.048c.308.591.535 1.23.664 1.904l1.933-.966c.119.702.195 1.418.195 2.153 0 3.07-1.101 6.045-3.098 8.376l-2.139 2.495c-1.441-.822-2.41-2.224-2.679-3.833-.354.056-.714.093-1.084.093-.318 0-.629-.029-.936-.07.299 2.416 1.746 4.526 3.936 5.677v4.393h-8v-2.016c1.663-.084 3.142-1.034 3.895-2.536l-1.789-.895c-.447.892-1.344 1.447-2.342 1.447h-5.764c-1.103 0-2-.897-2-2h2c2.206 0 4-1.794 4-4h-2c0 1.103-.897 2-2 2h-2v-5.618l-1.963-.982zm-16.098 14.997 2.753-2.753 2.753 2.753c-.791.524-1.736.833-2.753.833s-1.962-.309-2.753-.833zm7.753-4.167c0 1.017-.309 1.962-.833 2.753l-3.167-3.167v-4.485c2.279.465 4 2.485 4 4.899zm-6-4.899v4.485l-3.167 3.167c-.524-.791-.833-1.736-.833-2.753 0-2.414 1.721-4.434 4-4.899z"/><path d="m1 33h16v2h-16z"/><path d="m1 37h12v2h-12z"/><path d="m15 37h2v2h-2z"/><path d="m1 41h10v2h-10z"/></g></g></svg>