<svg id="_x33_0" enable-background="new 0 0 64 64" height="512" viewBox="0 0 64 64" width="512" xmlns="http://www.w3.org/2000/svg"><g><g><path d="m59.768 49.354c-.496-.496-.768-1.154-.768-1.854s.272-1.358.768-1.854l.688-.688c1.64-1.64 2.544-3.822 2.544-6.143 0-1.341-.317-2.685-.917-3.886l-.555-1.108c-.345-.692-.528-1.466-.528-2.238v-7.586c0-6.065-4.935-11-11-11h-5c-3.309 0-6 2.691-6 6 0 1.805.785 3.47 2.165 4.614l.835 2.172c0-.401 0-.786 0-1.133 0-.708.702-1.154 1.371-.924.511.176 1.059.271 1.629.271h1c1.105 0 2-.895 2-2 2.209 0 4 1.791 4 4v4.394c0 2.351.696 4.649 2 6.606l-.625.209.626-.209.001.001c2.517 1.888 3.999 4.846 3.999 8.95v5.686c0 1.832-.785 3.47-2.023 4.631l.023.006c.018 1.862.327 3.711.916 5.479l.083.25h-1.072l.385 1h4.222l.892-1.337c1.029-1.545 1.573-3.342 1.573-5.197 0-2.502-.975-4.855-2.744-6.625z" fill="#f0bc5e"/></g><g><g><path d="m12 37c-2.757 0-5-2.243-5-5s2.243-5 5-5 5 2.243 5 5-2.243 5-5 5z" fill="#f0bc5e"/></g></g><g><g><path d="m12 37c-2.757 0-5-2.243-5-5s2.243-5 5-5 5 2.243 5 5-2.243 5-5 5z" fill="#f0bc5e"/></g></g><g><circle cx="20" cy="28" r="1"/><path d="m60 1h-56c-1.654 0-3 1.346-3 3v10c0 1.654 1.346 3 3 3h.798c-2.345 2.396-3.798 5.671-3.798 9.281 0 2.631.771 5.178 2.23 7.368l2.258 3.387c.989 1.483 1.512 3.209 1.512 4.992v1.322c-2.327.826-4 3.043-4 5.65 0 1.771.776 3.36 2 4.46v9.54h16v-.024c2.335-.121 4.516-1.077 6.182-2.744l4.696-4.696c.724-.723 1.122-1.685 1.122-2.707 0-2.112-1.717-3.829-3.829-3.829-1.022 0-1.984.398-2.707 1.122l-4.111 4.111c-.373.373-.85.605-1.354.697v-2.253c0-3.085-1.566-5.848-4-7.477v-3.476l1.53.219c.266.038.534.057.803.057 3.125 0 5.668-2.543 5.668-5.668v-1.713l2.099-1.05-2.105-13.681c-.017-1.033-.26-2.009-.679-2.887h5.271l3.293 3.293c.456.455 1.062.706 1.707.706 1.331 0 2.414-1.083 2.414-2.414v-1.586h2.349c.264-.746.671-1.422 1.189-2h-5.538v3.586c0 .337-.469.532-.707.293l-3.879-3.879h-7.524c-1.263-1.235-2.988-2-4.89-2h-3.719c-2.56 0-4.944.74-6.974 2h-3.307c-.551 0-1-.449-1-1v-10c0-.551.449-1 1-1h56c.551 0 1 .449 1 1v10c0 .551-.449 1-1 1h-3.692c.809.569 1.544 1.239 2.173 2h1.519c1.654 0 3-1.346 3-3v-10c0-1.654-1.346-3-3-3zm-51.009 40.783 2.009-.502v2.066l-.015-.003c-.622-.219-1.289-.344-1.985-.344v-.972c0-.082-.007-.163-.009-.245zm7.853 18.254 2.195-3.293c.467.156.954.256 1.461.256s.994-.1 1.461-.256l2.195 3.293c-1.104.625-2.353.963-3.656.963s-2.552-.338-3.656-.963zm-1.599-1.207c-.004-.004-.009-.008-.013-.012l-4.185-4.185c1.191-.434 2.209-1.229 2.912-2.26l3.274 3.274c.027.027.06.045.087.072zm-6.245-13.83c2.206 0 4 1.794 4 4s-1.794 4-4 4-4-1.794-4-4 1.794-4 4-4zm-2 16v-6.35c.495.176 1.019.289 1.564.328l5.254 5.254c.278.278.575.53.88.768zm20.878-9.464c.346-.346.805-.536 1.293-.536 1.009 0 1.829.82 1.829 1.829 0 .488-.19.947-.536 1.293l-4.696 4.696c-.004.004-.009.008-.013.012l-2.074-3.112c.027-.026.06-.045.087-.072zm-8.878 1.141v1.841c-.124-.085-.245-.176-.354-.285l-3.821-3.821c.11-.454.175-.925.175-1.412 0-1.07-.285-2.073-.777-2.944 2.815.944 4.777 3.577 4.777 6.621zm-4-8.481c-.448-.158-.91-.287-1.39-.375l-.61-.11v-2.558l2 .286zm3-29.196c2.757 0 5 2.243 5 5 0 1.654-1.346 3-3 3h-9c-1.103 0-2-.897-2-2h-2c0 2.206 1.794 4 4 4h.25c-.153.451-.25.923-.25 1.414v.687c.323-.066.658-.101 1-.101s.677.035 1 .101v-.687c0-.508.171-1.004.467-1.414h6.533c1.378 0 2.627-.56 3.532-1.465l1.369 8.896-1.901.951v2.618h-2c-1.103 0-2-.897-2-2h-2c0 2.206 1.794 4 4 4h1.58c-.61 1.182-1.829 2-3.248 2-.173 0-.347-.012-.519-.037l-5.813-.83v-2.234c-.323.066-.658.101-1 .101s-.677-.035-1-.101v2.32l-2.236.559c-.285-1.367-.826-2.673-1.611-3.852l-2.258-3.386c-1.24-1.86-1.895-4.024-1.895-6.259 0-6.22 5.061-11.281 11.281-11.281z"/><circle cx="46" cy="27" r="1"/><path d="m29 8c0 1.654 1.346 3 3 3s3-1.346 3-3-1.346-3-3-3-3 1.346-3 3zm4 0c0 .551-.449 1-1 1s-1-.449-1-1 .449-1 1-1 1 .449 1 1z"/><path d="m19 8c0 1.654 1.346 3 3 3s3-1.346 3-3-1.346-3-3-3-3 1.346-3 3zm4 0c0 .551-.449 1-1 1s-1-.449-1-1 .449-1 1-1 1 .449 1 1z"/><path d="m9 8c0 1.654 1.346 3 3 3s3-1.346 3-3-1.346-3-3-3-3 1.346-3 3zm4 0c0 .551-.449 1-1 1s-1-.449-1-1 .449-1 1-1 1 .449 1 1z"/><path d="m55 8c0-1.654-1.346-3-3-3s-3 1.346-3 3 1.346 3 3 3 3-1.346 3-3zm-4 0c0-.551.449-1 1-1s1 .449 1 1-.449 1-1 1-1-.449-1-1z"/><path d="m45 8c0-1.654-1.346-3-3-3s-3 1.346-3 3 1.346 3 3 3 3-1.346 3-3zm-4 0c0-.551.449-1 1-1s1 .449 1 1-.449 1-1 1-1-.449-1-1z"/><path d="m54.77 36.341c-1.156-1.775-1.77-3.829-1.77-5.95v-4.394c0-2.468-1.802-4.512-4.158-4.915-.389-1.205-1.509-2.085-2.842-2.085h-1v2h1c.551 0 1 .449 1 1s-.449 1-1 1h-1c-.446 0-.885-.073-1.303-.217-.636-.22-1.335-.121-1.872.261-.524.375-.825.961-.825 1.609v6.35c0 3.521 2.612 6.442 6 6.929v.742c-1.199 1.559-2.15 3.262-2.821 5.095l-2.642-2.642c-.724-.724-1.685-1.122-2.708-1.122-2.112 0-3.83 1.718-3.83 3.831 0 1.023.398 1.985 1.122 2.708l6.879 6.878v9.581h15.387l-.521-1.565c-.517-1.55-.794-3.16-.846-4.79 1.225-1.316 1.981-3.074 1.981-5.01v-5.686c0-4.133-1.468-7.445-4.231-9.608zm-10.744-2.341h.974c2.206 0 4-1.794 4-4h-2c0 1.103-.897 2-2 2h-1.899c-.066-.323-.101-.658-.101-1l.046-6.328c.628.216 1.286.326 1.954.326h1c1.259 0 2.336-.782 2.78-1.884 1.275.346 2.22 1.501 2.22 2.884v4.394c0 2.124.525 4.189 1.513 6.048l-3.513 1.17v-1.61h-1c-1.627 0-3.061-.793-3.974-2zm-7.027 9.832c0-1.009.821-1.831 1.83-1.831.489 0 .948.19 1.294.536l12.17 12.17 1.414-1.414-.707-.707v-3.586h4.001v2.635c0 2.959-2.407 5.366-5.366 5.367h-.001c-1.434 0-2.781-.558-3.795-1.572l-10.304-10.305c-.346-.345-.536-.805-.536-1.293zm8.001 17.168v-5.581l1.425 1.425c1.391 1.392 3.241 2.158 5.209 2.158h.002c1.259 0 2.444-.319 3.482-.878.104.971.275 1.933.529 2.877h-10.647zm12.001-14h-4.001v-4h-2v7.586l-5.242-5.242c.61-1.995 1.564-3.838 2.842-5.493l5.204-1.733c2.122 1.791 3.197 4.422 3.197 7.831z"/></g></g></svg>