<svg id="_x33_0" enable-background="new 0 0 62 62" height="512" viewBox="0 0 62 62" width="512" xmlns="http://www.w3.org/2000/svg"><g><g><path d="m43.973 14h-1c-.794 0-1.505-.474-1.81-1.208-.305-.735-.139-1.574.443-2.156l.707-.707-3.535-3.535-.726-.688-.707.707c-.563.562-1.402.729-2.137.425-.734-.306-1.208-1.017-1.208-1.838v-1h-5l-1 .033v1c0 .791-.472 1.498-1.202 1.801-.737.308-1.582.14-2.15-.428l-.707-.731-3.548 3.547-.688.726.707.708c.563.563.729 1.402.425 2.137-.305.733-1.016 1.207-1.837 1.207h-1v5l.027 1h1c.794 0 1.505.474 1.81 1.208.305.735.139 1.574-.434 2.146l-.726.707 3.545 3.545.726.688.707-.707c.562-.563 1.4-.729 2.137-.425.734.306 1.208 1.017 1.208 1.838v1h5l1-.024v-1c0-.796.475-1.508 1.211-1.813.733-.304 1.571-.139 2.162.452l.707.691 3.527-3.528.688-.726-.707-.707c-.563-.563-.729-1.402-.425-2.137.305-.734 1.016-1.208 1.81-1.208h1.027v-5zm-12.973 9c-3.31 0-6-2.69-6-6s2.69-6 6-6 6 2.69 6 6-2.69 6-6 6z" fill="#f0bc5e"/></g><g><path d="m28 32h-2c0 1.103-.897 2-2 2s-2-.897-2-2h-2c0 2.206 1.794 4 4 4s4-1.794 4-4z"/><path d="m38 34c-1.103 0-2-.897-2-2h-2c0 2.206 1.794 4 4 4s4-1.794 4-4h-2c0 1.103-.897 2-2 2z"/><path d="m22 39c0 4.962 4.038 9 9 9s9-4.038 9-9v-1h-18zm15.929 1c-.487 3.388-3.408 6-6.929 6s-6.442-2.612-6.929-6z"/><path d="m31 20c1.654 0 3-1.346 3-3s-1.346-3-3-3-3 1.346-3 3 1.346 3 3 3zm0-4c.551 0 1 .449 1 1s-.449 1-1 1-1-.449-1-1 .449-1 1-1z"/><path d="m2 12h2v2h-2z"/><path d="m4 46h2v16h-2z"/><path d="m8.293 41.707 1.414-1.414-4.707-4.707-4.707 4.707 1.414 1.414 2.293-2.293v4.586h2v-4.586z"/><path d="m16.293 53.707 1.414-1.414-4.707-4.707-4.707 4.707 1.414 1.414 2.293-2.293v10.586h2v-10.586z"/><path d="m62 2h-6v4h-11c-.07 0-.138.012-.208.014-1.822-3.564-5.522-6.014-9.792-6.014-1.642 0-3.088.807-4 2.033-.912-1.226-2.358-2.033-4-2.033-4.27 0-7.97 2.45-9.792 6.014-.07-.002-.138-.014-.208-.014h-11v-4h-6v2h4v4h8.11c-1.074 1.051-1.806 2.443-2.031 4h-4.079v2h4.079c.06.42.154.833.29 1.235-.918.701-1.626 1.657-2.019 2.765h-4.35v4h-4v2h6v-4h2c0 3.309 2.691 6 6 6v2h-1c-2.757 0-5 2.243-5 5s2.243 5 5 5h1v3c0 4.81 3.108 8.899 7.418 10.389-3.297 1.996-5.418 5.593-5.418 9.611v1h30v-1c0-4.018-2.121-7.615-5.418-9.611 4.31-1.49 7.418-5.579 7.418-10.389v-3h1c2.757 0 5-2.243 5-5s-2.243-5-5-5h-1v-2c3.309 0 6-2.691 6-6h2v4h6v-2h-4v-4h-4.35c-.393-1.108-1.101-2.064-2.018-2.765.136-.402.23-.814.29-1.235h4.078v-2h-4.08c-.224-1.557-.956-2.949-2.031-4h8.111v-4h4zm-49 34c-1.654 0-3-1.346-3-3s1.346-3 3-3h1v2.132l-1.445-.964-1.109 1.664 2.554 1.703v1.465zm30.946 24h-3.946v-2h-2v2h-14v-2h-2v2h-3.946c.392-3.638 2.911-6.692 6.43-7.797l2.242 4.484 4.274-4.273 4.274 4.274 2.242-4.484c3.519 1.104 6.039 4.158 6.43 7.796zm-17.328-8h1.968l-1.312 1.312zm6.796 0h1.968l-.656 1.312zm15.586-22c1.654 0 3 1.346 3 3s-1.346 3-3 3h-1v-1.465l2.555-1.703-1.109-1.664-1.446.964v-2.132zm1-17c0 .441-.062.87-.173 1.286-.577-.184-1.19-.286-1.827-.286h-2v2h2c0 1.103-.897 2-2 2v2c2.025 0 3.685-1.518 3.947-3.473 1.218.687 2.053 1.978 2.053 3.473 0 2.206-1.794 4-4 4h-5.758l.052.052-.688.726-1.221 1.222h5.615v15c0 4.962-4.038 9-9 9h-12c-4.962 0-9-4.038-9-9v-15h5.616l-1.938-1.938.062-.062h-5.74c-2.206 0-4-1.794-4-4 0-1.495.835-2.786 2.053-3.473.262 1.955 1.922 3.473 3.947 3.473v-2c-1.103 0-2-.897-2-2h2v-2h-2c-.637 0-1.25.102-1.827.286-.111-.416-.173-.845-.173-1.286 0-2.555 1.934-4.645 4.411-4.94-.261.937-.411 1.92-.411 2.94v1h2v-1c0-4.962 4.038-9 9-9 1.302 0 2.402.839 2.816 2h.285 1.798.285c.414-1.161 1.514-2 2.816-2 4.962 0 9 4.038 9 9v1h2v-1c0-1.02-.15-2.003-.411-2.94 2.477.295 4.411 2.385 4.411 4.94z"/><path d="m31 24c3.86 0 7-3.14 7-7s-3.14-7-7-7-7 3.14-7 7 3.14 7 7 7zm0-12c2.757 0 5 2.243 5 5s-2.243 5-5 5-5-2.243-5-5 2.243-5 5-5z"/><path d="m58 12h2v2h-2z"/><path d="m56 46h2v16h-2z"/><path d="m52.293 40.293 1.414 1.414 2.293-2.293v4.586h2v-4.586l2.293 2.293 1.414-1.414-4.707-4.707z"/><path d="m44.293 52.293 1.414 1.414 2.293-2.293v10.586h2v-10.586l2.293 2.293 1.414-1.414-4.707-4.707z"/></g></g></svg>