<svg id="_x33_0" enable-background="new 0 0 62 62.002" height="512" viewBox="0 0 62 62.002" width="512" xmlns="http://www.w3.org/2000/svg"><g><g><path d="m23 36.227c-.394-.718-.896-1.367-1.481-1.932-.678-.422-1.326-.886-1.941-1.391-1.112-.572-2.368-.901-3.702-.901h-7.753c-4.479-.001-8.123 3.644-8.123 8.123 0 .665.082 1.328.243 1.97l.73 2.92h.207c.41-1.169 1.511-2.013 2.82-2.013h1c0-2.209 1.791-4 4-4 0 1.105.895 2 2 2h6c1.105 0 2 .895 2 2h1c1.309 0 2.411.844 2.82 2.013h.18z" fill="#f0bc5e"/></g><g><path d="m60 32.002h-13.877c-1.321 0-2.565.324-3.668.885-.632.522-1.302.999-2.002 1.432-.463.452-.867.961-1.212 1.511l-.146 9.185h.085c.41-1.169 1.511-2.013 2.82-2.013h1c0-2.209 1.791-4 4-4 0 1.105.895 2 2 2h6c1.105 0 2 .895 2 2h1c1.309 0 2.411.844 2.82 2.013h.207l.73-2.919c.161-.643.243-1.306.243-1.97v-6.123c0-1.104-.897-2.001-2-2.001z" fill="#f0bc5e"/></g><g><path d="m30 56.002h2v2h-2z"/><path d="m62 17.002c0-1.654-1.346-3-3-3h-2.586l4.672-4.672c.589-.589.914-1.372.914-2.206 0-1.721-1.4-3.121-3.121-3.121-.834 0-1.618.325-2.207.914l-5.379 5.379 1.414 1.414 5.379-5.379c.212-.211.493-.328.793-.328.618-.001 1.121.502 1.121 1.121 0 .3-.117.581-.328.793l-4.672 4.671c-.574.574-.744 1.429-.434 2.179s1.036 1.235 1.848 1.235h2.586c.551 0 1 .449 1 1s-.449 1-1 1h-2.586c-.812 0-1.537.485-1.848 1.235s-.14 1.606.434 2.18l4.672 4.672c.211.211.328.493.328.792 0 .618-.503 1.121-1.121 1.121-.3 0-.581-.117-.793-.328l-5.379-5.379-1.414 1.414 5.379 5.379c.589.589 1.373.914 2.207.914 1.721 0 3.121-1.4 3.121-3.121 0-.834-.325-1.618-.914-2.207l-4.672-4.672h2.586c1.654 0 3-1.345 3-3z"/><path d="m0 26.881c0 1.721 1.4 3.121 3.121 3.121.834 0 1.618-.325 2.207-.914l5.379-5.379-1.414-1.414-5.379 5.379c-.212.211-.493.328-.793.328-.618 0-1.121-.502-1.121-1.121 0-.3.117-.581.328-.793l4.672-4.671c.574-.574.744-1.429.434-2.179s-1.036-1.235-1.848-1.235h-2.586c-.551 0-1-.449-1-1s.449-1 1-1h2.586c.812 0 1.537-.485 1.848-1.235s.14-1.606-.434-2.18l-4.672-4.671c-.211-.212-.328-.494-.328-.793 0-.618.503-1.121 1.121-1.121.3 0 .581.117.793.328l5.379 5.379 1.414-1.414-5.379-5.379c-.589-.59-1.373-.915-2.207-.915-1.721 0-3.121 1.4-3.121 3.122 0 .834.325 1.618.914 2.207l4.672 4.672h-2.586c-1.654 0-3 1.346-3 3s1.346 3 3 3h2.586l-4.672 4.672c-.589.589-.914 1.372-.914 2.206z"/><path d="m58 42.002h-.184c-.414-1.161-1.514-2-2.816-2h-6c-.551 0-1-.449-1-1v-3h-2v2.101c-1.955.398-3.491 1.945-3.89 3.899h-.11c-.677 0-1.305.185-1.865.483l.109-6.879c6.379-3.558 10.177-10.488 9.717-17.826-.568-9.071-7.792-16.663-16.802-17.658-5.49-.607-10.754 1.071-14.831 4.723-4.021 3.602-6.328 8.762-6.328 14.157 0 7.057 3.815 13.414 10 16.737v6.819c-.591-.345-1.268-.556-2-.556h-.184c-.414-1.161-1.514-2-2.816-2h-6c-.551 0-1-.449-1-1v-3h-2v2.101c-1.955.398-3.491 1.945-3.89 3.899h-.11c-2.206 0-4 1.794-4 4s1.794 4 4 4h.101c.34 1.667 1.515 3.026 3.065 3.641-1.919 1.463-3.166 3.766-3.166 6.359v2h54v-2c0-2.594-1.247-4.897-3.166-6.359 1.55-.615 2.725-1.974 3.065-3.641h.101c2.206 0 4-1.794 4-4s-1.794-4-4-4zm-56 4c0-1.103.897-2 2-2v4c-1.103 0-2-.896-2-2zm43.166 7.641c-.856.652-1.577 1.47-2.114 2.409-.828-1.948-2.174-3.647-3.921-4.915.455-.447.756-1.041.855-1.699.594.35 1.277.564 2.014.564h.101c.34 1.667 1.515 3.026 3.065 3.641zm-7.055-9.641-.018 1.159c-.059.272-.093.553-.093.841h-14v-2zm-14.625-19.558c-2.118-.981-3.486-3.117-3.486-5.442s1.368-4.461 3.486-5.442l.667-.309-.114-.861c-.018-.127-.039-.255-.039-.388 0-2.206 1.794-4 4-4 .714 0 1.394.194 2 .546v1.454c-2.206 0-4 1.794-4 4-2.206 0-4 1.794-4 4h2c0-1.103.897-2 2-2h2v-2c0-1.103.897-2 2-2v10c-2.206 0-4 1.794-4 4h2c0-1.103.897-2 2-2v5.454c-.606.353-1.286.546-2 .546-2.206 0-4-1.794-4-4 0-.133.021-.261.039-.39l.114-.86zm15.028-10.883c2.118.981 3.486 3.116 3.486 5.441s-1.368 4.461-3.485 5.441l-.667.309.114.86c.017.129.038.257.038.39 0 2.206-1.794 4-4 4-.714 0-1.394-.194-2-.546v-9.454c1.103 0 2 .897 2 2h2c0-.943-.342-1.799-.89-2.484 1.702-.798 2.89-2.515 2.89-4.516h-2c0 1.654-1.346 3-3 3h-1v-9.453c.606-.353 1.286-.546 2-.546 2.206 0 4 1.794 4 4 0 .133-.021.26-.039.388l-.114.861zm-14.514 34.441h14.047l-.016 1.016c-.009.543-.457.984-1 .984h-12.031c-.551 0-1-.449-1-1zm11.382 4-.656 1.312-1.312-1.312zm-6.796 0-1.312 1.312-.656-1.312zm-4.002.404 2.142 4.284 4.274-4.273 4.274 4.274 2.142-4.284c2.644 1.671 4.312 4.463 4.535 7.596h-21.902c.222-3.134 1.891-5.926 4.535-7.597zm17.416-8.404v4c-.929 0-1.704-.639-1.928-1.498l.017-1.058c.242-.831 1.002-1.444 1.911-1.444zm-28-25c0-4.828 2.064-9.445 5.663-12.668 3.159-2.829 7.118-4.333 11.314-4.333.649 0 1.305.036 1.963.109 8.057.89 14.517 7.68 15.025 15.795.423 6.748-3.176 13.111-9.171 16.21l-.531.274-.121 7.613h-2.142v-6h-2v6h-2v-10.353c.637.225 1.307.353 2 .353 3.309 0 6-2.691 6-6 0-.026 0-.053-.001-.079 2.452-1.419 4.001-4.062 4.001-6.921s-1.549-5.502-4.001-6.922c.001-.025.001-.051.001-.078 0-3.309-2.691-6-6-6-1.067 0-2.092.275-3 .802-.908-.527-1.933-.802-3-.802-3.309 0-6 2.691-6 6 0 .026 0 .052.001.078-2.452 1.421-4.001 4.065-4.001 6.922 0 2.858 1.549 5.502 4.001 6.921-.001.027-.001.053-.001.079 0 3.309 2.691 6 6 6 .693 0 1.363-.128 2-.353v10.353h-2v-6h-2v6h-2v-7.491l-.555-.276c-5.826-2.894-9.445-8.732-9.445-15.233zm8 27c0 1.103-.897 2-2 2v-4c1.103 0 2 .897 2 2zm-2.101 4h.101c.749 0 1.442-.22 2.042-.58.094.66.391 1.254.841 1.703-1.754 1.269-3.105 2.972-3.936 4.926-.536-.939-1.258-1.757-2.114-2.409 1.551-.614 2.726-1.973 3.066-3.64zm-10.899 2c-1.654 0-3-1.346-3-3v-6c0-1.381.938-2.547 2.211-2.895.441 1.108 1.525 1.895 2.789 1.895h6c.551 0 1 .449 1 1v6c0 1.654-1.346 3-3 3zm3 2c3.309 0 6 2.691 6 6h-12c0-3.308 2.691-6 6-6zm44 6h-12c0-3.309 2.691-6 6-6s6 2.692 6 6zm0-11c0 1.654-1.346 3-3 3h-6c-1.654 0-3-1.346-3-3v-6c0-1.381.938-2.547 2.211-2.895.441 1.108 1.525 1.895 2.789 1.895h6c.551 0 1 .449 1 1zm2-1v-4c1.103 0 2 .897 2 2s-.897 2-2 2z"/></g></g></svg>