<svg id="_x33_0" enable-background="new 0 0 62 62.477" height="512" viewBox="0 0 62 62.477" width="512" xmlns="http://www.w3.org/2000/svg"><g><g><path d="m60.628.548c-3.199 1.28-6.568 1.929-10.014 1.929h-7.614c-11.58 0-21 9.42-21 21 0 7.316 3.715 13.991 9.939 17.854l.527-.85s4.534-4.504 4.534-9.004h-1c-2.761 0-5-2.239-5-5s2.239-5 5-5h1c0-2.209 1.791-4 4-4h14c.657 0 1.234.321 1.599.81 3.091-.727 5.401-3.501 5.401-6.81v-11.477z" fill="#f0bc5e"/></g><g><path d="m20 16.477v-3c0-2.414-1.721-4.434-4-4.899v-2.101h-2v2h-4v5c0 2.757 2.243 5 5 5 1.654 0 3 1.346 3 3v3h-3c-1.654 0-3-1.346-3-3v-3h-2v3c0 2.414 1.721 4.434 4 4.899v2.101h2v-2h4v-5c0-2.757-2.243-5-5-5-1.654 0-3-1.346-3-3v-3h3c1.654 0 3 1.346 3 3v3z"/><path d="m15 50.477c-1.654 0-3 1.346-3 3s1.346 3 3 3 3-1.346 3-3-1.346-3-3-3zm0 4c-.551 0-1-.449-1-1s.449-1 1-1 1 .449 1 1-.449 1-1 1z"/><path d="m7 50.477c-1.654 0-3 1.346-3 3s1.346 3 3 3 3-1.346 3-3-1.346-3-3-3zm0 4c-.551 0-1-.449-1-1s.449-1 1-1 1 .449 1 1-.449 1-1 1z"/><path d="m23 50.477c-1.654 0-3 1.346-3 3s1.346 3 3 3 3-1.346 3-3-1.346-3-3-3zm0 4c-.551 0-1-.449-1-1s.449-1 1-1 1 .449 1 1-.449 1-1 1z"/><path d="m15 .477c-8.271 0-15 6.729-15 15 0 5.534 3.12 10.667 8 13.251v12.749c0 1.333.88 2.453 2.085 2.842.403 2.355 2.446 4.158 4.915 4.158s4.512-1.802 4.915-4.158c1.205-.389 2.085-1.509 2.085-2.842v-12.748c.198-.105.39-.223.583-.336-.166-.695-.302-1.4-.397-2.116-.519.346-1.055.667-1.616.933l-.57.27v6.997h-2v-4h-2v4h-2v-4h-2v4h-2v-6.997l-.57-.271c-4.513-2.147-7.43-6.753-7.43-11.732 0-7.168 5.832-13 13-13 5.142 0 9.719 2.975 11.829 7.62.457-.551.945-1.075 1.455-1.577-2.572-4.928-7.632-8.043-13.284-8.043zm0 46c-1.302 0-2.402-.839-2.816-2h5.631c-.413 1.162-1.513 2-2.815 2zm4-4h-8c-.551 0-1-.449-1-1v-.986h10v.986c0 .551-.449 1-1 1zm1-6v2.014h-10v-2.014z"/><path d="m50 28.477c2.206 0 4-1.794 4-4h-2c0 1.103-.897 2-2 2s-2-.897-2-2h-2c0 2.206 1.794 4 4 4z"/><path d="m52.452 43.018c3.309-1.899 5.548-5.46 5.548-9.541v-14c0-1.654-1.346-3-3-3h-14c-2.415 0-4.435 1.721-4.899 4h-.101c-3.309 0-6 2.691-6 6 0 3.281 2.647 5.956 5.918 6-.584 3.695-4.119 7.257-4.158 7.296l-.895.893 1.073.666c1.117.694 2.296 1.267 3.514 1.736-4.503 2.22-7.452 6.867-7.452 11.953v7.456h32v-7.456c0-5.122-2.99-9.801-7.548-12.003zm-14.452.845c.992.243 2.002.414 3.025.51l-3.025 2.161zm5.809 4.614h.383l2.571 12h-5.526zm.656-2h-.93l-.65-.975 1.115-.796 1.115.796zm2.648-2.006c1.001-.01 1.967-.159 2.887-.421v2.483zm-9.113-12.994v-1h-2c-2.206 0-4-1.794-4-4s1.794-4 4-4h2v-1c0-1.654 1.346-3 3-3h14c.551 0 1 .449 1 1v14c0 1.053-.191 2.06-.525 3h-5.475c-1.103 0-2-.897-2-2h-2c0 2.206 1.794 4 4 4h4.478c-1.617 2.41-4.365 4-7.478 4h-4c-3.142 0-6.214-.771-8.959-2.241 1.394-1.637 3.959-5.142 3.959-8.759zm-8 23.544c0-4.195 2.362-8.039 6-9.988v5.387l5.257-3.755.677 1.015-2.742 12.797h-3.192v-6h-2v6h-4zm28 5.456h-4v-6h-2v6h-3.191l-2.743-12.797.677-1.015 5.257 3.755v-5.387c3.638 1.949 6 5.793 6 9.988z"/><path d="m34 24.477v2c1.103 0 2 .897 2 2h2c0-2.206-1.794-4-4-4z"/></g></g></svg>