<svg id="_x33_0" enable-background="new 0 0 62 62" height="512" viewBox="0 0 62 62" width="512" xmlns="http://www.w3.org/2000/svg"><g><g><path d="m45 25v-6.014c-1.734-1.305-3.021-3.162-3.621-5.307-1.94-1.097-4.119-1.679-6.379-1.679h-8c-.671 0-1.342.057-2 .159v2.841h-.027c-1.196 0-2.275.72-2.733 1.825-.459 1.106-.206 2.38.641 3.227l.019.019-2.828 2.828-.021-.021c-.846-.846-2.119-1.099-3.224-.64-1.106.46-1.827 1.54-1.827 2.738v.024h-1v23.171c0 2.091.814 4.057 2.293 5.536l.293.293h.414v-1c0-1.105.895-2 2-2s2 .895 2 2v-6l8 2h2c0-1.781-1.168-3.35-2.873-3.862l-2.851-.855c-2.538-.762-4.276-3.098-4.276-5.747v-8.536c0-3.866 3.134-7 7-7l.019-.001c.913 1.209 2.349 2.001 3.981 2.001h5c2.209 0 4 1.791 4 4v9.536c0 2.65-1.738 4.986-4.276 5.747l-2.851.855c-1.705.512-2.873 2.081-2.873 3.862h2l8-2v6c0-1.105.895-2 2-2s2 .895 2 2v1h.414l.293-.293c1.479-1.479 2.293-3.445 2.293-5.536v-17.98c-1.792-1.038-3-2.971-3-5.191z" fill="#f0bc5e"/></g><g><path d="m20 13c0-3.86-3.141-7-7-7s-7 3.14-7 7 3.141 7 7 7 7-3.14 7-7zm-7 5c-2.757 0-5-2.243-5-5s2.243-5 5-5 5 2.243 5 5-2.243 5-5 5z"/><path d="m13 10c-1.654 0-3 1.346-3 3s1.346 3 3 3 3-1.346 3-3-1.346-3-3-3zm0 4c-.552 0-1-.449-1-1s.448-1 1-1 1 .449 1 1-.448 1-1 1z"/><path d="m35 32c1.654 0 3-1.346 3-3v-1h-2v1c0 .551-.448 1-1 1s-1-.449-1-1v-1h-2v1c0 1.654 1.346 3 3 3z"/><path d="m30 29v-1h-2v1c0 .551-.448 1-1 1s-1-.449-1-1v-1h-2v1c0 1.654 1.346 3 3 3s3-1.346 3-3z"/><path d="m36 36h-2c0 1.103-.897 2-2 2h-4v2h4c2.206 0 4-1.794 4-4z"/><path d="m43 50c-.352 0-.686.072-1 .184v-4.465l-9.123 2.281h-.708c.311-.9 1.034-1.617 1.991-1.904l2.851-.855c2.984-.895 4.989-3.59 4.989-6.705v-9.536c0-2.757-2.243-5-5-5h-5c-2.206 0-4-1.794-4-4v-2h-2v2c0 .762.148 1.489.409 2.16-3.652.74-6.409 3.974-6.409 7.84v8.536c0 3.115 2.005 5.81 4.989 6.705l2.851.855c.958.287 1.68 1.003 1.991 1.904h-.708l-9.123-2.281v4.465c-.314-.112-.648-.184-1-.184-1.654 0-3 1.346-3 3v4c0 1.654 1.346 3 3 3 .375 0 .731-.077 1.062-.204l8.695 2.174 4.366.03 8.815-2.204c.331.127.687.204 1.062.204 1.654 0 3-1.346 3-3v-4c0-1.654-1.346-3-3-3zm-13-.021 2 .014v10.007h-2zm-1.586-5.799-2.851-.855c-2.131-.639-3.563-2.564-3.563-4.789v-8.536c0-3.16 2.457-5.751 5.561-5.978 1.098 1.212 2.679 1.978 4.439 1.978h5c1.654 0 3 1.346 3 3v9.536c0 2.225-1.432 4.15-3.563 4.789l-2.851.855c-1.066.32-1.958.96-2.586 1.798-.628-.837-1.519-1.478-2.586-1.798zm-9.414 13.82c-.552 0-1-.449-1-1v-4c0-.551.448-1 1-1s1 .449 1 1v4c0 .551-.448 1-1 1zm3-9.719 6 1.5v9.938l-6-1.5zm18 9.938-6 1.5v-9.965l6-1.474zm4-1.219c0 .551-.448 1-1 1s-1-.449-1-1v-4c0-.551.448-1 1-1s1 .449 1 1z"/><path d="m16 24.976c0-.796.475-1.508 1.211-1.813.732-.305 1.569-.139 2.153.444l.707.707 3.535-3.536.688-.726-.707-.707c-.563-.563-.729-1.401-.424-2.137.305-.734 1.016-1.208 1.811-1.208h1.026v-5l-.026-1h-1c-.795 0-1.506-.474-1.81-1.208-.306-.735-.14-1.574.451-2.165l.689-.707-3.526-3.526-.727-.688-.707.707c-.563.563-1.401.729-2.136.424-.733-.305-1.208-1.016-1.208-1.837v-1h-5l-1 .033v1c0 .791-.473 1.498-1.203 1.801-.738.307-1.58.139-2.161-.44l-.707-.707-3.535 3.535-.689.726.707.708c.563.563.729 1.401.424 2.137-.304.733-1.015 1.207-1.836 1.207h-1v5l.026 1h1c.795 0 1.506.474 1.81 1.208.306.735.14 1.574-.442 2.155l-.707.707 3.535 3.536.727.688.707-.707c.563-.563 1.402-.728 2.136-.424.733.305 1.208 1.016 1.208 1.837v1h5l1-.024zm-1.876-.976h-2.244c-.301-1.194-1.146-2.196-2.321-2.684-1.176-.488-2.48-.378-3.544.255l-1.585-1.585c.633-1.059.743-2.367.254-3.544-.486-1.171-1.483-2.015-2.684-2.318v-2.244c1.194-.301 2.196-1.146 2.684-2.321s.38-2.481-.255-3.544l1.586-1.586c1.061.633 2.37.743 3.55.252 1.168-.485 2.01-1.479 2.313-2.681h2.243c.301 1.194 1.146 2.196 2.321 2.684 1.177.488 2.481.379 3.544-.255l1.585 1.585c-.633 1.059-.743 2.368-.254 3.544.485 1.171 1.482 2.015 2.684 2.318v2.244c-1.194.301-2.196 1.146-2.684 2.321-.487 1.173-.38 2.477.256 3.543l-1.586 1.586c-1.059-.633-2.369-.742-3.542-.254-1.173.486-2.017 1.483-2.321 2.684z"/><path d="m58 25v-5.529c2.549-2.101 4-5.161 4-8.471 0-6.065-4.935-11-11-11s-11 4.935-11 11c0 3.311 1.451 6.37 4 8.471v5.529c0 3.86 3.141 7 7 7s7-3.14 7-7zm-12 0v-1h10v1c0 .342-.035.677-.101 1h-9.798c-.066-.323-.101-.658-.101-1zm2-13h-1c-.552 0-1-.449-1-1s.448-1 1-1 1 .449 1 1zm4 10h-2v-8h2zm-10-11c0-4.962 4.037-9 9-9s9 4.038 9 9c0 2.845-1.313 5.465-3.602 7.188l-.398.299v3.513h-2v-8h1c1.654 0 3-1.346 3-3s-1.346-3-3-3-3 1.346-3 3v1h-2v-1c0-1.654-1.346-3-3-3s-3 1.346-3 3 1.346 3 3 3h1v8h-2v-3.513l-.398-.3c-2.29-1.722-3.602-4.342-3.602-7.187zm12 1v-1c0-.551.448-1 1-1s1 .449 1 1-.448 1-1 1zm-3 18c-1.627 0-3.061-.793-3.974-2h7.949c-.914 1.207-2.348 2-3.975 2z"/><path d="m52.293 38.293 1.414 1.414 2.293-2.293v10.586h2v-10.586l2.293 2.293 1.414-1.414-4.707-4.707z"/><path d="m56 50h2v2h-2z"/><path d="m56 54h2v8h-2z"/><path d="m.293 34.293 1.414 1.414 2.293-2.293v12.586h2v-12.586l2.293 2.293 1.414-1.414-4.707-4.707z"/><path d="m4 48h2v6h-2z"/><path d="m4 60h2v2h-2z"/><path d="m4 56h2v2h-2z"/></g></g></svg>