<svg id="_x33_0" enable-background="new 0 0 62 62" height="512" viewBox="0 0 62 62" width="512" xmlns="http://www.w3.org/2000/svg"><g><g><path d="m53.472 16h-13.472c-4.875 0-9.448 2.404-12.243 6.345 2.62 2.646 4.243 6.281 4.243 10.29 0 5.486-3.145 10.528-7.957 13.01.206 1.997 1.325 3.136 2.25 4.061.954.954 1.707 1.708 1.707 3.294s-.753 2.34-1.707 3.294c-1.021 1.022-2.292 2.293-2.293 4.706h13c.001-3.999 4-4 4-8 0-4.001-4-4.001-4-8.002 0-3.998 4-3.998 4-7.996l-1-.002c-1.657 0-3-1.343-3-3s1.343-3 3-3h1c0-2.209 1.791-4 4-4h8c2.209 0 4 1.791 4 4v.763l.889-.105c2.548-1.47 4.111-4.158 4.111-7.13 0-4.702-3.826-8.528-8.528-8.528z" fill="#f0bc5e"/></g><g><path d="m17.364 18h-7.759c-2.161 0-4.253-.633-6.051-1.832l-.942-.628-1.503 3.005c-.725 1.452-1.109 3.077-1.109 4.7 0 3.291 1.571 6.434 4.204 8.408l.796.736v-1.389c0-2.209 1.791-4 4-4h8c2.209 0 4 1.791 4 4h1c1.657 0 3 1.343 3 3s-1.343 3-3 3h-1v9.858l.307-.099c.441-.143.879-.297 1.313-.464 5.609-2.158 9.38-7.648 9.38-13.66 0-8.07-6.565-14.635-14.636-14.635z" fill="#f0bc5e"/></g><g><path d="m16 33c0-1.654-1.346-3-3-3h-5v2h2.171c-.11.313-.171.649-.171 1 0 1.654 1.346 3 3 3s3-1.346 3-3zm-3 1c-.552 0-1-.449-1-1s.448-1 1-1 1 .449 1 1-.448 1-1 1z"/><path d="m52 33c0-.351-.061-.687-.171-1h2.171v-2h-5c-1.654 0-3 1.346-3 3s1.346 3 3 3 3-1.346 3-3zm-4 0c0-.551.448-1 1-1s1 .449 1 1-.448 1-1 1-1-.449-1-1z"/><path d="m6 6v-4c0-1.103-.897-2-2-2h-2c-1.103 0-2 .897-2 2v4c0 1.103.897 2 2 2h2c1.103 0 2-.897 2-2zm-4-4h2l.001 4h-2.001z"/><path d="m10 8h2c1.103 0 2-.897 2-2v-4c0-1.103-.897-2-2-2h-2c-1.103 0-2 .897-2 2v4c0 1.103.897 2 2 2zm0-6h2l.001 4h-2.001z"/><path d="m18 8h2c1.103 0 2-.897 2-2v-4c0-1.103-.897-2-2-2h-2c-1.103 0-2 .897-2 2v4c0 1.103.897 2 2 2zm0-6h2l.001 4h-2.001z"/><path d="m42 8h2c1.103 0 2-.897 2-2v-4c0-1.103-.897-2-2-2h-2c-1.103 0-2 .897-2 2v4c0 1.103.897 2 2 2zm0-6h2l.001 4h-2.001z"/><path d="m50 8h2c1.103 0 2-.897 2-2v-4c0-1.103-.897-2-2-2h-2c-1.103 0-2 .897-2 2v4c0 1.103.897 2 2 2zm0-6h2l.001 4h-2.001z"/><path d="m60 0h-2c-1.103 0-2 .897-2 2v4c0 1.103.897 2 2 2h2c1.103 0 2-.897 2-2v-4c0-1.103-.897-2-2-2zm-2 6v-4h2l.001 4z"/><path d="m55.111 26.484c.547-.685.889-1.541.889-2.484 0-2.206-1.794-4-4-4s-4 1.794-4 4h2c0-1.103.897-2 2-2s2 .897 2 2-.897 2-2 2h-7c-2.415 0-4.435 1.721-4.899 4h-.101c-2.206 0-4 1.794-4 4 0 2.167 1.731 3.937 3.882 3.999-.248.955-.86 1.566-1.589 2.294-1.022 1.021-2.293 2.291-2.293 4.705 0 2.415 1.271 3.686 2.293 4.708.954.954 1.707 1.708 1.707 3.294s-.753 2.34-1.707 3.294c-.869.869-1.911 1.926-2.205 3.706h-3.965c.249-.952.857-1.565 1.584-2.292 1.022-1.022 2.293-2.293 2.293-4.708s-1.271-3.686-2.293-4.708c-.954-.954-1.707-1.708-1.707-3.294 0-1.585.754-2.338 1.708-3.292.334-.334.681-.68 1.002-1.075l-1.553-1.262c-.256.315-.551.61-.863.922-1.023 1.022-2.294 2.293-2.294 4.707 0 2.415 1.271 3.686 2.293 4.708.954.954 1.707 1.708 1.707 3.294s-.753 2.34-1.707 3.294c-.869.869-1.911 1.926-2.205 3.706h-8.088v-10h-.054c-.143-1.194-.743-2.238-1.63-2.963.331-.092.664-.173.992-.279l.692-.223v-8.535c2.206 0 4-1.794 4-4s-1.794-4-4-4h-.101c-.465-2.279-2.484-4-4.899-4h-8c-.552 0-1-.449-1-1s.448-1 1-1h1v-2h-1c-1.654 0-3 1.346-3 3 0 .624.192 1.204.52 1.685-1.498.864-2.52 2.465-2.52 4.315v10c0 3.131 2.066 5.787 4.906 6.679l-1.906 1.906c-.645.645-1 1.502-1 2.415s.355 1.77 1 2.414l.109.109c-.706.822-1.109 1.846-1.109 2.941 0 2.501 2.034 4.536 4.535 4.536h40.93c2.501 0 4.535-2.035 4.535-4.536 0-1.095-.403-2.119-1.109-2.941l.109-.108c.645-.645 1-1.502 1-2.415s-.355-1.77-1-2.414l-1.906-1.907c2.84-.892 4.906-3.548 4.906-6.679v-10c0-2-1.188-3.717-2.889-4.516zm-15.404 31.224c.823-.824 1.798-1.821 2.149-3.437l5.73 5.729h-9.463c.249-.952.857-1.565 1.584-2.292zm-19.707 2.292h-5.586l5.586-5.586zm-14-19v-1h4c1.103 0 2 .897 2 2h2c0-2.206-1.794-4-4-4h-4v-7c0-1.654 1.346-3 3-3h8c1.654 0 3 1.346 3 3v1h2c1.103 0 2 .897 2 2s-.897 2-2 2h-2v9.068c-2.133.619-4.338.932-6.563.932h-2.437c-2.757 0-5-2.243-5-5zm2.414 10 2.586-2.585c.535-.535 1.465-.535 2 0l.086.086-4.586 4.585-.086-.086c-.268-.267-.414-.622-.414-1s.146-.733.414-1zm-.414 6.464c0-.678.264-1.314.742-1.793l6.93-6.929c.479-.478 1.116-.742 1.793-.742 1.397 0 2.535 1.138 2.535 2.536 0 .678-.264 1.314-.742 1.793l-6.93 6.929c-.479.478-1.116.742-1.793.742-1.397 0-2.535-1.138-2.535-2.536zm43.465 2.536c-.677 0-1.313-.264-1.793-.743l-6.93-6.929c-.478-.478-.742-1.115-.742-1.792 0-1.398 1.138-2.536 2.535-2.536.677 0 1.313.264 1.793.743l6.93 6.929c.478.478.742 1.115.742 1.792 0 1.398-1.138 2.536-2.535 2.536zm2.535-8c0 .378-.146.733-.414 1l-.086.086-4.586-4.586.086-.085c.535-.535 1.465-.535 2 0l2.586 2.585c.268.267.414.622.414 1zm-3-6h-6.465c-1.93 0-3.57 1.217-4.224 2.919-.204-.221-.408-.431-.604-.627-.954-.954-1.707-1.708-1.707-3.294 0-1.584.753-2.337 1.707-3.291 1.022-1.021 2.293-2.291 2.293-4.705v-.998l-2-.004c-1.103 0-2-.897-2-2s.897-2 2-2h2v-1c0-1.654 1.346-3 3-3h8c1.654 0 3 1.346 3 3v7h-4c-2.206 0-4 1.794-4 4h2c0-1.103.897-2 2-2h4v1c0 2.757-2.243 5-5 5z"/><path d="m37 8h1v-2h-1c-1.654 0-3-1.346-3-3v-1h-2v1c0 2.757 2.243 5 5 5z"/><path d="m30 3v-1h-2v1c0 1.654-1.346 3-3 3h-1v2h1c2.757 0 5-2.243 5-5z"/><path d="m34 15c0-1.654 1.346-3 3-3h1v-2h-1c-2.757 0-5 2.243-5 5v1h2z"/><path d="m28 15v1h2v-1c0-2.757-2.243-5-5-5h-1v2h1c1.654 0 3 1.346 3 3z"/></g></g></svg>