<svg id="_x33_0" enable-background="new 0 0 62 62" height="512" viewBox="0 0 62 62" width="512" xmlns="http://www.w3.org/2000/svg"><g><g><path d="m31.712 0h-13.424c-10.084 0-18.288 8.204-18.288 18.288 0 1.203.119 2.41.355 3.587l.72 3.603h.228c.6-1.454 2.027-2.478 3.697-2.478h2 .262c.889-3.449 4.011-6 7.738-6h1c.912 1.214 2.364 2 4 2h17c2.611 0 4.827 1.671 5.651 4h.349 2c1.67 0 3.097 1.025 3.697 2.478h.228l.72-3.603c.236-1.177.355-2.384.355-3.587 0-10.084-8.204-18.288-18.288-18.288z" fill="#f0bc5e"/></g><g><path d="m45 22h-1v-2c0-6.617-5.383-12-12-12h-12v2h12c5.514 0 10 4.486 10 10v.111c-1.272-1.301-3.042-2.111-5-2.111h-17c-2.206 0-4-1.794-4-4v-4h-2v4c0 .714.132 1.397.362 2.032-2.565.182-4.837 1.436-6.362 3.324v-1.527c0-1.557.606-3.021 1.707-4.122l-1.414-1.414c-1.479 1.479-2.293 3.445-2.293 5.536v4.171h-1c-2.757 0-5 2.243-5 5s2.243 5 5 5h1v5c0 1.996.465 3.88 1.272 5.572-.685-.353-1.45-.572-2.272-.572-2.757 0-5 2.243-5 5v1h2v-1c0-1.654 1.346-3 3-3s3 1.346 3 3-1.346 3-3 3h-1v8h2v-6.101c2.279-.464 4-2.485 4-4.899 0-.242-.038-.473-.071-.706 1.389 1.356 3.079 2.399 4.959 3.029-2.996 1.929-4.888 5.284-4.888 8.957v3.72h30v-3.72c0-3.673-1.891-7.028-4.888-8.958 5.157-1.725 8.888-6.592 8.888-12.322v-5h1c2.757 0 5-2.243 5-5s-2.243-5-5-5zm-40 8c-1.654 0-3-1.346-3-3s1.346-3 3-3h1v2.132l-1.445-.964-1.109 1.664 2.554 1.703v1.465zm19.78 24h.439l1.5 6h-3.439zm.806-2h-1.172l-.845-.845 1.431-.953 1.43.954zm2.717-2h2.697c.042 0 .083-.006.125-.006l-.596 1.491zm-8.832 1.484-.596-1.491c.042.001.083.007.125.007h2.697zm-7.471 6.796c0-3.352 1.951-6.358 4.922-7.782l1.607 4.017 3.343-2.229 1.02 1.02-1.672 6.694h-3.22v-4h-2v4h-4zm26 0v1.72h-4v-4h-2v4h-3.22l-1.673-6.693 1.02-1.02 3.343 2.229 1.607-4.017c2.972 1.423 4.923 4.429 4.923 7.781zm4-21.28c0 6.065-4.935 11-11 11h-12c-6.065 0-11-4.935-11-11v-12c0-3.86 3.141-7 7-7h.54c1.099 1.224 2.688 2 4.46 2h17c2.757 0 5 2.243 5 5zm3-7h-1v-1.465l2.555-1.703-1.109-1.664-1.446.964v-2.132h1c1.654 0 3 1.346 3 3s-1.346 3-3 3z"/><path d="m4 60h2v2h-2z"/><path d="m53 6c3.859 0 7 3.14 7 7s-3.141 7-7 7h-1v18h2v-16.055c4.494-.499 8-4.32 8-8.945 0-4.962-4.037-9-9-9s-9 4.038-9 9h2c0-3.86 3.141-7 7-7z"/><path d="m53 40c-1.654 0-3 1.346-3 3s1.346 3 3 3 3-1.346 3-3-1.346-3-3-3zm0 4c-.552 0-1-.449-1-1s.448-1 1-1 1 .449 1 1-.448 1-1 1z"/><path d="m46 50h2v8h-2z"/><path d="m46 60h2v2h-2z"/><path d="m52 50h2v8h-2z"/><path d="m52 60h2v2h-2z"/><path d="m58 50h2v8h-2z"/><path d="m58 60h2v2h-2z"/><path d="m20 30v-1c0-1.654-1.346-3-3-3s-3 1.346-3 3c0 2.757 2.243 5 5 5s5-2.243 5-5c0-3.86-3.141-7-7-7s-7 3.14-7 7c0 2.491 1.341 4.814 3.499 6.063l1.002-1.731c-1.543-.893-2.501-2.553-2.501-4.332 0-2.757 2.243-5 5-5s5 2.243 5 5c0 1.654-1.346 3-3 3s-3-1.346-3-3c0-.551.448-1 1-1s1 .449 1 1v1z"/><path d="m33 22c-3.859 0-7 3.14-7 7 0 2.491 1.341 4.814 3.499 6.063l1.002-1.731c-1.543-.893-2.501-2.553-2.501-4.332 0-2.757 2.243-5 5-5s5 2.243 5 5c0 1.654-1.346 3-3 3s-3-1.346-3-3c0-.551.448-1 1-1s1 .449 1 1v1h2v-1c0-1.654-1.346-3-3-3s-3 1.346-3 3c0 2.757 2.243 5 5 5s5-2.243 5-5c0-3.86-3.141-7-7-7z"/><path d="m27.332 38c-1.537 0-2.34.688-2.984 1.241-.535.457-.887.759-1.684.759-.796 0-1.148-.302-1.681-.759-.644-.553-1.447-1.241-2.983-1.241v2c.796 0 1.148.302 1.681.759.644.553 1.447 1.241 2.983 1.241 1.537 0 2.34-.688 2.984-1.241.535-.457.887-.759 1.684-.759s1.149.302 1.684.759c.644.553 1.447 1.241 2.984 1.241v-2c-.797 0-1.149-.302-1.684-.759-.644-.553-1.447-1.241-2.984-1.241z"/></g></g></svg>