<svg id="_x33_0" enable-background="new 0 0 62 62" height="512" viewBox="0 0 62 62" width="512" xmlns="http://www.w3.org/2000/svg"><g><g><path d="m59.361 52h2.639v-6h-2.639c-.48 0-.905-.307-1.128-.842-.207-.494-.123-1.031.216-1.367l1.863-1.855-4.363-4.409-1.739 2.025c-.337.338-.874.423-1.41.198-.494-.205-.8-.63-.8-1.11v-2.64h-6v2.639c0 .48-.307.906-.842 1.128-.492.207-1.03.123-1.318-.163l-1.788-2.078-4.363 4.409 1.863 1.854c.338.337.423.874.198 1.41-.205.493-.629.8-1.11.8h-2.64v6h2.639c.48 0 .905.307 1.128.842.207.494.123 1.031-.216 1.367l-1.867 1.859 4.248 4.248 1.858-1.867c.337-.338.874-.423 1.41-.198.493.205.8.629.8 1.11v2.64h6v-2.639c0-.48.307-.905.842-1.128.492-.208 1.031-.123 1.367.216l1.859 1.867 4.248-4.248-1.867-1.858c-.338-.337-.423-.874-.198-1.41.205-.493.629-.8 1.11-.8zm-10.361 3c-3.31 0-6-2.69-6-6s2.69-6 6-6 6 2.69 6 6-2.69 6-6 6z" fill="#f0bc5e"/></g><g><path d="m51.342 11.448c-.396-.793-1.154-1.294-2.016-1.402-1.141-2.441-3.589-4.046-6.326-4.046-.067 0-.132.007-.199.009-1.869-3.672-5.64-6.009-9.801-6.009-2.916 0-5.669 1.142-7.719 3.166-1.826-1.943-4.41-3.166-7.281-3.166-5.514 0-10 4.486-10 10 0 1.076.174 2.124.507 3.131-1.515 1.09-2.507 2.864-2.507 4.869v21c0 7.168 5.832 13 13 13h.356c-2.044 1.651-3.356 4.174-3.356 7v3h20v-7c0-1.13-.391-2.162-1.026-3h1.026v-2h-2v-12.083c2.834-.478 5-2.949 5-5.917 0-3.309-2.691-6-6-6h-1v-4h10v15.578l.051-.052 1.788 2.078c.045.044.105.074.161.109v-17.713h2v14h2v-14h2v14h2v-14h2v17.701c.074-.045.148-.088.21-.15l1.739-2.025.051.052v-16.814zm-2.895.893c.211-.421.895-.421 1.105 0l.83 1.659h-2.764zm-1.829 3.659h4.764l2 4h-8.764zm-34.618-2c2.206 0 4 1.794 4 4h2c0-3.309-2.691-6-6-6-.582 0-1.143.087-1.675.243-.212-.725-.325-1.475-.325-2.243 0-4.411 3.589-8 8-8s8 3.589 8 8h2c0-1.915-.551-3.7-1.488-5.222 1.695-1.768 4.017-2.778 6.488-2.778 3.197 0 6.107 1.69 7.718 4.383-2.371.812-4.186 2.856-4.622 5.451l1.973.331c.405-2.413 2.479-4.165 4.931-4.165 1.843 0 3.51 1.015 4.378 2.591-.29.232-.546.509-.72.856l-4.276 8.553h-12.292c.478-2.833 2.942-5 5.91-5v-2c-.823 0-1.617.125-2.365.357-.629-1.399-2.02-2.357-3.635-2.357v2c.812 0 1.511.485 1.823 1.19-2.019 1.243-3.445 3.352-3.753 5.81h-20.07v-2c0-2.206 1.794-4 4-4zm-4 25v-1h12.945c-.499 4.494-4.32 8-8.945 8h-1.479c-1.574-1.903-2.521-4.343-2.521-7zm18 21h-8v-1c0-3.86 3.14-7 7-7h2.026c-.635.838-1.026 1.87-1.026 3zm8-5v5h-6v-5c0-1.654 1.346-3 3-3s3 1.346 3 3zm-1-27c2.206 0 4 1.794 4 4s-1.794 4-4 4h-1v14h-13c-2.365 0-4.553-.758-6.349-2.033 5.762-.34 10.349-5.121 10.349-10.967v-1h-15v-14h22v6z"/><path d="m49 46c-1.654 0-3 1.346-3 3s1.346 3 3 3 3-1.346 3-3-1.346-3-3-3zm0 4c-.551 0-1-.449-1-1s.449-1 1-1 1 .449 1 1-.449 1-1 1z"/><path d="m49 42c-3.86 0-7 3.14-7 7s3.14 7 7 7 7-3.14 7-7-3.14-7-7-7zm0 12c-2.757 0-5-2.243-5-5s2.243-5 5-5 5 2.243 5 5-2.243 5-5 5z"/><path d="m0 60h6v2h-6z"/><path d="m8 60h2v2h-2z"/><path d="m12 60h2v2h-2z"/><path d="m0 56h14v2h-14z"/><path d="m0 52h4v2h-4z"/><path d="m6 52h8v2h-8z"/><path d="m30.697 31h3.606v2h-3.606z" transform="matrix(.832 -.555 .555 .832 -12.292 23.402)"/><path d="m20 27c0 1.654-1.346 3-3 3s-3-1.346-3-3v-1h-2v1c0 2.757 2.243 5 5 5s5-2.243 5-5v-1h-2z"/><path d="m22 16h2c0-2.879-1.534-5.401-3.823-6.81.312-.705 1.011-1.19 1.823-1.19v-2c-1.615 0-3.006.958-3.635 2.357-.748-.232-1.542-.357-2.365-.357v2c3.309 0 6 2.691 6 6z"/></g></g></svg>