<svg id="_x33_0" enable-background="new 0 0 62 62" height="512" viewBox="0 0 62 62" width="512" xmlns="http://www.w3.org/2000/svg"><g><g><g><path d="m59 15h-17.039c.012.259.039.515.039.777 0 .866-.072 1.738-.215 2.594l-.848 5.089h-.246c.198.474.309.994.309 1.54 0 .347-.058.679-.141 1h14.141c1.105 0 2 .895 2 2v1h1c1.469 0 2.686 1.057 2.945 2.451l.419-.025.2-.671c.289-.971.436-1.978.436-2.991v-9.764c0-1.654-1.346-3-3-3z" fill="#f0bc5e"/></g></g><g><path d="m26.223 0h-10.446c-8.699 0-15.777 7.078-15.777 15.777 0 .866.072 1.738.215 2.594l.848 5.089h.246c.603-1.444 2.028-2.46 3.691-2.46h2v-2c0-2.993 2.191-5.474 5.057-5.926l.022-.002c.915 1.166 2.323 1.928 3.921 1.928h15c2.209 0 4 1.791 4 4v2h2c1.663 0 3.088 1.016 3.691 2.46h.246l.848-5.089c.143-.856.215-1.728.215-2.594 0-8.699-7.078-15.777-15.777-15.777z" fill="#f0bc5e"/></g><g><path d="m28 30h-2c0 1.103-.897 2-2 2h-8v2h8c2.206 0 4-1.794 4-4z"/><path d="m18 21c0-1.654-1.346-3-3-3s-3 1.346-3 3 1.346 3 3 3 3-1.346 3-3zm-3 1c-.551 0-1-.449-1-1s.449-1 1-1 1 .449 1 1-.449 1-1 1z"/><path d="m27 24c1.654 0 3-1.346 3-3s-1.346-3-3-3-3 1.346-3 3 1.346 3 3 3zm0-4c.551 0 1 .449 1 1s-.449 1-1 1-1-.449-1-1 .449-1 1-1z"/><path d="m42 32h-2v2h2c2.206 0 4-1.794 4-4h-2c0 1.103-.897 2-2 2z"/><path d="m54 34v-2h-2c-1.103 0-2-.897-2-2h-2c0 2.206 1.794 4 4 4z"/><path d="m44 42h6c1.103 0 2-.897 2-2 0-2.206-1.794-4-4-4h-2c-2.206 0-4 1.794-4 4 0 1.103.897 2 2 2zm2-4h2c1.103 0 2 .897 2.001 2h-6.001c0-1.103.897-2 2-2z"/><path d="m58 28v-2h-2v13c0 2.757-2.243 5-5 5h-8c-2.757 0-5-2.243-5-5v-9.101c2.279-.465 4-2.484 4-4.899 0-2.757-2.243-5-5-5h-1v-1c0-2.757-2.243-5-5-5h-15c-2.206 0-4-1.794-4-4h-2c0 .871.187 1.7.522 2.448-2.688 1.004-4.522 3.572-4.522 6.552v1h-1c-2.757 0-5 2.243-5 5s2.243 5 5 5h1.051c.358 3.947 2.81 7.288 6.232 8.922-1.377.946-2.283 2.528-2.283 4.321 0 1.4.545 2.717 1.536 3.707l.464.464v14.586h20v-6h2v-2h2c.02 0 .038-.005.057-.006-.03.334-.057.669-.057 1.006v7h22v-7c0-3.801-1.945-7.255-5.112-9.266 2.944-.827 5.112-3.529 5.112-6.734v-3c2.206 0 4-1.794 4-4s-1.794-4-4-4zm-56-3c0-1.654 1.346-3 3-3h1v2.132l-1.445-.964-1.109 1.664 2.554 1.703v1.465h-1c-1.654 0-3-1.346-3-3zm48.58 21-.194.972-.972-.972zm-5.994 0-.972.972-.194-.972zm-8.586-12c-.383 0-.745-.119-1.061-.318.538-1.136.892-2.374 1.01-3.682h.051zm1-12c1.654 0 3 1.346 3 3s-1.346 3-3 3h-1v-1.465l2.555-1.703-1.109-1.664-1.446.964v-2.132zm-29 7v-10c0-2.296 1.523-4.249 3.691-4.828 1.092 1.127 2.62 1.828 4.309 1.828h15c1.654 0 3 1.346 3 3v10c0 4.962-4.038 9-9 9h-8c-4.962 0-9-4.038-9-9zm17.414 17-6-6h3.586c3.519 0 6.432 2.613 6.92 6zm4.586 14h-16v-10.586l5.122 5.122c.944.944 2.199 1.464 3.535 1.464h7.343zm2-6h-9.343c-.79 0-1.563-.32-2.121-.878l-7.586-7.586c-.613-.613-.95-1.427-.95-2.293 0-1.788 1.455-3.243 3.243-3.243.866 0 1.68.337 2.293.95l6.05 6.05-1.293 1.293 1.414 1.414 1.707-1.707h6.586zm-.059-8c-.297-2.673-1.767-4.997-3.886-6.441 2.397-.695 4.454-2.183 5.876-4.163.62.378 1.325.604 2.069.604v3c0 3.201 2.162 5.9 5.1 6.731-.752.481-1.447 1.049-2.063 1.696-.735-.865-1.816-1.427-3.037-1.427zm2.059 6v-4h2c1.103 0 2 .897 2 2s-.897 2-2 2zm22 3v5h-2v-6h-2v6h-10v-6h-2v6h-2v-5c0-.555.064-1.105.164-1.646 1.102-.713 1.836-1.947 1.836-3.354 0-.193-.03-.377-.057-.563.514-.65 1.113-1.227 1.782-1.714l.661 3.305 4.614-4.614 4.614 4.614.663-3.314c2.322 1.679 3.723 4.362 3.723 7.286zm2-21v-4c1.103 0 2 .897 2 2s-.897 2-2 2z"/><path d="m44 14h2v10h-2z"/><path d="m44 10h2v2h-2z"/><path d="m48 10h2v18h-2z"/><path d="m52 10h2v8h-2z"/><path d="m42 4h2v2h-2z"/><path d="m46 4h2v2h-2z"/><path d="m50 4h2v2h-2z"/><path d="m54 4h2v2h-2z"/></g></g></svg>