<svg id="_x33_0" enable-background="new 0 0 62.404 62" height="512" viewBox="0 0 62.404 62" width="512" xmlns="http://www.w3.org/2000/svg"><g><g><g><path d="m31.202 47c-9.925 0-18-8.075-18-18s8.075-18 18-18 18 8.075 18 18-8.075 18-18 18z" fill="#f0bc5e"/></g></g><g><path d="m24.202 42h14v2h-14z"/><path d="m32.482 14.073c-3.135-.353-6.271.636-8.604 2.721-2.336 2.086-3.676 5.077-3.676 8.207 0 3.311 1.451 6.37 4 8.471v6.528h14v-6.529c2.977-2.451 4.427-6.164 3.892-10.031-.674-4.873-4.716-8.813-9.612-9.367zm-4.28 11.927h-1c-.552 0-1-.449-1-1s.448-1 1-1 1 .449 1 1zm4 12h-2v-10h2zm4.399-5.812-.398.3v5.512h-2v-10h1c1.654 0 3-1.346 3-3s-1.346-3-3-3-3 1.346-3 3v1h-2v-1c0-1.654-1.346-3-3-3s-3 1.346-3 3 1.346 3 3 3h1v10h-2v-5.513l-.398-.3c-2.289-1.723-3.602-4.342-3.602-7.188 0-2.561 1.097-5.008 3.008-6.715 1.937-1.73 4.434-2.522 7.048-2.225 4.001.453 7.305 3.672 7.855 7.655.456 3.307-.857 6.474-3.513 8.474zm-2.399-6.188v-1c0-.551.448-1 1-1s1 .449 1 1-.448 1-1 1z"/><path d="m60.019 25.422c-6.438-9.657-17.21-15.422-28.817-15.422s-22.379 5.765-28.816 15.422l-2.386 3.578 2.386 3.578c4.912 7.369 12.352 12.462 20.757 14.466-4.319 2.843-6.94 7.631-6.94 12.901v2.055h30v-2.056c0-5.27-2.621-10.058-6.94-12.901 8.405-2.004 15.844-7.097 20.757-14.466l2.384-3.577zm-31.231 22.578-1.972 1.972-.394-1.972zm2.158 4h.512l2.4 8h-5.312zm.842-2h-1.172l-.5-.5 1.086-1.086 1.086 1.086zm1.828-2h2.366l-.394 1.972zm-15.414 11.944c0-4.689 2.381-8.942 6.29-11.395l1.096 5.479 3.114-3.114.37.37-2.614 8.716h-2.256v-4h-2v4h-4zm26 0v.056h-4v-4h-2v4h-2.256l-2.615-8.715.37-.37 3.114 3.114 1.096-5.479c3.91 2.453 6.291 6.705 6.291 11.394zm14.152-28.476c-6.065 9.099-16.215 14.532-27.152 14.532s-21.087-5.433-27.152-14.532l-1.646-2.468 1.646-2.468c6.065-9.099 16.216-14.532 27.152-14.532s21.087 5.433 27.152 14.532l1.646 2.468z"/><path d="m30.202 6h2v2h-2z"/><path d="m30.202 0h2v4h-2z"/><path d="m24.202.757h2v8.485h-2z" transform="matrix(.707 -.707 .707 .707 3.846 19.285)"/><path d="m32.96 4h8.485v2h-8.485z" transform="matrix(.707 -.707 .707 .707 7.361 27.77)"/><path d="m6.202 8h5v-2h-7v7h2z"/><path d="m56.202 13h2v-7h-7v2h5z"/><path d="m6.202 45h-2v7h7v-2h-5z"/><path d="m56.202 50h-5v2h7v-7h-2z"/></g></g></svg>