<svg id="_x33_0" enable-background="new 0 0 62 62" height="512" viewBox="0 0 62 62" width="512" xmlns="http://www.w3.org/2000/svg"><g><g><path d="m33 0h-12.423c-11.346 0-20.577 9.231-20.577 20.577 0 3.729 1.014 7.39 2.933 10.587l2.509 4.182c.365.609.558 1.306.558 2.015 0 .842-.278 1.677-.783 2.35l-.913 1.218c-.841 1.12-1.304 2.509-1.304 3.91 0 2.895 1.943 5.471 4.727 6.267l.94.269c.785.223 1.333.949 1.333 1.766 0 .364-.107.717-.309 1.02l-1.007 1.511c-.448.67-.684 1.45-.684 2.258 0 2.244 1.826 4.07 4.07 4.07h9.93v-1l.261-.522c.486-.972.739-2.044.739-3.13 0-.89-.17-1.773-.501-2.599l-.212-.53c-.85-2.127-1.287-4.396-1.287-6.685v-.291c0-.83.248-1.599.66-2.253l-.019.01h-1.57c-1.696 0-3.071-1.375-3.071-3.07 0-.606.179-1.199.516-1.703l.84-1.26c.42-.63.645-1.371.645-2.129-.001-2.12-1.719-3.838-3.839-3.838h-1.162c-2.761 0-5-2.239-5-5s2.239-5 5-5h1v-1c0-2.761 2.239-5 5-5h13 1c.651 0 1.249.212 1.74.564 3.625-1.163 6.26-4.558 6.26-8.564 0-4.962-4.038-9-9-9z" fill="#f0bc5e"/></g><g><path d="m51 12c-6.065 0-11 4.935-11 11 0 3.311 1.452 6.37 4 8.471v5.529c0 3.859 3.14 7 7 7s7-3.141 7-7v-5.529c2.548-2.101 4-5.161 4-8.471 0-6.065-4.935-11-11-11zm-3 12h-1c-.551 0-1-.449-1-1s.449-1 1-1 1 .449 1 1zm4 10h-2v-8h2zm4 2v1c0 .342-.035.677-.101 1h-9.798c-.066-.323-.101-.658-.101-1v-1zm-5 6c-1.627 0-3.061-.793-3.974-2h7.949c-.914 1.207-2.348 2-3.975 2zm5.399-11.812-.399.299v3.513h-2v-8h1c1.654 0 3-1.346 3-3s-1.346-3-3-3-3 1.346-3 3v1h-2v-1c0-1.654-1.346-3-3-3s-3 1.346-3 3 1.346 3 3 3h1v8h-2v-3.513l-.399-.3c-2.289-1.722-3.601-4.342-3.601-7.187 0-4.962 4.038-9 9-9s9 4.038 9 9c0 2.845-1.313 5.465-3.601 7.188zm-2.399-6.188v-1c0-.551.449-1 1-1s1 .449 1 1-.449 1-1 1z"/><path d="m50 4h2v6h-2z"/><path d="m54.123 7.218h6v2h-6z" transform="matrix(.383 -.924 .924 .383 27.664 57.844)"/><path d="m43.877 5.218h2v6h-2z" transform="matrix(.924 -.383 .383 .924 .271 17.797)"/><path d="m12.5 26.197h2v3.606h-2z" transform="matrix(.555 -.832 .832 .555 -17.286 23.701)"/><path d="m31 28c1.654 0 3-1.346 3-3v-2c0-1.654-1.346-3-3-3s-3 1.346-3 3v2c0 1.654 1.346 3 3 3zm-1-5c0-.551.449-1 1-1s1 .449 1 1v2c0 .551-.449 1-1 1s-1-.449-1-1z"/><path d="m40 50c0-.911-.355-1.769-1-2.414l-2.585-2.586c-1.289-1.289-3.541-1.289-4.829 0l-.586.586-1.806-1.806c5.018-1.021 8.806-5.466 8.806-10.78v-13c0-2.206-1.794-4-4-4h-14c-3.309 0-6 2.691-6 6-3.309 0-6 2.691-6 6s2.691 6 6 6h1.162c1.565 0 2.838 1.273 2.838 2.838 0 .562-.165 1.106-.477 1.574l-.839 1.259c-.448.671-.684 1.451-.684 2.259 0 2.244 1.826 4.07 4.07 4.07h.095c-.098.4-.165.812-.165 1.242v.291c0 2.429.458 4.803 1.359 7.057l.212.53c.284.712.429 1.461.429 2.228 0 .927-.219 1.854-.633 2.683l-.985 1.969h14.375c2.891 0 5.243-2.352 5.243-5.242 0-1.401-.545-2.718-1.536-3.707l-.05-.051.586-.586c.645-.645 1-1.503 1-2.414zm-7-12c-2.415 0-4.435-1.721-4.899-4h7.84c-.163 1.468-.678 2.831-1.463 4zm-12.93 6c-1.141 0-2.07-.929-2.07-2.07 0-.41.12-.808.348-1.148l.84-1.26c.531-.798.812-1.726.812-2.684 0-2.668-2.17-4.838-4.838-4.838h-1.162c-2.206 0-4-1.794-4-4s1.794-4 4-4h2v-2c0-2.206 1.794-4 4-4h14c1.103 0 2 .897 2 2v12h-10v1c0 3.747 2.962 6.808 6.667 6.983-1.549 1.259-3.52 2.017-5.667 2.017h-1.757c-1.661 0-3.126.791-4.087 2zm3.358 10.378-.212-.53c-.238-.596-.431-1.204-.599-1.818l7.968 7.97h-7.038c.298-.851.453-1.752.453-2.652 0-1.023-.192-2.022-.572-2.97zm11.329 5.622c-.866 0-1.68-.337-2.293-.949l-9.515-9.517c-.612-.611-.949-1.425-.949-2.292 0-1.788 1.455-3.242 3.243-3.242.866 0 1.68.337 2.293.949l9.515 9.517c.612.611.949 1.425.949 2.292 0 1.788-1.455 3.242-3.243 3.242zm-2.343-13 .586-.586c.533-.535 1.465-.535 2 0l2.585 2.586c.268.268.415.622.415 1s-.147.732-.414 1l-.586.586z"/><path d="m42 54h2v2h-2z"/><path d="m46 54h2v2h-2z"/><path d="m50 54h2v2h-2z"/></g></g></svg>