<svg id="_x33_0" enable-background="new 0 0 62 62" height="512" viewBox="0 0 62 62" width="512" xmlns="http://www.w3.org/2000/svg"><g><g><path d="m36 4h22v10h-22z" fill="#f0bc5e"/></g><g><path d="m26 29c0-.084-.018-.164-.025-.247.522.284 1.007.643 1.439 1.075l.879.879 1.414-1.414-.879-.879c-1.557-1.557-3.626-2.414-5.828-2.414s-4.271.857-5.828 2.414l-.879.879 1.414 1.414.879-.879c.432-.432.917-.791 1.439-1.075-.007.083-.025.163-.025.247 0 1.654 1.346 3 3 3s3-1.346 3-3zm-3 1c-.551 0-1-.449-1-1s.449-1 1-1 1 .449 1 1-.449 1-1 1z"/><path d="m31 38c-2.202 0-4.272.857-5.828 2.414l-.879.879 1.414 1.414.879-.879c1.179-1.179 2.746-1.828 4.414-1.828s3.235.649 4.414 1.828l.879.879 1.414-1.414-.879-.879c-1.556-1.557-3.626-2.414-5.828-2.414z"/><path d="m39 26c-2.202 0-4.271.857-5.828 2.414l-.879.879 1.414 1.414.879-.879c.432-.432.917-.791 1.439-1.075-.007.083-.025.163-.025.247 0 1.654 1.346 3 3 3s3-1.346 3-3c0-.084-.018-.164-.025-.247.522.284 1.007.643 1.439 1.075l.879.879 1.414-1.414-.879-.879c-1.557-1.557-3.626-2.414-5.828-2.414zm1 3c0 .551-.449 1-1 1s-1-.449-1-1 .449-1 1-1 1 .449 1 1z"/><path d="m5 42c-2.757 0-5 2.243-5 5v1h2v-1c0-1.654 1.346-3 3-3s3 1.346 3 3-1.346 3-3 3h-1v6h2v-4.101c2.279-.465 4-2.484 4-4.899 0-2.757-2.243-5-5-5z"/><path d="m4 58h2v2h-2z"/><path d="m57 38c-2.757 0-5 2.243-5 5v1h2v-1c0-1.654 1.346-3 3-3s3 1.346 3 3-1.346 3-3 3h-1v6h2v-4.101c2.279-.465 4-2.484 4-4.899 0-2.757-2.243-5-5-5z"/><path d="m56 54h2v2h-2z"/><path d="m16 8h2v4h-2z"/><path d="m16 14h2v2h-2z"/><path d="m20 8h2v4h-2z"/><path d="m20 14h2v2h-2z"/><path d="m24 8h2v4h-2z"/><path d="m24 14h2v2h-2z"/><path d="m60 0h-30c-1.103 0-2 .897-2 2v2h-18c-1.103 0-2 .897-2 2v12c0 1.103.897 2 2 2h2v6h-1c-2.757 0-5 2.243-5 5s2.243 5 5 5h1v1c0 5.912 3.971 10.906 9.383 12.478-3.283 2.073-5.383 5.714-5.383 9.768v2.754h30v-2.754c0-4.055-2.1-7.695-5.383-9.768 5.412-1.572 9.383-6.566 9.383-12.478v-1h1c2.757 0 5-2.243 5-5s-2.243-5-5-5h-1v-8h10c1.103 0 2-.897 2-2v-14c0-1.103-.897-2-2-2zm-50 6h22v12h-7.414l-3.879 3.879c-.238.238-.707.045-.707-.293v-3.586h-10zm1 28c-1.654 0-3-1.346-3-3s1.346-3 3-3h1v2.132l-1.445-.964-1.109 1.664 2.554 1.703v1.465zm33 25.246v.754h-26v-.754c0-4.128 2.627-7.743 6.479-9.051l2.247 4.493 4.274-4.274 4.274 4.274 2.247-4.493c3.852 1.308 6.479 4.923 6.479 9.051zm-17.382-9.246h1.967l-1.312 1.312zm6.796 0h1.967l-.656 1.312zm17.586-22c1.654 0 3 1.346 3 3s-1.346 3-3 3h-1v-1.465l2.555-1.703-1.109-1.664-1.446.964v-2.132zm-3 9c0 6.065-4.935 11-11 11h-12c-6.065 0-11-4.935-11-11v-17h4v1.586c0 1.331 1.083 2.414 2.414 2.414.645 0 1.251-.251 1.707-.707l3.293-3.293h6.586c1.103 0 2-.897 2-2h4v1.586c0 1.331 1.083 2.414 2.414 2.414.645 0 1.251-.251 1.707-.707l3.293-3.293h2.586zm12-21h-15.414l-3.879 3.879c-.239.238-.707.044-.707-.293v-3.586h-6v-10c0-1.103-.897-2-2-2h-2v-2h30z"/><path d="m36 4h4v2h-4z"/><path d="m42 4h16v2h-16z"/><path d="m36 8h22v2h-22z"/><path d="m36 12h14v2h-14z"/><path d="m52 12h2v2h-2z"/><path d="m56 12h2v2h-2z"/></g></g></svg>