<svg id="_x33_0" enable-background="new 0 0 62 62" height="512" viewBox="0 0 62 62" width="512" xmlns="http://www.w3.org/2000/svg"><g><g><g><path d="m33.057 13.715c.352-3.946 2.406-7.434 5.393-9.756-1.679-2.478-4.454-3.959-7.45-3.959-1.806 0-3.519.523-5 1.52-1.481-.997-3.194-1.52-5-1.52-1.649 0-3.239.446-4.642 1.296-1.298-.85-2.791-1.296-4.358-1.296-2.999 0-5.737 1.684-7.104 4.329-2.907.91-4.896 3.587-4.896 6.671 0 1.901.762 3.691 2.109 5.005-.073.336-.109.665-.109.995 0 2.621 2.027 4.777 4.596 4.984l.404.367v-4.061c0-2.516 1.725-4.703 4.172-5.29l.012-.002c.412 1.163 1.511 2.002 2.816 2.002h10c2.761 0 5 2.239 5 5v1h1c2.761 0 5 2.239 5 5s-2.239 5-5 5h-1v10s-.1 0-.243 0c.69 0 1.332.18 1.908.473 4.732-1.776 8.461-5.412 10.334-10.031v-3.807c-5.083-2.42-8.488-7.798-7.942-13.92z" fill="#f0bc5e"/></g></g><g><path d="m46 25.899v2.101h2v-2h4v-5c0-2.757-2.243-5-5-5-1.654 0-3-1.346-3-3v-3h3c1.654 0 3 1.346 3 3v3h2v-3c0-2.414-1.721-4.434-4-4.899v-2.101h-2v2h-4v5c0 2.757 2.243 5 5 5 1.654 0 3 1.346 3 3v3h-3c-1.654 0-3-1.346-3-3v-3h-2v3c0 2.414 1.721 4.434 4 4.899z"/><path d="m48 48.955v-5.056c1.956-.399 3.5-1.943 3.899-3.899h.101c1.103 0 2-.897 2-2v-9.749c4.881-2.584 8-7.717 8-13.251 0-4.141-1.65-7.996-4.647-10.854-2.995-2.857-6.922-4.318-11.075-4.128-7.443.35-13.555 6.2-14.216 13.609-.23 2.58.195 5.078 1.16 7.32-.932-.597-2.036-.947-3.222-.947 0-3.309-2.691-6-6-6h-10c-1.103 0-2-.897-2-2s.897-2 2-2 2 .897 2 2h2c0-2.206-1.794-4-4-4s-4 1.794-4 4c0 .112.024.217.033.327-2.412.968-4.033 3.296-4.033 5.963v12.614c0 6.118 4.935 11.096 11 11.096h7.586l-3.586 3.586-.586-.586c-1.289-1.289-3.539-1.289-4.828 0l-2.586 2.586c-.645.645-1 1.502-1 2.414s.355 1.77 1 2.414l.586.586-.051.051c-.99.99-1.535 2.306-1.535 3.707 0 2.89 2.352 5.242 5.242 5.242h34.758v-2h-4v-4h3.78c5.635 0 10.22-4.585 10.22-10.22v-1.934l-7.226 1.032c-2.787.399-5.19 1.928-6.774 4.077zm-3.295 5.045h-2.485c-4.407 0-8.016-3.486-8.211-7.846l4.934.705c2.975.424 5.407 2.449 6.474 5.119-1.185-.954-2.837-2.024-5.045-2.907l-.742 1.857c2.37.949 4.022 2.137 5.075 3.072zm2.295-12c-1.302 0-2.402-.839-2.816-2h5.631c-.413 1.161-1.513 2-2.815 2zm-5-10h10v2.014h-10zm0 6v-1.986h10v1.986zm-7.946-24.196c.572-6.418 5.868-11.486 12.317-11.789.213-.01.424-.015.635-.015 3.361 0 6.524 1.263 8.967 3.592 2.596 2.478 4.027 5.82 4.027 9.408 0 4.979-2.916 9.584-7.43 11.732l-.57.271v2.997h-10v-2.997l-.57-.271c-4.971-2.366-7.867-7.44-7.376-12.928zm5.946 14.448v9.748c0 1.103.897 2 2 2h.101c.399 1.956 1.943 3.5 3.899 3.899v5.055c-1.584-2.148-3.987-3.677-6.774-4.076l-5.355-.765c-.429-1.945-1.942-3.476-3.871-3.949v-8.164c3.309 0 6-2.691 6-6 0-.301-.03-.595-.073-.885 1.145 1.244 2.509 2.313 4.073 3.137zm-8 31.748h-10.586l10.586-10.586zm-22.45-24h2.45c3.309 0 6-2.691 6-6h-2c0 2.206-1.794 4-4 4h-3.451c-.349-.968-.549-2.008-.549-3.097v-12.613c0-1.8 1.068-3.381 2.674-4.073.718 1.073 1.94 1.783 3.326 1.783h10c2.206 0 4 1.794 4 4v2h2c2.206 0 4 1.794 4 4s-1.794 4-4 4h-2v10h-11c-3.095 0-5.83-1.588-7.45-4zm4.864 15c-.267-.268-.414-.622-.414-1s.147-.732.414-1l2.586-2.586c.535-.533 1.465-.533 2 0l.586.586-4.586 4.586zm-.414 5.758c0-.866.337-1.681.949-2.293l11.516-11.516c.612-.612 1.427-.949 2.293-.949 1.788 0 3.242 1.454 3.242 3.242 0 .866-.337 1.681-.949 2.293l-11.516 11.516c-.612.612-1.427.949-2.293.949-1.788 0-3.242-1.454-3.242-3.242zm32 3.242h-12v-8.153c1.863 2.517 4.854 4.153 8.22 4.153l3.78-.003v.003zm13.991-13.846c-.195 4.36-3.804 7.846-8.211 7.846h-2.485c1.053-.936 2.705-2.123 5.076-3.071l-.742-1.857c-2.208.883-3.86 1.954-5.046 2.908 1.066-2.67 3.498-4.695 6.474-5.12z"/><path d="m32 26v-2c-2.206 0-4 1.794-4 4h2c0-1.103.897-2 2-2z"/><path d="m14 22c-1.103 0-2-.897-2-2h-2c0 2.206 1.794 4 4 4s4-1.794 4-4h-2c0 1.103-.897 2-2 2z"/><path d="m8 60h-2v-12h-2v12h-2v-4h-2v6h10v-10h-2z"/></g></g></svg>