<svg id="_x33_0" enable-background="new 0 0 62 62.373" height="512" viewBox="0 0 62 62.373" width="512" xmlns="http://www.w3.org/2000/svg"><g><g><path d="m33 0h-12c-10.477 0-19 8.523-19 19v24c0 .421-.164.604-.669 1.059-.562.505-1.331 1.199-1.331 2.545 0 1.347.769 2.04 1.331 2.546.505.454.669.637.669 1.058 0 .419-.164.601-.669 1.056-.561.505-1.331 1.197-1.331 2.542s.77 2.037 1.331 2.542c.505.455.669.636.669 1.055 0 .418-.163.6-.668 1.054-.562.506-1.332 1.198-1.332 2.543v1h18.978l.022-1c.647-2.588 2.165-4.874 4.298-6.474l.145-.108-3.316-4.79c-.734-1.06-1.127-2.319-1.127-3.608 0-2.772 2.247-5.02 5.02-5.02h-1.02c-6.627 0-12-5.373-12-12v-16c0 2.209 1.791 4 4 4h10c1.195 0 2.267-.524 3-1.354.733.83 1.805 1.354 3 1.354h10c.729 0 1.412-.195 2-.535v12.535c0 1.28-.2 2.513-.572 3.67l-.004.002c.499.339.971.723 1.404 1.156l.172.172.172-.172c1.811-1.811 4.267-2.828 6.828-2.828.336 0 .669.02 1 .054v-12.054c0-10.477-8.523-19-19-19z" fill="#f0bc5e"/></g><g><path d="m47.469 35.012 1.063 1.693c1.472-.923 3.466-.922 4.937 0l1.063-1.693c-2.11-1.324-4.954-1.325-7.063 0z"/><path d="m57.001 37.464-1.688 1.072c.45.708.687 1.53.687 2.38 0 .295-.03.592-.09.884l1.96.4c.086-.424.13-.855.13-1.284 0-1.229-.345-2.423-.999-3.452z"/><path d="m34 26c2.206 0 4-1.794 4-4h-2c0 1.103-.897 2-2 2s-2-.897-2-2h-2c0 2.206 1.794 4 4 4z"/><path d="m24 22h-2c0 1.103-.897 2-2 2s-2-.897-2-2h-2c0 2.206 1.794 4 4 4s4-1.794 4-4z"/><path d="m8.669 45.545c.562-.506 1.331-1.199 1.331-2.545h-2c0 .421-.164.604-.669 1.059-.562.505-1.331 1.199-1.331 2.545 0 1.347.769 2.04 1.331 2.546.505.454.669.637.669 1.058 0 .419-.164.601-.669 1.056-.561.505-1.331 1.197-1.331 2.542s.77 2.037 1.331 2.542c.505.455.669.636.669 1.055 0 .418-.163.6-.668 1.054-.562.506-1.332 1.198-1.332 2.543h2c0-.419.164-.601.669-1.056.561-.505 1.331-1.196 1.331-2.541s-.77-2.037-1.331-2.542c-.505-.455-.669-.636-.669-1.055s.164-.601.669-1.056c.561-.505 1.331-1.197 1.331-2.542 0-1.346-.769-2.039-1.331-2.545-.505-.456-.669-.639-.669-1.059s.164-.604.669-1.059z"/><path d="m14.669 45.545c.562-.506 1.331-1.199 1.331-2.545h-2c0 .421-.164.604-.669 1.059-.562.505-1.331 1.199-1.331 2.545 0 1.347.769 2.04 1.331 2.546.505.454.669.637.669 1.058 0 .419-.164.601-.669 1.056-.561.505-1.331 1.197-1.331 2.542s.77 2.037 1.331 2.542c.505.455.669.636.669 1.055 0 .418-.163.6-.668 1.054-.562.506-1.332 1.198-1.332 2.543h2c0-.419.164-.601.669-1.056.561-.505 1.331-1.196 1.331-2.541s-.77-2.037-1.331-2.542c-.505-.455-.669-.636-.669-1.055s.164-.601.669-1.056c.561-.505 1.331-1.197 1.331-2.542 0-1.346-.769-2.039-1.331-2.545-.505-.456-.669-.639-.669-1.059s.164-.604.669-1.059z"/><path d="m58.939 33.524-.403-.403c-2.014-2.013-4.69-3.121-7.536-3.121-2.6 0-5.059.925-7 2.62-.138-.12-.283-.227-.426-.34.278-1.066.426-2.165.426-3.28v-12.026c1.207-.914 2-2.348 2-3.974 0-2.757-2.243-5-5-5-1.654 0-3 1.346-3 3s1.346 3 3 3h1v-2h-1c-.551 0-1-.448-1-1s.449-1 1-1c1.654 0 3 1.346 3 3s-1.346 3-3 3h-10c-.606 0-1.188-.192-1.681-.527.421-.732.681-1.569.681-2.473 0-2.757-2.243-5-5-5-1.654 0-3 1.346-3 3s1.346 3 3 3h1v-2h-1c-.551 0-1-.448-1-1s.449-1 1-1c1.654 0 3 1.346 3 3s-1.346 3-3 3h-10c-1.654 0-3-1.346-3-3s1.346-3 3-3h1v-2h-1c-2.757 0-5 2.243-5 5v16c0 6.108 4.24 11.232 9.927 12.618-1.182 1.1-1.927 2.663-1.927 4.402 0 1.501.451 2.945 1.305 4.178l2.788 4.026c-1.99 1.697-3.425 3.986-4.062 6.534l-.312 1.242h13.524c2.035 0 3.982-.867 5.344-2.38l2.058-2.286 5.355 5.039 14.711-13.846c2.09-1.966 3.289-4.741 3.289-7.611 0-2.792-1.087-5.417-3.061-7.392zm-35.939 6.476c-6.065 0-11-4.935-11-11v-12.026c.838.635 1.87 1.026 3 1.026h10c1.124 0 2.151-.386 2.986-1.014.862.651 1.917 1.014 3.014 1.014h10c.342 0 .677-.035 1-.101v11.101c0 .723-.078 1.436-.216 2.136-1.467-.739-3.094-1.136-4.784-1.136-1.094 0-2.161.167-3.177.483.105-.485.177-.978.177-1.483v-1h-14v1c0 3.859 3.14 7 7 7 .077 0 .153-.01.23-.013-.662 1.234-1.063 2.595-1.185 4.013zm6.464-6.879-.402.403c-.014.014-.026.03-.041.045-.637.282-1.316.431-2.021.431-2.415 0-4.435-1.721-4.899-4h9.8c-.126.619-.381 1.203-.732 1.738-.607.398-1.18.858-1.705 1.383zm-9.464 12.899c0-2.217 1.803-4.02 4.02-4.02 1.472 0 2.824.803 3.529 2.095l1.566 2.871-6.793 4.076-1.373-1.983c-.621-.897-.949-1.948-.949-3.039zm.364 13.98c.611-1.581 1.613-2.983 2.883-4.109l2.085 3.011c.28.404.604.765.953 1.098zm14.737-1.718c-.983 1.092-2.389 1.718-3.858 1.718-1.703 0-3.298-.836-4.267-2.236l-3.513-5.075 6.611-3.966 1.744 3.197-3.372 2.248 1.109 1.664 6.445-4.297v-2.535c0-1.654 1.346-3 3-3s3 1.346 3 3c0 1.042-.384 2.043-1.081 2.817zm22.239-11.212-13.34 12.557-4.016-3.781 2.422-2.691c1.028-1.142 1.594-2.618 1.594-4.155 0-2.757-2.243-5-5-5s-5 2.243-5 5v1.465l-.512.342-4.183-7.669c-.332-.608-.768-1.134-1.267-1.583-.016-.213-.038-.424-.038-.639 0-2.258.879-4.381 2.476-5.978l.402-.403c1.636-1.635 3.81-2.535 6.122-2.535s4.486.9 6.121 2.534l.879.882.878-.881c1.636-1.635 3.81-2.535 6.122-2.535s4.486.9 6.121 2.535l.403.403c1.597 1.597 2.476 3.72 2.476 5.978 0 2.32-.969 4.564-2.66 6.154z"/></g></g></svg>