<svg id="_x33_0" enable-background="new 0 0 62 62" height="512" viewBox="0 0 62 62" width="512" xmlns="http://www.w3.org/2000/svg"><g><g><path d="m49.688 10.273-.981-.98c-3.166-3.165-7.297-5.012-11.729-5.264l3.022-4.029h-22.995c-8.274 0-15.005 6.731-15.005 15.005 0 .708.051 1.422.151 2.122l.905 6.337.253-.005c.604-1.444 2.028-2.459 3.691-2.459h2c0-3.314 2.686-6 6-6h.101c1.263 1.237 2.992 2 4.899 2h17v4h2c1.195 0 2.255.535 2.988 1.365l4.276-5.346-2.746-3.661z" fill="#f0bc5e"/></g><g><path d="m20 22h-2c0 1.103-.897 2-2 2s-2-.897-2-2h-2c0 2.206 1.794 4 4 4s4-1.794 4-4z"/><path d="m30 26c2.206 0 4-1.794 4-4h-2c0 1.103-.897 2-2 2s-2-.897-2-2h-2c0 2.206 1.794 4 4 4z"/><path d="m28 30h-2c0 1.103-.897 2-2 2h-6v2h6c2.206 0 4-1.794 4-4z"/><path d="m35.717 50.253c.177-.382.283-.804.283-1.253 0-1.324-.868-2.438-2.061-2.835-.252-2.679-1.686-5.101-3.893-6.603 4.278-1.236 7.49-4.997 7.904-9.562h1.05c2.757 0 5-2.243 5-5s-2.243-5-5-5h-1v-3c0-3.859-3.14-7-7-7h-9v2h9c2.414 0 4.434 1.721 4.899 4h-15.899c-3.309 0-6-2.691-6-6v-2h-2v2c0 1.557.454 3.006 1.226 4.236-2.687.706-4.743 2.968-5.146 5.764h-1.08c-2.757 0-5 2.243-5 5s2.243 5 5 5h1.051c.414 4.564 3.626 8.326 7.904 9.562-2.208 1.503-3.641 3.925-3.893 6.603-1.194.397-2.062 1.511-2.062 2.835 0 .449.106.871.283 1.253-2.474.741-4.283 3.035-4.283 5.747 0 3.309 2.691 6 6 6h9c1.302 0 2.402-.839 2.816-2h.369c.414 1.161 1.514 2 2.816 2h7c3.309 0 6-2.691 6-6-.001-2.712-1.81-5.006-4.284-5.747zm-7.717-1.253c0-.552.449-1 1-1h4c.551 0 1 .448 1 1s-.449 1-1 1h-4c-.551 0-1-.448-1-1zm11-27c1.654 0 3 1.346 3 3s-1.346 3-3 3h-1v-1.465l2.555-1.703-1.109-1.664-1.446.964v-2.132zm-35 3c0-1.654 1.346-3 3-3h1v2.132l-1.445-.964-1.109 1.664 2.554 1.703v1.465h-1c-1.654 0-3-1.346-3-3zm6 4v-8c0-2.672 2.113-4.844 4.754-4.975 1.406 1.226 3.238 1.975 5.246 1.975h16v11c0 4.963-4.038 9-9 9h-8c-4.962 0-9-4.037-9-9zm17.125 10.994-.491 1.227-1.22-1.221h1.586c.042 0 .083-.006.125-.006zm-6.539.006-1.221 1.221-.491-1.227c.043 0 .084.006.126.006zm-3.408 1.137 1.457 3.642 4.365-4.365 4.365 4.365 1.457-3.642c1.68 1.098 2.817 2.875 3.105 4.863h-2.927c-1.654 0-3 1.346-3 3 0 .395.081.77.22 1.116-.95.258-1.708.965-2.036 1.884h-.369c-.414-1.161-1.514-2-2.816-2h-1.184c.113-.314.185-.648.185-1 0-1.654-1.346-3-3-3h-2.927c.288-1.988 1.425-3.765 3.105-4.863zm8.822 16.863h-2v-4h2c1.103 0 2 .897 2 2s-.897 2-2 2zm-13-10h4c.551 0 1 .448 1 1s-.449 1-1 1h-4c-.551 0-1-.448-1-1s.449-1 1-1zm9 11c0 .552-.449 1-1 1h-9c-2.206 0-4-1.794-4-4s1.794-4 4-4h9c.551 0 1 .448 1 1zm12 1h-7c-.118 0-.228-.03-.333-.067 1.887-.32 3.333-1.955 3.333-3.933s-1.446-3.613-3.333-3.933c.105-.037.215-.067.333-.067h7c2.206 0 4 1.794 4 4s-1.794 4-4 4z"/><path d="m2 38h2v-2h2v-2h-2v-2h-2v2h-2v2h2z"/><path d="m2 46h2v-2h2v-2h-2v-2h-2v2h-2v2h2z"/><path d="m6 52v-2h-2v-2h-2v2h-2v2h2v2h2v-2z"/><path d="m60 8v-2h-2v2h-2v2h2v2h2v-2h2v-2z"/><path d="m60 14h-2v2h-2v2h2v2h2v-2h2v-2h-2z"/><path d="m60 22h-2v2h-2v2h2v2h2v-2h2v-2h-2z"/><path d="m22 46h2v2h-2z"/><path d="m22 42h2v2h-2z"/><path d="m60 32h-16c-1.103 0-2 .897-2 2v3.343c0 3.59 1.282 6.983 3.63 9.657-2.348 2.674-3.63 6.067-3.63 9.657v3.343c0 1.103.897 2 2 2h16c1.103 0 2-.897 2-2v-3.343c0-3.59-1.282-6.983-3.63-9.657 2.348-2.674 3.63-6.067 3.63-9.657v-3.343c0-1.103-.897-2-2-2zm0 2v2h-16v-2zm-16 26v-2h16v2zm12.293-12.293c2.234 2.234 3.515 5.16 3.675 8.293h-15.936c.16-3.133 1.441-6.059 3.675-8.293l.707-.707-.707-.707c-2.234-2.234-3.515-5.16-3.675-8.293h15.936c-.16 3.133-1.441 6.059-3.675 8.293l-.707.707z"/></g></g></svg>