<svg id="_x33_0" enable-background="new 0 0 62 62.302" height="512" viewBox="0 0 62 62.302" width="512" xmlns="http://www.w3.org/2000/svg"><g><g><path d="m39 26.302c-.042 0-.084 0-.127.001l-.019.011c.086-.325.146-.66.146-1.012 0-2.209-1.791-4-4-4s-4 1.791-4 4c0-2.209-1.791-4-4-4s-4 1.791-4 4c0 .352.06.687.145 1.012l-.019-.011c-.042-.001-.084-.001-.127-.001-3.314 0-6 2.686-6 6 0 1.093.292 2.117.803 3h26.395c.511-.883.803-1.907.803-3 0-3.314-2.686-6-6-6z" fill="#f0bc5e"/></g><g><path d="m24 44.302c2.206 0 4-1.794 4-4h-2c0 1.103-.897 2-2 2s-2-.897-2-2h-2c0 2.206 1.794 4 4 4z"/><path d="m38 44.302c2.206 0 4-1.794 4-4h-2c0 1.103-.897 2-2 2s-2-.897-2-2h-2c0 2.206 1.794 4 4 4z"/><path d="m26 55.302h6c3.309 0 6-2.691 6-6h-2c0 2.206-1.794 4-4 4h-6z"/><path d="m49 38.302h-1v-2c0-1.103-.897-2-2-2h-.302c.193-.647.302-1.319.302-2 0-3.522-2.618-6.437-6.008-6.921 0-.027.008-.052.008-.079 0-2.757-2.243-5-5-5-1.13 0-2.162.391-3 1.026v-3.026h4c4.411 0 8-3.589 8-8v-6h-6c-.623 0-1.231.096-1.829.237-.35-.438-.74-.847-1.179-1.214l-3.992-3.325-3.991 3.325c-.439.366-.83.776-1.179 1.214-.599-.141-1.207-.237-1.83-.237h-6v6c0 4.411 3.589 8 8 8h4v3.026c-.838-.635-1.87-1.026-3-1.026-2.757 0-5 2.243-5 5 0 .027.008.052.008.079-3.39.484-6.008 3.399-6.008 6.921 0 .681.109 1.353.302 2h-.302c-1.103 0-2 .897-2 2v2h-1c-2.757 0-5 2.243-5 5s2.243 5 5 5h1v1c0 7.168 5.832 13 13 13h8c7.168 0 13-5.832 13-13v-1h1c2.757 0 5-2.243 5-5s-2.243-5-5-5zm-14-16c1.654 0 3 1.346 3 3s-1.346 3-3 3c-.254 0-.507-.032-.751-.095l-.498 1.938c.407.104.827.157 1.249.157 2.023 0 3.76-1.213 4.546-2.945 2.498.276 4.454 2.375 4.454 4.945 0 .692-.148 1.372-.422 2h-1.578c0-2.206-1.794-4-4-4v2c1.103 0 2 .897 2 2h-8v-9c0-1.655 1.346-3 3-3zm3-16h4v4c0 3.309-2.691 6-6 6h-1.191c1.392-1.094 2.402-2.578 2.877-4.272l3.021-3.021-1.414-1.414-1.338 1.338c-.087-.897-.32-1.763-.679-2.573.24-.029.48-.058.724-.058zm-9.71-1.44 2.71-2.258 2.71 2.259c1.455 1.212 2.29 2.993 2.29 4.888 0 2.426-1.348 4.606-3.518 5.691l-.482.242v-3.968l2.707-2.707-1.414-1.414-1.293 1.293v-2.586h-2v4.586l-1.293-1.293-1.414 1.414 2.707 2.707v1.968l-.482-.241c-2.17-1.086-3.518-3.266-3.518-5.692 0-1.895.835-3.676 2.29-4.889zm-8.29 5.44v-4h4c.244 0 .484.029.724.058-.359.81-.591 1.676-.679 2.573l-1.338-1.338-1.414 1.414 3.021 3.021c.475 1.693 1.485 3.178 2.877 4.272h-1.191c-3.309 0-6-2.692-6-6zm-2 22c0-2.57 1.956-4.668 4.454-4.945.787 1.732 2.524 2.945 4.546 2.945.422 0 .842-.053 1.249-.157l-.498-1.938c-.244.063-.497.095-.751.095-1.654 0-3-1.346-3-3s1.346-3 3-3 3 1.346 3 3v9h-8c0-1.103.897-2 2-2v-2c-2.206 0-4 1.794-4 4h-1.578c-.274-.628-.422-1.309-.422-2zm-5 14c-1.654 0-3-1.346-3-3s1.346-3 3-3h1v2.132l-1.445-.964-1.109 1.664 2.554 1.703v1.465zm33 3c0 6.065-4.935 11-11 11h-8c-6.065 0-11-4.935-11-11v-13l30-.002zm3-3h-1v-1.465l2.555-1.703-1.109-1.664-1.446.963v-2.132h1c1.654 0 3 1.346 3 3s-1.346 3.001-3 3.001z"/><path d="m0 28.302h4v2h-4z"/><path d="m6 28.302h6v2h-6z"/><path d="m5.481 18.424h1.999v12h-1.999z" transform="matrix(.195 -.981 .981 .195 -18.739 26.016)"/><path d="m3.208 16.204h2v4.001h-2z" transform="matrix(.383 -.924 .924 .383 -14.221 15.124)"/><path d="m9.675 17.883h2v6h-2z" transform="matrix(.383 -.924 .924 .383 -12.704 22.75)"/><path d="m9.494 6.796h2v4h-2z" transform="matrix(.707 -.707 .707 .707 -3.146 9.997)"/><path d="m14.444 10.745h2v6.001h-2z" transform="matrix(.707 -.707 .707 .707 -5.196 14.946)"/><path d="m.48 33.179h12v1.999h-12z" transform="matrix(.981 -.195 .195 .981 -6.543 1.921)"/><path d="m9.214 9.413h1.999v12h-1.999z" transform="matrix(.556 -.832 .832 .556 -8.276 15.342)"/><path d="m58 28.302h4v2h-4z"/><path d="m50 28.302h6v2h-6z"/><path d="m49.52 23.425h12v1.999h-12z" transform="matrix(.981 -.195 .195 .981 -3.698 11.299)"/><path d="m55.792 17.204h4.001v2h-4.001z" transform="matrix(.924 -.383 .383 .924 -2.567 23.505)"/><path d="m48.325 19.883h6v2h-6z" transform="matrix(.924 -.383 .383 .924 -4.085 21.239)"/><path d="m49.506 7.796h4v2h-4z" transform="matrix(.707 -.707 .707 .707 8.866 38.996)"/><path d="m43.556 12.746h6.001v2h-6.001z" transform="matrix(.707 -.707 .707 .707 3.916 36.946)"/><path d="m54.52 28.179h1.999v12h-1.999z" transform="matrix(.195 -.981 .981 .195 11.167 81.965)"/><path d="m45.787 14.413h12v1.999h-12z" transform="matrix(.832 -.556 .556 .832 .165 31.369)"/></g></g></svg>