<svg id="_x33_0" enable-background="new 0 0 62.414 62" height="512" viewBox="0 0 62.414 62" width="512" xmlns="http://www.w3.org/2000/svg"><g><path d="m40 13c0-1.232.25-2.407.7-3.478-2.427-5.595-8-9.522-14.477-9.522h-10.446c-8.699 0-15.777 7.078-15.777 15.777 0 .865.072 1.738.215 2.593l.849 5.09h.246c.602-1.444 2.027-2.46 3.69-2.46h2c0-3.314 2.686-6 6-6 0 0 .709 0 .708 0 1.41 1.245 3.263 2 5.292 2h12c2.209 0 4 1.791 4 4h2c1.663 0 3.088 1.016 3.691 2.46h.246l.849-5.09c.001-.004.001-.007.001-.011-1.117-1.499-1.787-3.35-1.787-5.359z" fill="#f0bc5e"/><g><path d="m26 30h-2c0 1.103-.897 2-2 2h-6v2h6c2.206 0 4-1.794 4-4z"/><path d="m18 23c0-1.654-1.346-3-3-3s-3 1.346-3 3 1.346 3 3 3 3-1.346 3-3zm-3 1c-.552 0-1-.448-1-1s.448-1 1-1 1 .448 1 1-.448 1-1 1z"/><path d="m27 26c1.654 0 3-1.346 3-3s-1.346-3-3-3-3 1.346-3 3 1.346 3 3 3zm0-4c.552 0 1 .448 1 1s-.448 1-1 1-1-.448-1-1 .448-1 1-1z"/><path d="m46 46v4l6.667-5-6.667-5v4h-4.049c-.225-5.212-2.194-10.098-5.637-14h.686c2.757 0 5-2.243 5-5 0-.398-.059-.78-.147-1.152 2.099 1.396 4.554 2.152 7.147 2.152 7.168 0 13-5.832 13-13s-5.832-13-13-13c-4.321 0-8.298 2.129-10.708 5.637.465.552.884 1.142 1.271 1.755 1.981-3.331 5.537-5.392 9.437-5.392 6.065 0 11 4.935 11 11s-4.935 11-11 11c-2.889 0-5.576-1.105-7.636-3.101l-.218 1.309c-.9-1.331-2.423-2.208-4.146-2.208h-1v-2c0-5.514-4.486-10-10-10h-2v2h2c4.059 0 7.414 3.041 7.925 6.964-.825-.6-1.83-.964-2.925-.964h-12c-3.859 0-7-3.141-7-7v-1h-2v1c0 1.91.602 3.68 1.621 5.138-2.88.578-5.119 2.93-5.541 5.862h-1.08c-2.757 0-5 2.243-5 5s2.243 5 5 5h1.051c.311 3.426 2.196 6.4 4.928 8.194-5.103.953-8.979 5.432-8.979 10.806 0 2.757 2.243 5 5 5h11c1.103 0 2-.897 2-2h2c1.994 0 3.638-1.47 3.937-3.382l6.168 6.784c-.247.285-.493.571-.762.841l-.429.429c-.581.581-.914 1.385-.914 2.207 0 1.721 1.4 3.121 3.121 3.121.822 0 1.626-.333 2.222-.929 4.055-4.055 6.362-9.377 6.609-15.071zm2-2 1.333 1-1.333 1zm-10.049 0c-.242-4.404-2.051-8.514-5.194-11.657l-.429-.429c-.209-.209-.328-.498-.328-.793 0-.618.503-1.121 1.121-1.121.295 0 .584.119.793.328l.015.015c3.677 3.677 5.778 8.497 6.022 13.657zm-4.602-7.797c.765 1.147 1.357 2.387 1.797 3.684-1.118-.757-2.359-1.309-3.682-1.61zm-3.495 3.845c2.356.221 4.508 1.352 6.042 3.185.028.254.04.51.056.767h-9.69zm10.146-15.048c0 1.654-1.346 3-3 3h-1v-1.465l2.555-1.703-1.109-1.664-1.446.964v-2.132h1c1.654 0 3 1.346 3 3zm-38 0c0-1.654 1.346-3 3-3h1v2.132l-1.445-.964-1.109 1.664 2.554 1.703v1.465h-1c-1.654 0-3-1.346-3-3zm6 4v-8c0-2.757 2.243-5 5-5h.355c1.545 1.248 3.508 2 5.645 2h12c1.654 0 3 1.346 3 3v7.143c-.285-.085-.579-.143-.879-.143-1.721 0-3.121 1.4-3.121 3.121 0 .822.333 1.626.914 2.207l.429.429c.255.255.486.527.721.795-1.702 2.165-4.284 3.448-7.064 3.448h-8c-4.963 0-9-4.037-9-9zm-1 23c-1.654 0-3-1.346-3-3 0-4.963 4.037-9 9-9h14.194l-3.636 4h-13.972l-2.293 2.293 1.414 1.414 1.707-1.707h7.586v6zm15-2h-2v-4h2c1.103 0 2 .897 2 2s-.897 2-2 2zm4.261-4h9.69c-.174 2.811-1.061 5.486-2.602 7.797zm7.653 13.672c-.209.209-.498.328-.793.328-.618 0-1.121-.503-1.121-1.121 0-.295.119-.584.328-.793l.429-.429c3.143-3.143 4.952-7.253 5.194-11.657h2c-.244 5.16-2.346 9.981-6.037 13.672z"/><path d="m57.293 54.707 1.293 1.293h-16.586v2h16.586l-1.293 1.293 1.414 1.414 3.707-3.707-3.707-3.707z"/><path d="m58.707 35.293-1.414 1.414 1.293 1.293h-8.586v2h8.586l-1.293 1.293 1.414 1.414 3.707-3.707z"/><path d="m42 32h12.586l-1.293 1.293 1.414 1.414 3.707-3.707-3.707-3.707-1.414 1.414 1.293 1.293h-12.586z"/><path d="m60 48h2v2h-2z"/><path d="m56 48h2v2h-2z"/><path d="m52 48h2v2h-2z"/><path d="m49 18c2.757 0 5-2.243 5-5s-2.243-5-5-5-5 2.243-5 5 2.243 5 5 5zm0-8c1.654 0 3 1.346 3 3s-1.346 3-3 3-3-1.346-3-3 1.346-3 3-3z"/><path d="m49 22c4.963 0 9-4.037 9-9s-4.037-9-9-9-9 4.037-9 9 4.037 9 9 9zm0-16c3.859 0 7 3.141 7 7s-3.141 7-7 7-7-3.141-7-7 3.141-7 7-7z"/><path d="m16 8h6v2h-6z"/></g></g></svg>