<svg id="_x33_0" enable-background="new 0 0 62 62.618" height="512" viewBox="0 0 62 62.618" width="512" xmlns="http://www.w3.org/2000/svg"><g><g><g><path d="m61.141 48.628c-.466-.066-.836-.354-1.017-.789-.181-.436-.122-.901.161-1.278l.521-.693-4.055-4.055-.694.521c-.376.282-.842.341-1.277.161-.435-.181-.723-.551-.79-1.018l-.123-.858h-5.734l-.123.858c-.067.467-.354.837-.79 1.018-.436.179-.901.121-1.277-.161l-.694-.521-4.055 4.055.521.693c.282.377.341.843.161 1.278-.18.436-.551.723-1.017.789l-.859.123v2.867h5c0-3.31 2.69-6 6-6s6 2.69 6 6-2.69 6-6 6c-.057 0-.114-.001-.171-.002l-.01-.007c-.411 1.167-1.511 2.01-2.819 2.01h-3v1.556l.25.25.693-.521c.376-.282.842-.341 1.277-.161.435.181.723.551.79 1.018l.123.858h5.734l.123-.858c.067-.467.354-.837.79-1.018.435-.181.901-.122 1.277.161l.694.521 4.055-4.055-.521-.693c-.282-.377-.341-.843-.161-1.278.18-.436.551-.723 1.017-.789l.859-.125v-5.734z" fill="#f0bc5e"/></g></g><g><path d="m39.369 9.117 2.25-4.499h-10.07c.297-.832.451-1.712.451-2.605v-2.013l-1.447.724c-2.478 1.239-5.253 1.895-8.025 1.895h-7.523c-8.274-.001-15.005 6.731-15.005 15.004 0 .708.051 1.422.151 2.122l.905 6.336.253-.005c.604-1.443 2.028-2.458 3.69-2.458h2v-.222c0-4.296 3.482-7.778 7.778-7.778 2.063 0 4.041.819 5.5 2.278l.723.722.722-.722c1.459-1.459 3.437-2.278 5.5-2.278 4.296 0 7.778 3.482 7.778 7.778v.222h2c1.226 0 2.31.563 3.043 1.432l.219-.182c3.647-3.039 5.738-7.504 5.738-12.25v-.659z" fill="#f0bc5e"/></g><g><path d="m51 44.618c-3.519 0-6.432 2.614-6.92 6h-15.666l-4.05-4.05c-.007-.007-.015-.013-.022-.02 6.54-.673 11.658-6.215 11.658-12.93v-1h1c2.757 0 5-2.243 5-5s-2.243-5-5-5h-1.039c-.396-4.477-4.161-8-8.739-8-2.345 0-4.549.913-6.207 2.571l-.015.015-.015-.015c-1.658-1.658-3.862-2.571-6.207-2.571-4.578 0-8.343 3.523-8.739 8h-1.039c-2.757 0-5 2.243-5 5s2.243 5 5 5h1v1c0 5.939 4.008 10.95 9.458 12.497-1.498 1.222-2.458 3.081-2.458 5.16 0 1.777.692 3.448 1.95 4.707l.05.051v6.585h31v-2h2c1.483 0 2.766-.821 3.456-2.023 3.647-.237 6.544-3.271 6.544-6.977 0-3.859-3.14-7-7-7zm-11-17c0 1.654-1.346 3-3 3h-1v-1.465l2.555-1.703-1.109-1.664-1.446.964v-2.132h1c1.654 0 3 1.346 3 3zm-35 3c-1.654 0-3-1.346-3-3s1.346-3 3-3h1v2.132l-1.445-.964-1.11 1.664 2.555 1.703v1.465zm14 14c-6.065 0-11-4.935-11-11v-10.222c0-3.737 3.041-6.778 6.778-6.778 1.811 0 3.513.705 4.793 1.985l1.429 1.429 1.429-1.429c1.28-1.28 2.982-1.985 4.793-1.985 3.738 0 6.778 3.041 6.778 6.778v10.222c0 6.065-4.935 11-11 11zm-2 16v-2.586l2.535 2.535c.017.017.034.034.052.051zm3.95-1.465-4.585-4.585c-.88-.88-1.364-2.05-1.364-3.293 0-2.568 2.089-4.657 4.657-4.657 1.245 0 2.414.484 3.293 1.364l3.636 3.636-1.293 1.293 1.414 1.414 1.707-1.707h11.585v8h-15.515c-1.336 0-2.591-.52-3.535-1.465zm23.05 1.465h-2v-8h2zm4-2h-2v-4h2c1.103 0 2 .897 2 2s-.897 2-2 2zm3.99-2.1c-.055-2.159-1.819-3.9-3.99-3.9h-1.889c-.067-.328-.111-.661-.111-1 0-2.757 2.243-5 5-5s5 2.243 5 5c0 2.418-1.726 4.439-4.01 4.9z"/><path d="m16 26.618h2c0-2.206-1.794-4-4-4s-4 1.794-4 4h2c0-1.103.897-2 2-2s2 .898 2 2z"/><path d="m28 24.618c1.103 0 2 .897 2 2h2c0-2.206-1.794-4-4-4s-4 1.794-4 4h2c0-1.102.897-2 2-2z"/><path d="m28 33.618v-3h-14v3c0 3.859 3.14 7 7 7s7-3.14 7-7zm-7 5c-2.757 0-5-2.243-5-5v-1h10v1c0 2.757-2.243 5-5 5z"/><path d="m48.618 32.618h-4.618v2h3.382l2 4h8.618v-2h-7.382z"/><path d="m60 36.618h2v2h-2z"/><path d="m51.618 24.618h-7.618v2h6.382l2 4h5.618v-2h-4.382z"/><path d="m60 28.618h2v2h-2z"/><path d="m52 32.618h2v2h-2z"/><path d="m56 32.618h2v2h-2z"/><path d="m60 4.618h2v2h-2z"/><path d="m48.618 10.618 2-4h7.382v-2h-8.618l-2 4h-7.764l-.249.499 3.502 1.501z"/><path d="m58 12.618h-5.618l-2 4h-4.909c-.177.683-.401 1.349-.665 2h6.811l2-4h4.381z"/><path d="m60 12.618h2v2h-2z"/><path d="m52 8.618h2v2h-2z"/><path d="m56 8.618h2v2h-2z"/><path d="m54 20.618h2v2h-2z"/><path d="m58 20.618h2v2h-2z"/></g></g></svg>