<svg id="_x33_0" enable-background="new 0 0 62 62" height="512" viewBox="0 0 62 62" width="512" xmlns="http://www.w3.org/2000/svg"><g><g><g><path d="m4 31h1v-1c0-1.963.943-3.706 2.4-4.801l-2.421-2.421 1.47-2.057c-.394-.726-.709-1.498-.949-2.304l-2.5-.417v-.616l-.095.123c-1.901 2.474-2.905 5.435-2.905 8.564 0 .663.047 1.333.142 1.99l.713 4.988h.314c.398-1.187 1.508-2.049 2.831-2.049z" fill="#f0bc5e"/></g><g><path d="m31.095 17.507-.095-.123v.616l-2.5.417c-.239.806-.554 1.579-.948 2.304l1.47 2.057-2.422 2.421c1.457 1.095 2.4 2.838 2.4 4.801v1h1c1.322 0 2.432.861 2.831 2.049h.315l.712-4.987c.095-.658.142-1.328.142-1.991 0-3.129-1.004-6.09-2.905-8.564z" fill="#f0bc5e"/></g></g><g><path d="m14 35c0-1.654-1.346-3-3-3s-3 1.346-3 3v1h2v-1c0-.552.449-1 1-1s1 .448 1 1v1h2z"/><path d="m23 32c-1.654 0-3 1.346-3 3v1h2v-1c0-.552.449-1 1-1s1 .448 1 1v1h2v-1c0-1.654-1.346-3-3-3z"/><path d="m18 42h-4v2h4c2.206 0 4-1.794 4-4h-2c0 1.103-.897 2-2 2z"/><path d="m17 18c1.654 0 3-1.346 3-3s-1.346-3-3-3-3 1.346-3 3 1.346 3 3 3zm0-4c.551 0 1 .448 1 1s-.449 1-1 1-1-.448-1-1 .449-1 1-1z"/><path d="m17 22c3.86 0 7-3.141 7-7s-3.14-7-7-7-7 3.141-7 7 3.14 7 7 7zm0-12c2.757 0 5 2.243 5 5s-2.243 5-5 5-5-2.243-5-5 2.243-5 5-5z"/><circle cx="17" cy="5" r="1"/><path d="m9.929 8.929c.256 0 .512-.098.707-.293.391-.391.391-1.024 0-1.414-.195-.195-.451-.293-.707-.293s-.512.098-.707.293c-.391.391-.391 1.024 0 1.414.195.195.451.293.707.293z"/><circle cx="7" cy="15" r="1"/><path d="m9.929 23.071c.256 0 .512-.098.707-.293.391-.391.391-1.024 0-1.414-.195-.195-.451-.293-.707-.293s-.512.098-.707.293c-.391.391-.391 1.024 0 1.414.195.195.451.293.707.293z"/><circle cx="17" cy="25" r="1"/><path d="m24.071 21.071c-.256 0-.512.098-.707.293-.391.391-.391 1.024 0 1.414.195.195.451.293.707.293s.512-.098.707-.293c.391-.391.391-1.024 0-1.414-.195-.195-.451-.293-.707-.293z"/><circle cx="27" cy="15" r="1"/><path d="m24.071 8.929c.256 0 .512-.098.707-.293.391-.391.391-1.024 0-1.414-.195-.195-.451-.293-.707-.293s-.512.098-.707.293c-.391.391-.391 1.024 0 1.414.195.195.451.293.707.293z"/><path d="m30 30c0-1.836-.706-3.542-1.951-4.836l2.278-2.278-1.609-2.253c.204-.428.387-.872.546-1.33l2.736-.456v-7.693l-2.736-.457c-.16-.458-.342-.902-.546-1.33l1.609-2.253-5.441-5.439-2.252 1.608c-.427-.204-.872-.387-1.331-.547l-.456-2.736h-7.694l-.456 2.735c-.458.16-.903.343-1.331.547l-2.252-1.608-5.441 5.439 1.609 2.253c-.204.428-.387.872-.546 1.33l-2.736.457v7.693l2.736.457c.16.458.342.902.546 1.33l-1.609 2.253 2.278 2.278c-1.245 1.294-1.951 3-1.951 4.836-2.206 0-4 1.794-4 4s1.794 4 4 4v1c0 4.963 4.038 9 9 9h.155c-.712.895-1.155 2.012-1.155 3.242v10.758h10.757c2.891 0 5.243-2.352 5.243-5.242 0-1.185-.41-2.296-1.13-3.214l.13-.13c.645-.646 1-1.503 1-2.414s-.355-1.769-1-2.414l-1.585-1.586c-.036-.036-.08-.06-.117-.094 2.798-1.528 4.702-4.499 4.702-7.906v-1c2.206 0 4-1.794 4-4s-1.794-4-4-4zm-26-12.847v-4.307l2.281-.38.178-.599c.223-.75.515-1.461.869-2.111l.298-.55-1.341-1.876 3.045-3.045 1.878 1.342.55-.3c.65-.354 1.36-.646 2.11-.868l.599-.178.38-2.281h4.306l.38 2.281.599.178c.75.223 1.46.515 2.11.868l.55.3 1.878-1.342 3.044 3.045-1.341 1.877.298.55c.354.65.646 1.361.869 2.111l.178.599 2.282.38v4.307l-2.281.38-.178.599c-.223.75-.515 1.461-.869 2.111l-.298.55 1.341 1.877-3.044 3.045-1.878-1.342-.55.3c-.65.354-1.36.646-2.11.868l-.599.178-.381 2.28h-4.306l-.38-2.281-.599-.178c-.75-.223-1.46-.515-2.11-.868l-.55-.3-1.878 1.342-3.045-3.045 1.341-1.877-.298-.55c-.354-.65-.646-1.361-.869-2.111l-.178-.599zm-2 16.847c0-1.103.897-2 2-2v4c-1.103 0-2-.897-2-2zm12 21.414 4.585 4.586h-4.585zm8.757 4.586c-.866 0-1.68-.337-2.293-.949l-5.515-5.517c-.612-.611-.949-1.425-.949-2.292 0-1.788 1.455-3.242 3.243-3.242.866 0 1.68.337 2.293.949l5.515 5.517c.612.611.949 1.425.949 2.292 0 1.788-1.455 3.242-3.243 3.242zm2.828-10c.268.268.415.622.415 1s-.147.732-.414 1l-.086.086-3.585-3.586.085-.086c.533-.535 1.465-.535 2 0zm2.415-11c0 3.859-3.14 7-7 7h-8c-3.86 0-7-3.141-7-7v-9c0-1.297.493-2.502 1.365-3.423l1.749 1.749 2.252-1.608c.427.204.872.387 1.331.547l.456 2.735h7.694l.456-2.735c.458-.16.903-.343 1.331-.547l2.252 1.608 1.749-1.749c.872.921 1.365 2.126 1.365 3.423zm2-3v-4c1.103 0 2 .897 2 2s-.897 2-2 2z"/><path d="m58 39.303 2-3v-6.303h-6v2h-2v-2h-6v2h-2v-2h-6v6.303l2 3v13.283l-4 4v5.414h26v-5.414l-4-4zm-2 12.697h-14v-12h14zm-16-20h2v2h6v-2h2v2h6v-2h2v3.697l-1.535 2.303h-14.93l-1.535-2.303zm-2 28v-2h22v2zm20.586-4h-19.172l2-2h15.172z"/><path d="m54 28h2v-4h2v-2h-4z"/><path d="m60 22h2v2h-2z"/><path d="m52 8h4v-2h-6v22h2z"/><path d="m58 6h2v2h-2z"/><path d="m60 16h2v2h-2z"/><path d="m56 16h2v2h-2z"/><path d="m44 28v-10h-4v2h2v8z"/><path d="m36 18h2v2h-2z"/><path d="m48 28v-16h-6v2h4v14z"/><path d="m38 12h2v2h-2z"/><path d="m40 6h2v2h-2z"/><path d="m44 6h2v2h-2z"/></g></g></svg>