<svg id="_x33_0" enable-background="new 0 0 62.868 62" height="512" viewBox="0 0 62.868 62" width="512" xmlns="http://www.w3.org/2000/svg"><g><g><g><path d="m1.361 24.157c.735-1.847 2.53-3.157 4.639-3.157h3c0-2.209 1.791-4 4-4h24c2.209 0 4 1.791 4 4v2c0-3.314 2.686-6 6-6 1.07 0 2.071.286 2.94.778l-.004-.417c.043-.471.064-.949.064-1.423 0-8.788-7.15-15.938-15.938-15.938h-18.124c-8.788 0-15.938 7.15-15.938 15.938 0 .755.054 1.514.16 2.254l.852 5.958z" fill="#f0bc5e"/></g></g><g><path d="m55 30c1.654 0 3-1.346 3-3s-1.346-3-3-3-3 1.346-3 3 1.346 3 3 3zm0-4c.552 0 1 .449 1 1s-.448 1-1 1-1-.449-1-1 .448-1 1-1z"/><path d="m47 20c-1.654 0-3 1.346-3 3s1.346 3 3 3 3-1.346 3-3-1.346-3-3-3zm0 4c-.552 0-1-.449-1-1s.448-1 1-1 1 .449 1 1-.448 1-1 1z"/><path d="m47 28c-1.654 0-3 1.346-3 3s1.346 3 3 3 3-1.346 3-3-1.346-3-3-3zm0 4c-.552 0-1-.449-1-1s.448-1 1-1 1 .449 1 1-.448 1-1 1z"/><path d="m3 56c-1.654 0-3 1.346-3 3s1.346 3 3 3 3-1.346 3-3-1.346-3-3-3zm0 4c-.552 0-1-.448-1-1s.448-1 1-1 1 .448 1 1-.448 1-1 1z"/><path d="m3 48c-1.654 0-3 1.346-3 3s1.346 3 3 3 3-1.346 3-3-1.346-3-3-3zm0 4c-.552 0-1-.448-1-1s.448-1 1-1 1 .448 1 1-.448 1-1 1z"/><path d="m3 40c-1.654 0-3 1.346-3 3s1.346 3 3 3 3-1.346 3-3-1.346-3-3-3zm0 4c-.552 0-1-.448-1-1s.448-1 1-1 1 .448 1 1-.448 1-1 1z"/><path d="m62.868 10h-2.868v-4h-2v6h1.132l-2.132 3.197-2.132-3.197h1.132v-12h-2v10h-2.868l5.868 8.803z"/><path d="m58 0h2v4h-2z"/><path d="m51.132 52h2.868v4h2v-6h-1.132l2.132-3.197 2.132 3.197h-1.132v12h2v-10h2.868l-5.868-8.803z"/><path d="m54 58h2v4h-2z"/><path d="m53.404 33.814c.523.124 1.056.186 1.596.186 3.859 0 7-3.14 7-7s-3.141-7-7-7c-.54 0-1.073.063-1.596.186-1.102-2.508-3.606-4.186-6.404-4.186-2.264 0-4.275 1.085-5.555 2.758-.415-.819-1.039-1.508-1.815-1.992 1.437-1.097 2.37-2.822 2.37-4.766 0-3.309-2.691-6-6-6s-6 2.691-6 6h2c0-2.206 1.794-4 4-4s4 1.794 4 4-1.794 4-4 4h-11.54c.954-1.063 1.54-2.462 1.54-4 0-3.309-2.691-6-6-6s-6 2.691-6 6h2c0-2.206 1.794-4 4-4s4 1.794 4 4-1.794 4-4 4h-7c-2.414 0-4.434 1.721-4.899 4h-2.101c-3.309 0-6 2.691-6 6s2.691 6 6 6h2v3c0 5.488 3.424 10.182 8.243 12.086-3.755 1.802-6.243 5.627-6.243 9.914v5h30v-5c0-4.287-2.488-8.112-6.243-9.914 4.57-1.805 7.87-6.122 8.201-11.244 1.274 1.327 3.061 2.158 5.042 2.158 2.798 0 5.302-1.678 6.404-4.186zm-47.404-3.814c-2.206 0-4-1.794-4-4s1.794-4 4-4h2v3.003c-1.156-.651-2.464-1.003-3.828-1.003h-.172v2h.172c1.424 0 2.766.513 3.828 1.441v2.559zm32 27v3h-26v-3c0-3.768 2.348-7.102 5.809-8.412l1.755 5.264 5.436-5.438 5.437 5.437 1.755-5.264c3.46 1.311 5.808 4.645 5.808 8.413zm-18.302-9.066c.429.043.863.066 1.302.066h1.586l-2.149 2.148zm7.716.066h1.586c.439 0 .873-.023 1.302-.066l-.738 2.214zm12.586-13c0 6.065-4.935 11-11 11h-8c-6.065 0-11-4.935-11-11v-14c0-1.654 1.346-3 3-3h24c1.654 0 3 1.346 3 3v2c0 .334.024.668.073 1h-8.768c-1.15-2.413-3.59-4-6.305-4-3.859 0-7 3.14-7 7 0 2.714 1.581 5.17 4 6.318v8.682h6v-8.681c1.464-.692 2.632-1.86 3.324-3.319h8.75c-.05.332-.074.666-.074 1zm-16.666-3.292c-.946-.335-1.738-.943-2.316-1.708h7.968c-.588.774-1.393 1.38-2.32 1.709l-.666.236v8.055h-2v-8.055zm5.663-7.708h-7.972c.914-1.207 2.348-2 3.974-2 1.6 0 3.07.766 3.998 2zm18.003 12c-2.757 0-5-2.243-5-5 0-.56.098-1.12.291-1.667l.473-1.333h-22.65c-.067-.326-.114-.658-.114-1s.035-.677.101-1h22.663l-.473-1.333c-.193-.547-.291-1.107-.291-1.667 0-2.757 2.243-5 5-5 2.248 0 4.23 1.517 4.82 3.69l.294 1.082 1.041-.416c.594-.236 1.214-.356 1.845-.356 2.757 0 5 2.243 5 5s-2.243 5-5 5c-.631 0-1.251-.12-1.845-.356l-1.041-.416-.294 1.083c-.59 2.171-2.572 3.689-4.82 3.689z"/></g></g></svg>