<svg id="_x33_0" enable-background="new 0 0 63.115 62" height="512" viewBox="0 0 63.115 62" width="512" xmlns="http://www.w3.org/2000/svg"><g><g><path d="m26.938 0h-13.37c-4.826 0-9.364 1.88-12.778 5.293l-.79.79 2.848 2.278c-1.523 1.964-2.351 4.369-2.351 6.881 0 1.248.153 2.495.456 3.705l.638 2.552.203.001c.594-1.465 2.025-2.5 3.703-2.5h2v-1.528c0-2.741 1.549-5.246 4-6.472 1.226 2.451 3.731 4 6.472 4h13.528c2.209 0 4 1.791 4 4h2c1.747 0 3.217 1.127 3.762 2.688l.32.002.616-3.08c.201-1.002.302-2.028.302-3.051 0-8.58-6.979-15.559-15.559-15.559z" fill="#f0bc5e"/></g><g><path d="m16.497 32h6c2.206 0 4-1.794 4-4h-2c0 1.103-.897 2-2 2h-6z"/><path d="m15.497 24c1.654 0 3-1.346 3-3s-1.346-3-3-3-3 1.346-3 3 1.346 3 3 3zm0-4c.551 0 1 .448 1 1s-.449 1-1 1-1-.448-1-1 .449-1 1-1z"/><path d="m27.497 24c1.654 0 3-1.346 3-3s-1.346-3-3-3-3 1.346-3 3 1.346 3 3 3zm0-4c.551 0 1 .448 1 1s-.449 1-1 1-1-.448-1-1 .449-1 1-1z"/><path d="m63.115 44h-10.236l-2 4h-12.599c.135-.349.217-.725.217-1.121 0-.822-.333-1.626-.914-2.207l-1.102-1.102c-.074-3.177-1.468-6.157-3.832-8.23 2.113-1.815 3.531-4.411 3.797-7.34h1.051c2.757 0 5-2.243 5-5s-2.243-5-5-5h-1.051c-.508-5.598-5.221-10-10.949-10h-5v2h5c3.235 0 6.077 1.715 7.663 4.284-.52-.183-1.08-.284-1.663-.284h-13.528c-2.377 0-4.515-1.321-5.578-3.447l-.447-.895-.895.447c-2.808 1.404-4.553 4.227-4.553 7.366v.529h-1c-2.757 0-5 2.243-5 5s2.243 5 5 5h1.051c.266 2.929 1.684 5.525 3.797 7.34-2.364 2.073-3.758 5.052-3.832 8.23l-1.102 1.102c-.581.581-.914 1.385-.914 2.207.001 1.721 1.401 3.121 3.122 3.121.319 0 .626-.062.922-.153.44 6.773 6.075 12.153 12.957 12.153 6.831 0 12.435-5.299 12.949-12h16.432l2 4h10.236l-2.5-5zm-32.677 4c-.084-.758-.269-1.485-.53-2.175l2.175 2.175zm-4.042 0c-.465-2.279-2.484-4-4.899-4-2.757 0-5 2.243-5 5s2.243 5 5 5c2.414 0 4.434-1.721 4.899-4h2.021c-.488 3.386-3.401 6-6.92 6-3.86 0-7-3.141-7-7s3.14-7 7-7c3.519 0 6.432 2.614 6.92 6zm-2.083 2c-.414 1.161-1.514 2-2.816 2-1.654 0-3-1.346-3-3s1.346-3 3-3c1.302 0 2.402.839 2.816 2h-3.816v2zm-10.524-8.834c2.051-2.018 4.805-3.166 7.708-3.166s5.657 1.148 7.708 3.166c-.436.537-.708 1.211-.708 1.955 0 .091.019.18.027.271-1.65-2.064-4.185-3.392-7.027-3.392s-5.376 1.328-7.027 3.392c.008-.091.027-.18.027-.271 0-.743-.272-1.418-.708-1.955zm20.794 6.506-3.758-3.758c-.208-.209-.328-.498-.328-.793 0-.618.503-1.121 1.121-1.121.3 0 .581.116.793.328l3.758 3.758c.208.209.328.498.328.793 0 .618-.503 1.121-1.121 1.121-.3 0-.581-.116-.793-.328zm-.486-6.486-.272-.272c-.589-.59-1.373-.914-2.207-.914-.237 0-.466.032-.689.082-.888-.939-1.894-1.735-2.995-2.364 1.072-.244 2.082-.643 3.011-1.175 1.519 1.197 2.61 2.82 3.152 4.643zm6.4-18.186c0 1.654-1.346 3-3 3h-1v-1.465l2.555-1.703-1.109-1.664-1.445.964v-2.132h1c1.653 0 2.999 1.346 2.999 3zm-38 0c0-1.654 1.346-3 3-3h1v2.132l-1.445-.964-1.109 1.664 2.555 1.703v1.465h-1c-1.655 0-3.001-1.346-3.001-3zm6 4v-9.528c0-2.062.994-3.942 2.645-5.1 1.518 2.262 4.048 3.628 6.827 3.628h13.528c1.654 0 3 1.346 3 3v8c0 4.963-4.038 9-9 9h-8c-4.962 0-9-4.037-9-9zm3.552 9.543c.928.532 1.939.932 3.011 1.175-1.101.629-2.107 1.425-2.995 2.364-.223-.05-.452-.082-.689-.082-.834 0-1.618.324-2.207.914l-.272.272c.542-1.823 1.633-3.446 3.152-4.643zm-4.431 11.457c-.618 0-1.121-.503-1.121-1.121 0-.295.12-.584.328-.793l3.758-3.758c.212-.212.493-.328.793-.328.618 0 1.121.503 1.121 1.121 0 .295-.12.584-.328.793l-3.758 3.758c-.212.212-.493.328-.793.328zm13.879 12c-6.065 0-11-4.935-11-11 0-.206.015-.409.026-.612l2.563-2.563c-.375.989-.589 2.056-.589 3.175 0 4.963 4.038 9 9 9 4.624 0 8.442-3.507 8.941-8h2.008c-.507 5.598-5.221 10-10.949 10zm32.618-8-1-2h5.764l1 2zm4.764-4h-5.764l1-2h5.764z"/><path d="m40.497 40h2v2h-2z"/><path d="m44.497 40h2v2h-2z"/><path d="m48.497 40h2v2h-2z"/><path d="m45.911 30h16.586v-2h-14.586l1.293-1.293-1.414-1.414-5.707 5.707 5.707 5.707 1.414-1.414-1.293-1.293h14.586v-2h-16.586l-1-1z"/><path d="m53.79 20.707 1.414-1.414-1.293-1.293h8.586v-2h-10.586l-1-1 1-1h10.586v-2h-8.586l1.293-1.293-1.414-1.414-5.707 5.707z"/><path d="m42.497 4h2v2h-2z"/><path d="m46.497 4h2v2h-2z"/><path d="m50.497 4h2v2h-2z"/><path d="m54.497 4h2v2h-2z"/></g></g></svg>