<svg id="_x33_0" enable-background="new 0 0 62 62" height="512" viewBox="0 0 62 62" width="512" xmlns="http://www.w3.org/2000/svg"><g><g><g><path d="m28.081 20h-7.141c-.286 2.854-1.766 5.351-3.94 6.986v4.014c1.281 1.281 3.017 2 4.828 2h9.172c2.209 0 4 1.791 4 4h1c1.217 0 2.26.728 2.73 1.77l.137-.006.901-4.508c.154-.769.232-1.556.232-2.337 0-6.572-5.347-11.919-11.919-11.919z" fill="#f0bc5e"/></g></g><g><path d="m10 0h2v6h-2z"/><path d="m14.123 3.218h6v2h-6z" transform="matrix(.383 -.924 .924 .383 6.671 18.421)"/><path d="m3.877 1.218h2v6h-2z" transform="matrix(.924 -.383 .383 .924 -1.243 2.188)"/><path d="m24 39c0-1.654-1.346-3-3-3s-3 1.346-3 3 1.346 3 3 3 3-1.346 3-3zm-3 1c-.552 0-1-.448-1-1s.448-1 1-1 1 .448 1 1-.448 1-1 1z"/><path d="m29 42c1.654 0 3-1.346 3-3s-1.346-3-3-3-3 1.346-3 3 1.346 3 3 3zm0-4c.552 0 1 .448 1 1s-.448 1-1 1-1-.448-1-1 .448-1 1-1z"/><path d="m30 44h-2c0 1.103-.897 2-2 2h-4v2h4c2.206 0 4-1.794 4-4z"/><path d="m54 5c0-1.654 1.346-3 3-3s3 1.346 3 3-1.346 3-3 3h-1v6h2v-4.101c2.279-.464 4-2.484 4-4.899 0-2.757-2.243-5-5-5s-5 2.243-5 5v1h2z"/><path d="m56 16h2v2h-2z"/><path d="m42 5c0-1.654 1.346-3 3-3s3 1.346 3 3-1.346 3-3 3h-1v10h2v-8.101c2.279-.464 4-2.484 4-4.899 0-2.757-2.243-5-5-5s-5 2.243-5 5v1h2z"/><path d="m44 20h2v2h-2z"/><path d="m30 5c0-1.654 1.346-3 3-3s3 1.346 3 3-1.346 3-3 3h-1v6h2v-4.101c2.279-.464 4-2.484 4-4.899 0-2.757-2.243-5-5-5s-5 2.243-5 5v1h2z"/><path d="m32 16h2v2h-2z"/><path d="m58 52.586v-18.586c0-1.103-.897-2-2-2h-16.004c-.005.669-.072 1.339-.189 2h16.193v18h-24.776c-.185-.274-.406-.519-.645-.746 2.894-1.26 5.001-3.996 5.363-7.254h.058c2.206 0 4-1.794 4-4s-1.794-4-4-4v-3c0-2.757-2.243-5-5-5h-1v2h1c1.654 0 3 1.346 3 3v.026c-.838-.635-1.87-1.026-3-1.026h-3.101c-.465-2.279-2.484-4-4.899-4h-1v2h1c1.302 0 2.402.839 2.816 2h-3.988c-1.402 0-2.773-.524-3.828-1.442v-3.086c2.549-2.101 4-5.16 4-8.472 0-6.065-4.935-11-11-11s-11 4.935-11 11c0 3.312 1.451 6.371 4 8.472v5.528c0 3.521 2.617 6.436 6.007 6.921-.001.027-.007.052-.007.079 0 2.206 1.794 4 4 4h.059c.499 4.493 4.316 8 8.941 8h.586l-2 2h-9.586c-2.206 0-4 1.794-4 4s1.794 4 4 4h12.343c1.336 0 2.592-.521 3.536-1.465l.535-.535h31.172c1.331 0 2.414-1.083 2.414-2.414 0-.636-.258-1.258-.707-1.707zm-20-12.586c0 1.103-.897 2-2 2v-4c1.103 0 2 .897 2 2zm-32-7v-1h10v1c0 .342-.035.677-.101 1h-9.798c-.066-.323-.101-.658-.101-1zm2-13h-1c-.552 0-1-.448-1-1s.448-1 1-1 1 .448 1 1zm4 10h-2v-8h2zm-10-11c0-4.963 4.037-9 9-9s9 4.037 9 9c0 2.846-1.313 5.466-3.602 7.188l-.398.299v3.513h-2v-8h1c1.654 0 3-1.346 3-3s-1.346-3-3-3-3 1.346-3 3v1h-2v-1c0-1.654-1.346-3-3-3s-3 1.346-3 3 1.346 3 3 3h1v8h-2v-3.513l-.398-.3c-2.29-1.721-3.602-4.341-3.602-7.187zm12 1v-1c0-.552.448-1 1-1s1 .448 1 1-.448 1-1 1zm-6.974 16h7.949c-.914 1.207-2.348 2-3.974 2s-3.062-.793-3.975-2zm4.974 4c0-.027.006-.054.007-.081.704-.102 1.373-.308 1.993-.604v2.685c-1.103 0-2-.897-2-2zm4 3v-5.111c1.235-1.263 2-2.988 2-4.889v-.011c1.163.65 2.485 1.011 3.828 1.011h9.172c1.654 0 3 1.346 3 3v6c0 3.859-3.141 7-7 7h-4c-3.859 0-7-3.141-7-7zm-6 15c0-1.103.897-2 2-2h2v4h-2c-1.103 0-2-.897-2-2zm16.465 1.121c-.567.567-1.32.879-2.122.879h-8.343v-4h5.586l1.707 1.707 1.414-1.414-1.293-1.293 2.258-2.258c.478-.478 1.115-.742 1.793-.742 1.397 0 2.535 1.138 2.535 2.535 0 .678-.264 1.314-.742 1.793zm33.121-1.121h-29.172l.258-.258c.856-.856 1.328-1.995 1.328-3.207 0-.183-.033-.358-.054-.535h24.64l3.293 3.293c.077.077.121.184.121.293 0 .228-.186.414-.414.414z"/><path d="m42 36v6h12v-6zm2 2h4v2h-4zm8 2h-2v-2h2z"/></g></g></svg>