<svg id="_x33_0" enable-background="new 0 0 62.414 62" height="512" viewBox="0 0 62.414 62" width="512" xmlns="http://www.w3.org/2000/svg"><g><g><g><path d="m23 26.799-.222.222-2.057-1.47c-.725.394-1.498.709-2.304.948l-.417 2.501h-6l-.417-2.5c-.806-.239-1.579-.554-2.304-.948l-2.057 1.47-2.651-2.652-.37.38.093.507c1.399 7.654 7.527 13.413 15.042 14.531.605-.485 1.364-.788 2.2-.788.513 0 1.01.117 1.465.33-.001 0-.001-6.503-.001-12.531z" fill="#f0bc5e"/></g><g><path d="m27.021 7.222-1.47 2.057c.394.725.709 1.498.948 2.304l2.501.417v5h8c.738 0 1.376.405 1.723 1h3.277v-1c0-7.168-5.832-13-13-13h-4.624l-.284.293z" fill="#f0bc5e"/></g></g><g><path d="m43 30c-6.065 0-11 4.935-11 11 0 4.439 2.649 8.264 6.444 10h5.556c.684 0 1.306.237 1.811.622 4.705-1.247 8.189-5.529 8.189-10.622 0-6.065-4.935-11-11-11zm0 17c-3.309 0-6-2.691-6-6s2.691-6 6-6 6 2.691 6 6-2.691 6-6 6z" fill="#f0bc5e"/></g><g><path d="m15 12c-1.654 0-3 1.346-3 3s1.346 3 3 3 3-1.346 3-3-1.346-3-3-3zm0 4c-.552 0-1-.448-1-1s.448-1 1-1 1 .448 1 1-.448 1-1 1z"/><path d="m15 8c-3.859 0-7 3.141-7 7s3.141 7 7 7 7-3.141 7-7-3.141-7-7-7zm0 12c-2.757 0-5-2.243-5-5s2.243-5 5-5 5 2.243 5 5-2.243 5-5 5z"/><circle cx="15" cy="5" r="1"/><path d="m7.929 8.929c.256 0 .512-.098.707-.293.391-.391.391-1.024 0-1.414-.195-.195-.451-.293-.707-.293s-.512.098-.707.293c-.391.391-.391 1.024 0 1.414.195.195.451.293.707.293z"/><circle cx="5" cy="15" r="1"/><path d="m7.929 21.071c-.256 0-.512.098-.707.293-.391.391-.391 1.024 0 1.414.195.195.451.293.707.293s.512-.098.707-.293c.391-.391.391-1.024 0-1.414-.195-.195-.451-.293-.707-.293z"/><circle cx="15" cy="25" r="1"/><path d="m22.778 21.364c-.195-.195-.451-.293-.707-.293s-.512.098-.707.293c-.391.391-.391 1.024 0 1.414.195.195.451.293.707.293s.512-.098.707-.293c.391-.39.391-1.024 0-1.414z"/><circle cx="25" cy="15" r="1"/><path d="m22.071 8.929c.256 0 .512-.098.707-.293.391-.391.391-1.024 0-1.414-.195-.195-.451-.293-.707-.293s-.512.098-.707.293c-.391.391-.391 1.024 0 1.414.195.195.451.293.707.293z"/><path d="m55.293 38.707 1.293 1.293h-2.637c.03.33.051.662.051 1 0 .337-.017.67-.047 1h4.633l1 1-1 1h-5.01c-.199.698-.465 1.366-.791 2h3.802l-1.293 1.293 1.414 1.414 5.706-5.707-5.707-5.707z"/><path d="m55.293 24.707 1.293 1.293h-6.586v2h8.586l1 1-1 1h-15.586c2.346 0 4.517.744 6.305 2h7.281l-1.293 1.293 1.414 1.414 5.707-5.707-5.707-5.707z"/><path d="m59.586 15-1 1h-10.586v2h8.586l-1.293 1.293 1.414 1.414 5.707-5.707-5.707-5.707-1.414 1.414 1.293 1.293h-12.586v2h14.586z"/><path d="m36 23c0-1.654-1.346-3-3-3s-3 1.346-3 3 1.346 3 3 3 3-1.346 3-3zm-4 0c0-.552.448-1 1-1s1 .448 1 1-.448 1-1 1-1-.448-1-1z"/><path d="m34 34h.521c.63-.761 1.364-1.431 2.174-2h-2.695c-1.103 0-2-.897-2-2h-2c0 2.206 1.794 4 4 4z"/><path d="m43 34c-3.859 0-7 3.141-7 7s3.141 7 7 7 7-3.141 7-7-3.141-7-7-7zm0 12c-2.757 0-5-2.243-5-5s2.243-5 5-5 5 2.243 5 5-2.243 5-5 5z"/><path d="m44 50h-8.586l-10-10h6.637c.062-.688.192-1.355.376-2h-8.427v-10.787l4.326-4.326-1.608-2.253c.204-.428.387-.872.547-1.33l2.735-.457v-.847h7c.552 0 1 .448 1 1v12.214c.634-.325 1.302-.59 2-.788v-11.426c0-1.654-1.346-3-3-3h-7v-4.847l-2.735-.457c-.16-.458-.343-.902-.547-1.33l1.608-2.253-5.439-5.439-2.253 1.608c-.428-.204-.872-.387-1.33-.547l-.457-2.735h-7.693l-.457 2.735c-.458.16-.902.343-1.33.547l-2.254-1.608-5.439 5.439 1.608 2.253c-.204.428-.387.872-.547 1.33l-2.735.457v7.693l2.735.457c.16.458.343.902.547 1.33l-1.608 2.253 5.439 5.439 2.253-1.608c.428.204.872.387 1.33.547l.457 2.736h7.693l.457-2.735c.458-.16.902-.343 1.33-.547l1.367.975v10.352c-.155-.015-.307-.045-.465-.045-2.501 0-4.535 2.034-4.535 4.535 0 1.212.472 2.351 1.328 3.207l.672.672v15.586h19v-4h2v2c0 1.103.897 2 2 2h2c1.103 0 2-.897 2-2v-2.556c1.19-.694 2-1.97 2-3.444 0-2.206-1.794-4-4-4zm-23.757-25.328c-.651.354-1.362.647-2.111.869l-.599.178-.38 2.281h-4.307l-.38-2.281-.599-.178c-.749-.222-1.46-.515-2.111-.869l-.55-.299-1.876 1.342-3.045-3.045 1.342-1.877-.299-.55c-.354-.651-.647-1.362-.869-2.111l-.178-.599-2.281-.38v-4.307l2.281-.38.178-.599c.222-.749.515-1.46.869-2.111l.299-.55-1.342-1.876 3.045-3.045 1.877 1.342.55-.299c.651-.354 1.362-.647 2.111-.869l.599-.178.38-2.281h4.307l.38 2.281.599.178c.749.222 1.46.515 2.111.869l.55.299 1.877-1.342 3.045 3.045-1.342 1.877.299.55c.354.651.647 1.362.869 2.111l.178.599 2.28.38v4.307l-2.281.38-.178.599c-.222.749-.515 1.46-.869 2.111l-.299.55 1.342 1.877-3.045 3.045-1.877-1.342zm15.757 35.328h-15v-11.586l7.535 7.535c1.322 1.322 3.08 2.051 4.95 2.051h2.515zm-2.515-4c-1.336 0-2.592-.521-3.536-1.465l-10.207-10.207c-.478-.478-.742-1.115-.742-1.793 0-1.397 1.138-2.535 2.535-2.535.678 0 1.314.264 1.793.742l10.258 10.258-1.293 1.293 1.414 1.414 1.707-1.707h4.586v4zm10.515 4h-2v-2h2zm0-4h-2v-4h2c1.103 0 2 .897 2 2s-.897 2-2 2z"/><path d="m42 26h6v2h-6z"/><path d="m44 16h2v2h-2z"/></g></g></svg>