<svg id="_x33_0" enable-background="new 0 0 62.868 62.803" height="512" viewBox="0 0 62.868 62.803" width="512" xmlns="http://www.w3.org/2000/svg"><g><g><path d="m3.53 18.57c.659-.478 1.462-.767 2.338-.767h2v-.396c0-2.152 1.377-4.063 3.419-4.743l1.001-.334-.002.001c.523.881 1.483 1.472 2.582 1.472h17c2.209 0 4 1.791 4 4h2c.876 0 1.68.29 2.339.767l.132-.53c.352-1.404.529-2.85.529-4.294 0-2.735-.646-5.474-1.869-7.918l-.513-1.025h-.618c-1.889 0-3.779.398-5.508 1.155l.789-3.155h-1.281c-1.994 0-3.991.34-5.878.992l1.496-2.992h-11.152c-7.425 0-13.466 6.041-13.466 13.466 0 1.1.135 2.198.402 3.266z" fill="#f0bc5e"/></g><g><path d="m44.868 44.618v2.184h2v-2h2v-3c0-1.654-1.346-3-3-3-.552 0-1-.448-1-1v-1h1c.552 0 1 .448 1 1v1h2v-1c0-1.302-.839-2.402-2-2.816v-2.184h-2v2h-2v3c0 1.654 1.346 3 3 3 .552 0 1 .448 1 1v1h-1c-.552 0-1-.448-1-1v-1h-2v1c0 1.303.839 2.402 2 2.816z"/><path d="m60.868 30.803h-4c0-1.103-.897-2-2-2h-18c-.014 0-.028.004-.042.004.025-.333.042-.668.042-1.004v-1h1c2.757 0 5-2.243 5-5s-2.243-5-5-5h-1.101c-.465-2.279-2.484-4-4.899-4h-17c-1.103 0-2-.897-2-2s.897-2 2-2v-2c-2.206 0-4 1.794-4 4 0 .314.045.615.114.908l-.011.004c-2.26.753-3.819 2.756-4.055 5.088h-1.048c-2.757 0-5 2.243-5 5s2.243 5 5 5h1v1c0 5.107 2.968 9.524 7.264 11.648-1.621.825-2.814 2.366-3.158 4.208l-5.106-7.659-5.868 8.803h2.868v8h2v-10h-1.132l2.132-3.197 2.132 3.197h-1.132v20h2v-18h2v18h16v-2.105c.432.063.869.105 1.313.105h8.687c0 1.103.897 2 2 2h14c1.103 0 2-.897 2-2v-2c0-1.103-.897-2-2-2h-4v-6.426c3.032-.862 5.528-2.992 6.885-5.78 4.09-.878 7.115-4.561 7.115-8.793v-3c0-1.104-.897-2.001-2-2.001zm-55-6c-1.654 0-3-1.346-3-3s1.346-3 3-3h1v2.132l-1.445-.964-1.109 1.664 2.555 1.703v1.465zm33 28h2c1.103 0 2 .897 2 2s-.897 2-2 2h-2zm4-1.444c-.591-.344-1.268-.556-2-.556h-9.586l-10-10h2.586c2.02 0 3.997-.473 5.788-1.364 1.152 2.573 3.479 4.545 6.327 5.157 1.358 2.789 3.853 4.919 6.886 5.781v.982zm-8-18.556v7c0 .841.104 1.657.283 2.445-2.527-1.077-4.283-3.602-4.283-6.445v-3zm6-11c0 1.654-1.346 3-3 3h-1v-1.465l2.555-1.703-1.109-1.664-1.445.964v-2.132h1c1.653 0 2.999 1.345 2.999 3zm-32 6v-10.397c0-1.725 1.1-3.249 2.735-3.795l.331-.11c.731.795 1.771 1.302 2.934 1.302h17c1.654 0 3 1.346 3 3v10c0 1.024-.146 2.029-.421 3h-3.579c-1.103 0-2 .897-2 2v3c0 .574.058 1.137.165 1.685-1.586.846-3.35 1.315-5.165 1.315h-4c-6.065 0-11-4.935-11-11zm16 33h-12v-11.586l8.95 8.95c.884.884 1.921 1.556 3.05 2.003zm3.314-2c-1.869 0-3.627-.728-4.949-2.05l-9.207-9.207c-.746-.746-1.157-1.738-1.157-2.793 0-2.178 1.772-3.95 3.95-3.95 1.055 0 2.047.411 2.793 1.157l9.843 9.843-1.293 1.293 1.414 1.414 1.707-1.707h5.586v6zm24.686 2h-14v-2h14zm-6-4h-2v-6.051c.33.03.662.051 1 .051s.67-.021 1-.051zm8-17c0 4.963-4.037 9-9 9s-9-4.037-9-9v-9h18zm6-4c0 2.844-1.756 5.369-4.283 6.444.18-.787.283-1.603.283-2.444v-7h4z"/><path d="m16.868 20.803h2c0-2.206-1.794-4-4-4s-4 1.794-4 4h2c0-1.103.897-2 2-2s2 .897 2 2z"/><path d="m28.868 18.803c1.103 0 2 .897 2 2h2c0-2.206-1.794-4-4-4s-4 1.794-4 4h2c0-1.103.898-2 2-2z"/><path d="m28.868 27.803v-1h-14v1c0 3.859 3.141 7 7 7s7-3.141 7-7zm-11.899 1h9.799c-.465 2.279-2.484 4-4.899 4s-4.435-1.721-4.9-4z"/><path d="m2.868 58.803h2v2h-2z"/><path d="m2.868 54.803h2v2h-2z"/><path d="m48.868 26.803h2v-20h-1.132l2.132-3.198 2.132 3.198h-1.132v10h2v-8h2.868l-5.868-8.803-5.868 8.803h2.868z"/><path d="m52.868 22.803h2v2h-2z"/><path d="m52.868 18.803h2v2h-2z"/></g></g></svg>